<?xml version="1.0" encoding="UTF-8" standalone="no"?>
<svg
   width="16"
   height="16"
   viewBox="0 0 16 16"
   version="1.1"
   id="svg8"
   inkscape:version="1.1 (c68e22c387, 2021-05-23)"
   sodipodi:docname="notebook-config-symbolic.svg"
   xmlns:inkscape="http://www.inkscape.org/namespaces/inkscape"
   xmlns:sodipodi="http://sodipodi.sourceforge.net/DTD/sodipodi-0.dtd"
   xmlns="http://www.w3.org/2000/svg"
   xmlns:svg="http://www.w3.org/2000/svg"
   xmlns:rdf="http://www.w3.org/1999/02/22-rdf-syntax-ns#"
   xmlns:cc="http://creativecommons.org/ns#"
   xmlns:dc="http://purl.org/dc/elements/1.1/">
  <defs
     id="defs2" />
  <sodipodi:namedview
     id="base"
     pagecolor="#ffffff"
     bordercolor="#666666"
     borderopacity="1.0"
     inkscape:pageopacity="0.0"
     inkscape:pageshadow="2"
     inkscape:zoom="22.627417"
     inkscape:cx="12.97099"
     inkscape:cy="11.402097"
     inkscape:document-units="px"
     inkscape:current-layer="layer1"
     inkscape:document-rotation="0"
     showgrid="false"
     units="px"
     inkscape:window-width="2560"
     inkscape:window-height="1011"
     inkscape:window-x="0"
     inkscape:window-y="0"
     inkscape:window-maximized="1"
     inkscape:pagecheckerboard="0"
     showguides="true">
    <inkscape:grid
       type="xygrid"
       id="grid10" />
  </sodipodi:namedview>
  <metadata
     id="metadata5">
    <rdf:RDF>
      <cc:Work
         rdf:about="">
        <dc:format>image/svg+xml</dc:format>
        <dc:type
           rdf:resource="http://purl.org/dc/dcmitype/StillImage" />
        <dc:title />
      </cc:Work>
    </rdf:RDF>
  </metadata>
  <g
     inkscape:label="Layer 1"
     inkscape:groupmode="layer"
     id="layer1">
    <path
       id="rect12"
       style="color:#000000;font-style:normal;font-variant:normal;font-weight:normal;font-stretch:normal;font-size:medium;line-height:normal;font-family:sans-serif;font-variant-ligatures:normal;font-variant-position:normal;font-variant-caps:normal;font-variant-numeric:normal;font-variant-alternates:normal;font-variant-east-asian:normal;font-feature-settings:normal;font-variation-settings:normal;text-indent:0;text-align:start;text-decoration:none;text-decoration-line:none;text-decoration-style:solid;text-decoration-color:#000000;letter-spacing:normal;word-spacing:normal;text-transform:none;writing-mode:lr-tb;direction:ltr;text-orientation:mixed;dominant-baseline:auto;baseline-shift:baseline;text-anchor:start;white-space:normal;shape-padding:0;shape-margin:0;inline-size:0;clip-rule:nonzero;display:inline;overflow:visible;visibility:visible;opacity:1;isolation:auto;mix-blend-mode:normal;color-interpolation:sRGB;color-interpolation-filters:linearRGB;solid-color:#000000;solid-opacity:1;vector-effect:none;fill:#241f31;fill-opacity:1;fill-rule:nonzero;stroke:none;stroke-width:50;stroke-linecap:butt;stroke-linejoin:round;stroke-miterlimit:4;stroke-dasharray:none;stroke-dashoffset:0;stroke-opacity:1;color-rendering:auto;image-rendering:auto;shape-rendering:auto;text-rendering:auto;enable-background:accumulate;stop-color:#000000;stop-opacity:1"
       d="M 2.0996094 0 C 1.4902094 0 1 0.446 1 1 L 1 2 L 1 14 L 1 15 C 1 15.554 1.4902094 16 2.0996094 16 L 3 16 L 6 16 L 8 16 C 6.125 16 6.0073242 14.243164 6 14.023438 L 6 14 L 3 14 L 3 2 L 11 2 L 11 6 L 12 6 L 12 2 L 13 2 L 13 6 L 15 6 L 15 2 C 15 0.90929723 14.090703 0 13 0 L 10.900391 0 L 3 0 L 2.0996094 0 z M 9 15.980469 L 9 16 L 9.0214844 16 C 9.0141097 15.993734 9.007338 15.986777 9 15.980469 z " />
    <path
       id="rect879-6"
       style="fill:#241f31;fill-opacity:0.5;stroke:none;stroke-width:2;stroke-linejoin:round;stroke-miterlimit:4;stroke-dasharray:none"
       d="M 3 2 L 3 14 L 6 14 L 6 10 C 6 6.25 9.515625 6.0146484 9.9550781 6 L 11 6 L 11 2 L 3 2 z " />
    <rect
       style="fill:#241f31;fill-opacity:1;stroke:none;stroke-width:2;stroke-linejoin:round;stroke-miterlimit:4;stroke-dasharray:none"
       id="rect927"
       width="5"
       height="1"
       x="4"
       y="3" />
    <rect
       style="fill:#241f31;fill-opacity:1;stroke:none;stroke-width:2;stroke-linejoin:round;stroke-miterlimit:4;stroke-dasharray:none"
       id="rect929"
       width="5"
       height="1"
       x="4"
       y="5" />
    <g
       id="path202">
      <path
         style="color:#000000;fill:#241f31;stroke-width:1.0813;-inkscape-stroke:none"
         d="m 8.0542085,9.4623589 c 0.3807898,0.5536801 0.9908044,1.1986951 0.9132325,1.5403321 -0.077472,0.336236 -0.8903468,0.694371 -1.4730984,1.032605 0.034658,0.291105 0.102047,0.577127 0.2008973,0.852677 0.6706547,0.03862 1.5326072,4.16e-4 1.7476753,0.265926 0.2176055,0.268993 -0.038938,1.10079 -0.1394112,1.766855 0.2540117,0.158525 0.5320557,0.26889 0.812292,0.365667 0.453093,-0.499494 0.961739,-1.199352 1.307011,-1.203272 0.351319,-0.003 0.87054,0.70554 1.332416,1.193447 0.266983,-0.09471 0.515957,-0.236259 0.764737,-0.390979 -0.104693,-0.661705 -0.339432,-1.511026 -0.123646,-1.782905 0.220906,-0.279611 1.136524,-0.2184 1.811791,-0.280382 0.09645,-0.271476 0.148773,-0.557401 0.184609,-0.841968 -0.585663,-0.335051 -1.452129,-0.66256 -1.532176,-1.006522 -0.07917,-0.344603 0.55769,-1.0326848 0.936155,-1.5976725 C 14.753242,9.309264 14.731712,9.2317071 14.684149,9.1664654 14.563032,9.0003199 14.413969,8.8585373 14.272712,8.7163935 13.639369,8.9649597 12.832953,9.44627 12.510375,9.2950988 12.190189,9.1435195 12.049308,8.2164491 11.844016,7.573463 11.553672,7.5455363 11.260863,7.5494802 10.970839,7.5852253 10.768927,8.231988 10.649533,9.1449774 10.330774,9.3014224 10.017035,9.4555376 9.2288684,9.0123352 8.6007964,8.7721441 8.349929,8.9420914 8.2052855,9.2513336 8.0542085,9.4623589 Z m 2.1744605,0.6208851 c 1.987853,-1.5239515 4.199307,1.509555 2.140252,2.935837 -1.961187,1.358492 -4.0336225,-1.484319 -2.140252,-2.935837 z"
         id="path849" />
      <path
         style="color:#000000;fill:#241f31;-inkscape-stroke:none"
         d="m 11.896484,7.0351562 c -0.329655,-0.031708 -0.663109,-0.026887 -0.992187,0.013672 l -0.345703,0.042969 -0.103516,0.3320312 C 10.34159,7.7873519 10.261637,8.1793356 10.175781,8.4765625 10.138321,8.6062456 10.101688,8.701674 10.070313,8.7714844 9.997108,8.7545245 9.9019519,8.7270556 9.7792969,8.6796875 9.4962401,8.570374 9.1401559,8.4003515 8.7929688,8.2675781 L 8.53125,8.1660156 8.296875,8.3242188 C 7.873766,8.6108492 7.7158607,9.007882 7.6152344,9.1484375 l -0.2207032,0.3085938 0.2148438,0.3125 c 0.211232,0.3071377 0.458213,0.6066747 0.6289063,0.8515627 0.074089,0.106293 0.1236662,0.190906 0.15625,0.255859 -0.057908,0.04819 -0.1418295,0.110314 -0.2558594,0.179688 -0.2557211,0.155575 -0.6018996,0.329403 -0.9160157,0.511718 l -0.3066406,0.177735 0.041016,0.353515 c 0.03947,0.331518 0.1158838,0.656737 0.2285157,0.970704 l 0.1210937,0.335937 0.3574219,0.02148 c 0.3588142,0.02066 0.7395052,0.02159 1.0292969,0.04687 0.126191,0.01101 0.2190645,0.02836 0.2890625,0.04492 -7.318e-4,0.07079 -0.00453,0.163049 -0.023437,0.28711 -0.044235,0.290314 -0.1340446,0.665884 -0.1894531,1.033203 l -0.052734,0.351562 0.3007812,0.1875 c 0.3087283,0.192673 0.6260576,0.315811 0.921875,0.417969 l 0.3378909,0.117188 0.238281,-0.263672 c 0.243329,-0.268248 0.483569,-0.565635 0.685547,-0.777344 0.09155,-0.09596 0.169019,-0.164892 0.226562,-0.208984 0.05863,0.0439 0.138695,0.112708 0.232422,0.208984 0.206523,0.212139 0.451897,0.510003 0.703125,0.775391 l 0.240235,0.255859 0.332031,-0.117188 c 0.327136,-0.116049 0.608569,-0.281306 0.869141,-0.443359 l 0.304687,-0.1875 -0.05469,-0.355469 c -0.05651,-0.357191 -0.141693,-0.731983 -0.181641,-1.02539 -0.01793,-0.131713 -0.02274,-0.234928 -0.02148,-0.308594 0.07477,-0.01767 0.184628,-0.03566 0.324218,-0.04687 0.307663,-0.02472 0.706117,-0.02409 1.082032,-0.05859 l 0.34375,-0.03125 0.115234,-0.326172 c 0.115891,-0.326197 0.174513,-0.650327 0.212891,-0.955078 l 0.04492,-0.359375 -0.3125,-0.177734 c -0.326676,-0.186888 -0.692158,-0.353336 -0.96289,-0.503906 -0.116847,-0.06499 -0.200249,-0.121573 -0.261719,-0.167969 0.03518,-0.07059 0.08611,-0.162115 0.164063,-0.275391 0.178065,-0.258747 0.433739,-0.572041 0.644531,-0.8867186 L 15.445313,9.3808594 15.25,9.0820313 c 0.01607,0.024743 -0.0069,-0.067078 -0.128906,-0.234375 C 14.961836,8.6291905 14.790164,8.4706924 14.65625,8.3359375 l -0.25,-0.2519531 -0.332031,0.1289062 c -0.354501,0.13913 -0.714856,0.3232747 -1.00586,0.4433594 -0.127402,0.052574 -0.228156,0.083912 -0.304687,0.1035156 -0.0332,-0.071079 -0.07335,-0.1677911 -0.113281,-0.2988281 C 12.559093,8.1613718 12.474021,7.76728 12.359375,7.4082031 L 12.25,7.0703125 Z m -0.46289,1.0800782 c 0.05823,0.2190718 0.11326,0.4293788 0.183594,0.6601562 0.04196,0.1376659 0.09667,0.2697191 0.154296,0.4003907 -0.266314,-0.050463 -0.549728,0.1555139 -0.833984,0.2128906 0.01786,-0.031638 0.06657,-0.057143 0.08203,-0.087891 0.0853,-0.1696637 0.143309,-0.343403 0.195313,-0.5234375 0.06658,-0.230502 0.118281,-0.4416965 0.173828,-0.6601563 0.01499,-3.162e-4 0.02993,-0.00183 0.04492,-0.00195 z m 2.703125,1.2519531 C 13.995948,9.5574922 13.854653,9.742338 13.710938,9.9511719 13.603343,10.107517 13.503612,10.26352 13.425781,10.4375 c -0.02426,0.05423 -0.0091,0.14355 -0.0293,0.205078 -0.07369,-0.164913 -0.03692,-0.370685 -0.142578,-0.515625 -0.109911,-0.150768 -0.323856,-0.1823589 -0.464843,-0.3066405 0.04759,-0.00676 0.112234,0.021052 0.15625,0.011719 0.187007,-0.039654 0.359564,-0.1033218 0.535156,-0.1757813 0.232622,-0.095993 0.442348,-0.1925764 0.65625,-0.2890625 z m -5.3808596,0.056641 c 0.2081295,0.090135 0.409234,0.1792814 0.6328125,0.265625 0.1368453,0.052848 0.2759999,0.092297 0.4179687,0.1269532 -0.2207753,0.1983957 -0.2697541,0.4512827 -0.3984375,0.6874997 -0.00321,-0.0074 -6.813e-4,-0.02011 -0.00391,-0.02734 C 9.3280907,10.305615 9.2320122,10.152678 9.1269531,10.001953 8.9926172,9.8092263 8.8611419,9.6385644 8.7265625,9.4609375 c 0.00867,-0.012233 0.021184,-0.026048 0.029297,-0.037109 z m 2.8281246,0.8046879 c 0.305527,0.06207 0.594914,0.2608 0.794922,0.535156 0.200008,0.274356 0.300009,0.612009 0.265625,0.921875 -0.03438,0.309865 -0.180205,0.608979 -0.583984,0.888672 -0.381099,0.263983 -0.704379,0.302636 -1.001953,0.236328 -0.297574,-0.06631 -0.5751,-0.259411 -0.767578,-0.523438 -0.192478,-0.264026 -0.2915861,-0.588986 -0.263672,-0.892578 0.02791,-0.303592 0.161376,-0.600752 0.529297,-0.882812 0.389816,-0.298846 0.721817,-0.345271 1.027343,-0.283203 z m 2.070313,1.339843 c 0.0207,0.01833 0.03232,0.05924 0.05273,0.07617 0.146252,0.121315 0.302333,0.217126 0.466797,0.308594 0.209467,0.116497 0.404296,0.213993 0.605469,0.316406 -0.0025,0.01181 -0.0053,0.02346 -0.0078,0.03516 -0.226101,0.0098 -0.44461,0.0179 -0.683593,0.03711 -0.187095,0.01504 -0.367744,0.03632 -0.550782,0.08594 -0.108779,0.02949 -0.222153,0.130051 -0.335937,0.201172 0.172456,-0.282887 0.485732,-0.519619 0.519531,-0.824218 0.0096,-0.08633 -0.066,-0.151043 -0.06641,-0.236329 z m -4.5839845,0.146485 c 0.029906,0.27161 0.1026831,0.523951 0.21875,0.765625 -0.1659932,-0.04399 -0.331305,-0.06909 -0.5019531,-0.08399 -0.2263958,-0.01975 -0.4411796,-0.02426 -0.6621094,-0.03125 -0.00462,-0.01888 -0.00938,-0.03768 -0.013672,-0.05664 0.197611,-0.106902 0.3908508,-0.207062 0.5898438,-0.328125 0.1308963,-0.07963 0.2514717,-0.169548 0.3691406,-0.265625 z m 3.7402345,1.537109 c -0.0042,0.03937 -0.03905,0.08555 -0.04102,0.123047 -0.0097,0.185173 0.0084,0.364551 0.0332,0.546875 0.03153,0.231591 0.07537,0.445304 0.117188,0.666016 -0.01318,0.007 -0.026,0.01474 -0.03906,0.02148 -0.145894,-0.165368 -0.285198,-0.325766 -0.445312,-0.490234 -0.128193,-0.131679 -0.259654,-0.256681 -0.412109,-0.363282 -0.06691,-0.04679 -0.182171,-0.05547 -0.265625,-0.09375 0.313176,-0.06531 0.622417,0.0069 0.919921,-0.199218 0.07962,-0.05516 0.06214,-0.150321 0.132813,-0.210938 z m -2.773438,0.08789 c 0.23481,0.175252 0.426995,0.403305 0.720704,0.480469 -0.120508,0.09436 -0.233809,0.193544 -0.339844,0.304687 -0.160201,0.167918 -0.300981,0.337133 -0.4472659,0.507813 -0.020549,-0.0088 -0.040485,-0.01835 -0.060547,-0.02734 0.041438,-0.211191 0.083479,-0.413541 0.1171877,-0.634766 0.02738,-0.179674 0.04637,-0.357705 0.03906,-0.542969 -0.001,-0.02657 -0.02717,-0.06016 -0.0293,-0.08789 z"
         id="path851" />
    </g>
    <path
       style="fill:none;stroke:none;stroke-width:1px;stroke-linecap:butt;stroke-linejoin:miter;stroke-opacity:1"
       d="m 14,6 c 0,0 1,0 1,1 V 6 Z"
       id="path3084" />
  </g>
</svg>
