<?xml version="1.0" encoding="UTF-8" standalone="no"?>
<svg
   width="16"
   height="16"
   viewBox="0 0 16 16"
   version="1.1"
   id="svg8"
   inkscape:version="1.1 (c68e22c387, 2021-05-23)"
   sodipodi:docname="notebook-config-symbolic.svg"
   xmlns:inkscape="http://www.inkscape.org/namespaces/inkscape"
   xmlns:sodipodi="http://sodipodi.sourceforge.net/DTD/sodipodi-0.dtd"
   xmlns="http://www.w3.org/2000/svg"
   xmlns:svg="http://www.w3.org/2000/svg"
   xmlns:rdf="http://www.w3.org/1999/02/22-rdf-syntax-ns#"
   xmlns:cc="http://creativecommons.org/ns#"
   xmlns:dc="http://purl.org/dc/elements/1.1/">
  <defs
     id="defs2" />
  <sodipodi:namedview
     id="base"
     pagecolor="#ffffff"
     bordercolor="#666666"
     borderopacity="1.0"
     inkscape:pageopacity="0.0"
     inkscape:pageshadow="2"
     inkscape:zoom="31.678384"
     inkscape:cx="9.1071565"
     inkscape:cy="8.4915948"
     inkscape:document-units="px"
     inkscape:current-layer="layer1"
     inkscape:document-rotation="0"
     showgrid="true"
     units="px"
     inkscape:window-width="2560"
     inkscape:window-height="1011"
     inkscape:window-x="0"
     inkscape:window-y="0"
     inkscape:window-maximized="1"
     inkscape:pagecheckerboard="0">
    <inkscape:grid
       type="xygrid"
       id="grid10" />
  </sodipodi:namedview>
  <metadata
     id="metadata5">
    <rdf:RDF>
      <cc:Work
         rdf:about="">
        <dc:format>image/svg+xml</dc:format>
        <dc:type
           rdf:resource="http://purl.org/dc/dcmitype/StillImage" />
        <dc:title />
      </cc:Work>
    </rdf:RDF>
  </metadata>
  <g
     inkscape:label="Layer 1"
     inkscape:groupmode="layer"
     id="layer1">
    <path
       id="rect12"
       style="color:#000000;font-style:normal;font-variant:normal;font-weight:normal;font-stretch:normal;font-size:medium;line-height:normal;font-family:sans-serif;font-variant-ligatures:normal;font-variant-position:normal;font-variant-caps:normal;font-variant-numeric:normal;font-variant-alternates:normal;font-variant-east-asian:normal;font-feature-settings:normal;font-variation-settings:normal;text-indent:0;text-align:start;text-decoration:none;text-decoration-line:none;text-decoration-style:solid;text-decoration-color:#000000;letter-spacing:normal;word-spacing:normal;text-transform:none;writing-mode:lr-tb;direction:ltr;text-orientation:mixed;dominant-baseline:auto;baseline-shift:baseline;text-anchor:start;white-space:normal;shape-padding:0;shape-margin:0;inline-size:0;clip-rule:nonzero;display:inline;overflow:visible;visibility:visible;opacity:1;isolation:auto;mix-blend-mode:normal;color-interpolation:sRGB;color-interpolation-filters:linearRGB;solid-color:#000000;solid-opacity:1;vector-effect:none;fill:#241f31;fill-opacity:1;fill-rule:nonzero;stroke:none;stroke-width:50;stroke-linecap:butt;stroke-linejoin:round;stroke-miterlimit:4;stroke-dasharray:none;stroke-dashoffset:0;stroke-opacity:1;color-rendering:auto;image-rendering:auto;shape-rendering:auto;text-rendering:auto;enable-background:accumulate;stop-color:#000000;stop-opacity:1"
       d="M 2.0996094 0 C 1.4902094 0 1 0.446 1 1 L 1 2 L 1 14 L 1 15 C 1 15.554 1.4902094 16 2.0996094 16 L 3 16 L 9.0214844 16 A 5 5 0 0 1 7.4238281 14 L 3 14 L 3 2 L 11 2 L 11 7.1132812 A 5 5 0 0 1 12 7 L 12 2 L 13 2 L 13 7.1015625 A 5 5 0 0 1 15 8.0019531 L 15 2 C 15 0.90929723 14.090703 -2.9605947e-16 13 0 L 10.900391 0 L 3 0 L 2.0996094 0 z " />
    <path
       id="rect879-6"
       style="fill:#241f31;fill-opacity:0.5;stroke:none;stroke-width:2;stroke-linejoin:round;stroke-miterlimit:4;stroke-dasharray:none"
       d="M 3 2 L 3 14 L 7.4238281 14 A 5 5 0 0 1 7 12 A 5 5 0 0 1 11 7.1132812 L 11 2 L 3 2 z " />
    <rect
       style="fill:#241f31;fill-opacity:1;stroke:none;stroke-width:2;stroke-linejoin:round;stroke-miterlimit:4;stroke-dasharray:none"
       id="rect927"
       width="5"
       height="1"
       x="4"
       y="4" />
    <rect
       style="fill:#241f31;fill-opacity:1;stroke:none;stroke-width:2;stroke-linejoin:round;stroke-miterlimit:4;stroke-dasharray:none"
       id="rect929"
       width="5"
       height="1"
       x="4"
       y="6" />
    <path
       d="m 11.082294,8.0026579 c -0.254918,0.051624 -0.492103,0.1438884 -0.727071,0.2405463 -0.01884,0.6853923 0.09643,1.5838713 -0.172901,1.8189258 -0.2660017,0.230661 -1.1515656,0.03735 -1.8354115,-0.03405 A 4.0199501,3.9838428 0 0 0 8,10.851869 c 0.5297866,0.434961 1.2635079,0.921545 1.2812413,1.269733 0.017734,0.352582 -0.693821,0.8842 -1.1770573,1.372982 0.114159,0.283383 0.277085,0.541503 0.4499861,0.789739 0.6738709,-0.139495 1.5139929,-0.410797 1.8010529,-0.206497 0.291494,0.208693 0.29371,1.104976 0.381269,1.784876 0.277085,0.08238 0.56747,0.11533 0.865614,0.137298 0.311443,-0.608505 0.628429,-1.449868 0.969798,-1.544329 0.350235,-0.09776 1.06844,0.50306 1.66251,0.857838 0.242726,-0.165856 0.457744,-0.370155 0.658354,-0.583242 C 14.61125,14.101991 14.093655,13.311153 14.234414,12.979441 14.376282,12.647729 15.315046,12.4632 15.96675,12.22485 15.97115,12.14357 16,12.066683 16,11.984304 16,11.774513 15.96232,11.568016 15.93128,11.365913 15.259626,11.190172 14.305345,11.102301 14.130227,10.783769 13.957326,10.466336 14.398445,9.617284 14.61568,8.9637448 A 4.0864505,4.0497459 0 0 0 13.888609,8.4486022 c -0.555279,0.4118944 -1.202549,1.0928932 -1.559435,1.0302853 -0.351344,-0.06151 -0.73483,-0.9006758 -1.10834,-1.4762296 -0.04433,0.00769 -0.09421,-0.00879 -0.138543,0 z m 0.692713,2.0594721 a 1.8708784,1.8540741 0 1 1 0,3.70705 1.8708784,1.8540741 0 0 1 0,-3.70705 z"
       style="color:#000000;fill:#241f31;stroke-width:1.10335;marker:none"
       overflow="visible"
       id="path202" />
  </g>
</svg>
