<?xml version="1.0" encoding="UTF-8" standalone="no"?>
<!-- Created with Inkscape (http://www.inkscape.org/) -->

<svg
   xmlns:dc="http://purl.org/dc/elements/1.1/"
   xmlns:cc="http://creativecommons.org/ns#"
   xmlns:rdf="http://www.w3.org/1999/02/22-rdf-syntax-ns#"
   xmlns:svg="http://www.w3.org/2000/svg"
   xmlns="http://www.w3.org/2000/svg"
   xmlns:xlink="http://www.w3.org/1999/xlink"
   xmlns:sodipodi="http://sodipodi.sourceforge.net/DTD/sodipodi-0.dtd"
   xmlns:inkscape="http://www.inkscape.org/namespaces/inkscape"
   width="48"
   height="48"
   id="svg5562"
   version="1.1"
   inkscape:version="0.91 r13725"
   viewBox="0 0 48 48"
   sodipodi:docname="com.github.lainsce.notejot.svg">
  <defs
     id="defs5564">
    <linearGradient
       id="linearGradient5334">
      <stop
         id="stop5336"
         style="stop-color:#c69d00;stop-opacity:1"
         offset="0" />
      <stop
         id="stop5338"
         style="stop-color:#a88700;stop-opacity:1"
         offset="1" />
    </linearGradient>
    <linearGradient
       inkscape:collect="always"
       xlink:href="#linearGradient5334"
       id="linearGradient4207"
       x1="373.57144"
       y1="98.149536"
       x2="375.00003"
       y2="655.29242"
       gradientUnits="userSpaceOnUse"
       gradientTransform="matrix(0.0748373,0,0,0.07560787,-4.0235546,11.589324)" />
    <radialGradient
       gradientTransform="matrix(2.003784,0,0,1.4,27.98813,-17.4)"
       gradientUnits="userSpaceOnUse"
       xlink:href="#linearGradient3688-166-749-4-0-3-8"
       id="radialGradient3337-2-2"
       fy="43.5"
       fx="4.9929786"
       r="2.5"
       cy="43.5"
       cx="4.9929786" />
    <linearGradient
       id="linearGradient3688-166-749-4-0-3-8">
      <stop
         offset="0"
         style="stop-color:#181818;stop-opacity:1"
         id="stop2883-4-0-1-8" />
      <stop
         offset="1"
         style="stop-color:#181818;stop-opacity:0"
         id="stop2885-9-2-9-6" />
    </linearGradient>
    <radialGradient
       gradientTransform="matrix(2.003784,0,0,1.4,-20.01187,-104.4)"
       gradientUnits="userSpaceOnUse"
       xlink:href="#linearGradient3688-166-749-4-0-3-8"
       id="radialGradient3339-1-4"
       fy="43.5"
       fx="4.9929786"
       r="2.5"
       cy="43.5"
       cx="4.9929786" />
    <linearGradient
       gradientUnits="userSpaceOnUse"
       xlink:href="#linearGradient3702-501-757-8-4-1-1"
       id="linearGradient13984"
       y2="39.999443"
       x2="25.058096"
       y1="47.027729"
       x1="25.058096" />
    <linearGradient
       id="linearGradient3702-501-757-8-4-1-1">
      <stop
         offset="0"
         style="stop-color:#181818;stop-opacity:0"
         id="stop2895-8-9-9-1" />
      <stop
         offset="0.5"
         style="stop-color:#181818;stop-opacity:1"
         id="stop2897-7-8-7-7" />
      <stop
         offset="1"
         style="stop-color:#181818;stop-opacity:0"
         id="stop2899-4-5-1-5" />
    </linearGradient>
    <linearGradient
       y2="43"
       x2="23.99999"
       y1="4.999989"
       x1="23.99999"
       gradientTransform="matrix(1.0464168,0,0,1.1101361,-1.1422909,13.400594)"
       gradientUnits="userSpaceOnUse"
       id="linearGradient3647"
       xlink:href="#linearGradient3924-2-2-5-8" />
    <linearGradient
       id="linearGradient3924-2-2-5-8">
      <stop
         offset="0"
         style="stop-color:#fff194;stop-opacity:1"
         id="stop3926-9-4-9-6" />
      <stop
         offset="0.06316455"
         style="stop-color:#ffffff;stop-opacity:0.23529412"
         id="stop3928-9-8-6-5" />
      <stop
         offset="0.95056331"
         style="stop-color:#ffffff;stop-opacity:0.15686275"
         id="stop3930-3-5-1-7" />
      <stop
         offset="1"
         style="stop-color:#ffffff;stop-opacity:0.39215687"
         id="stop3932-8-0-4-8" />
    </linearGradient>
  </defs>
  <sodipodi:namedview
     id="base"
     pagecolor="#ffffff"
     bordercolor="#666666"
     borderopacity="1.0"
     inkscape:pageopacity="0.0"
     inkscape:pageshadow="2"
     inkscape:zoom="11"
     inkscape:cx="27.766647"
     inkscape:cy="23.647718"
     inkscape:current-layer="layer1"
     showgrid="true"
     inkscape:document-units="px"
     inkscape:grid-bbox="true"
     inkscape:window-width="1920"
     inkscape:window-height="962"
     inkscape:window-x="0"
     inkscape:window-y="30"
     inkscape:window-maximized="1" />
  <metadata
     id="metadata5567">
    <rdf:RDF>
      <cc:Work
         rdf:about="">
        <dc:format>image/svg+xml</dc:format>
        <dc:type
           rdf:resource="http://purl.org/dc/dcmitype/StillImage" />
        <dc:title />
      </cc:Work>
    </rdf:RDF>
  </metadata>
  <g
     id="layer1"
     inkscape:label="Layer 1"
     inkscape:groupmode="layer"
     transform="translate(0,-16)">
    <rect
       style="opacity:1;fill:#ffdd55;fill-opacity:1;stroke:none;stroke-width:0.52761984;stroke-miterlimit:4;stroke-dasharray:none;stroke-opacity:1"
       id="rect3387-2"
       width="39.705395"
       height="42.070168"
       x="4.1472998"
       y="19.055824"
       ry="2.1699526" />
    <g
       transform="matrix(1.1312799,0,0,0.40274328,-3.2473474,43.756386)"
       id="g3712-8-2-4-4"
       style="opacity:0.4">
      <rect
         width="5"
         height="7"
         x="38"
         y="40"
         id="rect2801-5-5-7-9"
         style="fill:url(#radialGradient3337-2-2);fill-opacity:1;stroke:none" />
      <rect
         width="5"
         height="7"
         x="-10"
         y="-47"
         transform="scale(-1,-1)"
         id="rect3696-3-0-3-7"
         style="fill:url(#radialGradient3339-1-4);fill-opacity:1;stroke:none" />
      <rect
         width="28"
         height="7.0000005"
         x="10"
         y="40"
         id="rect3700-5-6-8-4"
         style="fill:url(#linearGradient13984);fill-opacity:1;stroke:none" />
    </g>
    <rect
       style="opacity:0.4;fill:none;fill-opacity:1;stroke:url(#linearGradient4207);stroke-width:0.52761984;stroke-miterlimit:4;stroke-dasharray:none;stroke-opacity:1"
       id="rect3387"
       width="39.887215"
       height="42.433804"
       x="3.9899099"
       y="18.963503"
       ry="2.1887088" />
    <g
       transform="matrix(1.0592422,-0.13401196,0.13768764,0.92665135,0,0)"
       style="font-style:normal;font-weight:normal;font-size:9.64934826px;line-height:125%;font-family:sans-serif;letter-spacing:0px;word-spacing:0px;opacity:1;fill:#00286b;fill-opacity:1;fill-rule:nonzero;stroke:none;stroke-width:1px;stroke-linecap:butt;stroke-linejoin:miter;stroke-opacity:1"
       id="text3353">
      <path
         d="m 9.9888422,40.234489 q -0.1801212,0 -0.3988398,-0.06433 -0.321645,-0.0772 -0.5532294,-0.283048 -0.2315844,-0.218718 -0.3473766,-0.514632 -0.2058528,-0.4889 0.012866,-1.106459 0.077195,-0.218718 0.2315844,-0.514632 0.025732,-0.05146 0.051463,-0.102926 0.038597,-0.06433 0.077195,-0.128658 -0.2959134,0.15439 -0.578961,0.334511 -0.2830476,0.167255 -0.578961,0.321645 -0.5274978,0.321645 -1.0163982,0.591827 -0.4760346,0.257316 -0.8877402,0.437437 -0.2444502,0.115792 -0.5017662,0.115792 -0.2444502,0 -0.4760346,-0.09006 -0.2315844,-0.09006 -0.4117056,-0.257316 -0.192987,-0.180121 -0.2959134,-0.424571 -0.1157922,-0.24445 -0.1157922,-0.4889 0,-0.257316 0.090061,-0.488901 0.090061,-0.231584 0.2701818,-0.411705 0.1672554,-0.192987 0.4117056,-0.295914 0.2959134,-0.141524 0.7204848,-0.373108 0.4374372,-0.24445 0.9263376,-0.527498 0.5660952,-0.334511 1.1836536,-0.681887 0.6304242,-0.360243 1.2351168,-0.617559 0.6818874,-0.33451 1.273714,-0.450302 0.411706,-0.102927 0.759082,-0.115793 0.360243,-0.01286 0.694754,0.0772 0.707619,0.205853 0.964935,0.874874 0.192987,0.488901 0.05146,0.95207 -0.128658,0.463168 -0.347377,0.874874 0.0386,-0.01287 0.07719,-0.01287 0.05146,-0.01287 0.09006,-0.0386 0.24445,-0.09006 0.4889,-0.06433 0.257316,0.01287 0.476035,0.115792 0.231584,0.102926 0.398839,0.295913 0.180122,0.180122 0.270182,0.424572 0.09006,0.257316 0.07719,0.514632 -0.01287,0.24445 -0.115792,0.476034 -0.102927,0.218719 -0.295914,0.39884 -0.180121,0.167256 -0.437437,0.257316 -0.604692,0.218719 -1.106459,0.39884 -0.501766,0.167255 -0.88774,0.295913 -0.540363,0.15439 -0.874874,0.231585 -0.334511,0.06433 -0.6046928,0.06433 z"
         style="font-style:normal;font-variant:normal;font-weight:bold;font-stretch:normal;font-size:12.8657999px;font-family:'Redacted Script';-inkscape-font-specification:'Redacted Script Bold';fill:#00286b;fill-opacity:1;fill-rule:nonzero;stroke:none;stroke-opacity:1"
         id="path3840" />
      <path
         d="m 17.577654,40.234489 q -0.180121,0 -0.39884,-0.06433 -0.321645,-0.0772 -0.553229,-0.283048 -0.231585,-0.218718 -0.347377,-0.514632 -0.205853,-0.4889 0.01287,-1.106459 0.0772,-0.218718 0.231584,-0.514632 0.02573,-0.05146 0.05146,-0.102926 0.0386,-0.06433 0.07719,-0.128658 -0.295913,0.15439 -0.578961,0.334511 -0.283047,0.167255 -0.578961,0.321645 -0.527497,0.321645 -1.016398,0.591827 -0.476034,0.257316 -0.88774,0.437437 -0.24445,0.115792 -0.501766,0.115792 -0.24445,0 -0.476035,-0.09006 -0.231584,-0.09006 -0.411705,-0.257316 -0.192987,-0.180121 -0.295914,-0.424571 -0.115792,-0.24445 -0.115792,-0.4889 0,-0.257316 0.09006,-0.488901 0.09006,-0.231584 0.270181,-0.411705 0.167256,-0.192987 0.411706,-0.295914 0.295913,-0.141524 0.720485,-0.373108 0.437437,-0.24445 0.926337,-0.527498 0.566096,-0.334511 1.183654,-0.681887 0.630424,-0.360243 1.235117,-0.617559 0.681887,-0.33451 1.273714,-0.450302 0.411706,-0.102927 0.759082,-0.115793 0.360243,-0.01286 0.694753,0.0772 0.707619,0.205853 0.964935,0.874874 0.192987,0.488901 0.05146,0.95207 -0.128658,0.463168 -0.347377,0.874874 0.0386,-0.01287 0.07719,-0.01287 0.05146,-0.01287 0.09006,-0.0386 0.244451,-0.09006 0.488901,-0.06433 0.257316,0.01287 0.476034,0.115792 0.231585,0.102926 0.39884,0.295913 0.180121,0.180122 0.270182,0.424572 0.09006,0.257316 0.07719,0.514632 -0.01287,0.24445 -0.115792,0.476034 -0.102927,0.218719 -0.295914,0.39884 -0.180121,0.167256 -0.437437,0.257316 -0.604693,0.218719 -1.106459,0.39884 -0.501766,0.167255 -0.88774,0.295913 -0.540364,0.15439 -0.874874,0.231585 -0.334511,0.06433 -0.604693,0.06433 z"
         style="font-style:normal;font-variant:normal;font-weight:bold;font-stretch:normal;font-size:12.8657999px;font-family:'Redacted Script';-inkscape-font-specification:'Redacted Script Bold';fill:#00286b;fill-opacity:1;fill-rule:nonzero;stroke:none;stroke-opacity:1"
         id="path3842" />
      <path
         d="m 25.166466,40.234489 q -0.180121,0 -0.39884,-0.06433 -0.321645,-0.0772 -0.553229,-0.283048 -0.231585,-0.218718 -0.347377,-0.514632 -0.205853,-0.4889 0.01287,-1.106459 0.07719,-0.218718 0.231584,-0.514632 0.02573,-0.05146 0.05146,-0.102926 0.0386,-0.06433 0.07719,-0.128658 -0.295913,0.15439 -0.578961,0.334511 -0.283047,0.167255 -0.578961,0.321645 -0.527497,0.321645 -1.016398,0.591827 -0.476034,0.257316 -0.88774,0.437437 -0.24445,0.115792 -0.501766,0.115792 -0.24445,0 -0.476035,-0.09006 -0.231584,-0.09006 -0.411705,-0.257316 -0.192987,-0.180121 -0.295914,-0.424571 -0.115792,-0.24445 -0.115792,-0.4889 0,-0.257316 0.09006,-0.488901 0.09006,-0.231584 0.270181,-0.411705 0.167256,-0.192987 0.411706,-0.295914 0.295913,-0.141524 0.720485,-0.373108 0.437437,-0.24445 0.926337,-0.527498 0.566096,-0.334511 1.183654,-0.681887 0.630424,-0.360243 1.235117,-0.617559 0.681887,-0.33451 1.273714,-0.450302 0.411705,-0.102927 0.759082,-0.115793 0.360242,-0.01286 0.694753,0.0772 0.707619,0.205853 0.964935,0.874874 0.192987,0.488901 0.05146,0.95207 -0.128658,0.463168 -0.347376,0.874874 0.0386,-0.01287 0.07719,-0.01287 0.05146,-0.01287 0.09006,-0.0386 0.24445,-0.09006 0.488901,-0.06433 0.257316,0.01287 0.476034,0.115792 0.231585,0.102926 0.39884,0.295913 0.180121,0.180122 0.270182,0.424572 0.09006,0.257316 0.07719,0.514632 -0.01287,0.24445 -0.115793,0.476034 -0.102926,0.218719 -0.295913,0.39884 -0.180121,0.167256 -0.437437,0.257316 -0.604693,0.218719 -1.106459,0.39884 -0.501766,0.167255 -0.88774,0.295913 -0.540364,0.15439 -0.874875,0.231585 -0.33451,0.06433 -0.604692,0.06433 z"
         style="font-style:normal;font-variant:normal;font-weight:bold;font-stretch:normal;font-size:12.8657999px;font-family:'Redacted Script';-inkscape-font-specification:'Redacted Script Bold';fill:#00286b;fill-opacity:1;fill-rule:nonzero;stroke:none;stroke-opacity:1"
         id="path3844" />
      <path
         d="m 9.9888422,56.316739 q -0.1801212,0 -0.3988398,-0.06433 -0.321645,-0.07719 -0.5532294,-0.283048 -0.2315844,-0.218718 -0.3473766,-0.514632 -0.2058528,-0.4889 0.012866,-1.106459 0.077195,-0.218718 0.2315844,-0.514632 0.025732,-0.05146 0.051463,-0.102926 0.038597,-0.06433 0.077195,-0.128658 -0.2959134,0.15439 -0.578961,0.334511 -0.2830476,0.167255 -0.578961,0.321645 -0.5274978,0.321645 -1.0163982,0.591827 -0.4760346,0.257316 -0.8877402,0.437437 -0.2444502,0.115792 -0.5017662,0.115792 -0.2444502,0 -0.4760346,-0.09006 -0.2315844,-0.09006 -0.4117056,-0.257316 -0.192987,-0.180121 -0.2959134,-0.424571 -0.1157922,-0.24445 -0.1157922,-0.4889 0,-0.257316 0.090061,-0.488901 0.090061,-0.231584 0.2701818,-0.411705 0.1672554,-0.192987 0.4117056,-0.295914 0.2959134,-0.141524 0.7204848,-0.373108 0.4374372,-0.24445 0.9263376,-0.527498 0.5660952,-0.334511 1.1836536,-0.681887 0.6304242,-0.360243 1.2351168,-0.617559 0.6818874,-0.33451 1.273714,-0.450303 0.411706,-0.102926 0.759082,-0.115792 0.360243,-0.01287 0.694754,0.07719 0.707619,0.205853 0.964935,0.874874 0.192987,0.488901 0.05146,0.95207 -0.128658,0.463168 -0.347377,0.874874 0.0386,-0.01287 0.07719,-0.01287 0.05146,-0.01287 0.09006,-0.0386 0.24445,-0.09006 0.4889,-0.06433 0.257316,0.01287 0.476035,0.115792 0.231584,0.102926 0.398839,0.295913 0.180122,0.180122 0.270182,0.424572 0.09006,0.257316 0.07719,0.514632 -0.01287,0.24445 -0.115792,0.476034 -0.102927,0.218719 -0.295914,0.39884 -0.180121,0.167256 -0.437437,0.257316 -0.604692,0.218719 -1.106459,0.39884 -0.501766,0.167255 -0.88774,0.295913 -0.540363,0.15439 -0.874874,0.231585 -0.334511,0.06433 -0.6046928,0.06433 z"
         style="font-style:normal;font-variant:normal;font-weight:bold;font-stretch:normal;font-size:12.8657999px;font-family:'Redacted Script';-inkscape-font-specification:'Redacted Script Bold';fill:#00286b;fill-opacity:1;fill-rule:nonzero;stroke:none;stroke-opacity:1"
         id="path3846" />
      <path
         d="m 17.577654,56.316739 q -0.180121,0 -0.39884,-0.06433 -0.321645,-0.07719 -0.553229,-0.283048 -0.231585,-0.218718 -0.347377,-0.514632 -0.205853,-0.4889 0.01287,-1.106459 0.0772,-0.218718 0.231584,-0.514632 0.02573,-0.05146 0.05146,-0.102926 0.0386,-0.06433 0.07719,-0.128658 -0.295913,0.15439 -0.578961,0.334511 -0.283047,0.167255 -0.578961,0.321645 -0.527497,0.321645 -1.016398,0.591827 -0.476034,0.257316 -0.88774,0.437437 -0.24445,0.115792 -0.501766,0.115792 -0.24445,0 -0.476035,-0.09006 -0.231584,-0.09006 -0.411705,-0.257316 -0.192987,-0.180121 -0.295914,-0.424571 -0.115792,-0.24445 -0.115792,-0.4889 0,-0.257316 0.09006,-0.488901 0.09006,-0.231584 0.270181,-0.411705 0.167256,-0.192987 0.411706,-0.295914 0.295913,-0.141524 0.720485,-0.373108 0.437437,-0.24445 0.926337,-0.527498 0.566096,-0.334511 1.183654,-0.681887 0.630424,-0.360243 1.235117,-0.617559 0.681887,-0.33451 1.273714,-0.450303 0.411706,-0.102926 0.759082,-0.115792 0.360243,-0.01287 0.694753,0.07719 0.707619,0.205853 0.964935,0.874874 0.192987,0.488901 0.05146,0.95207 -0.128658,0.463168 -0.347377,0.874874 0.0386,-0.01287 0.07719,-0.01287 0.05146,-0.01287 0.09006,-0.0386 0.244451,-0.09006 0.488901,-0.06433 0.257316,0.01287 0.476034,0.115792 0.231585,0.102926 0.39884,0.295913 0.180121,0.180122 0.270182,0.424572 0.09006,0.257316 0.07719,0.514632 -0.01287,0.24445 -0.115792,0.476034 -0.102927,0.218719 -0.295914,0.39884 -0.180121,0.167256 -0.437437,0.257316 -0.604693,0.218719 -1.106459,0.39884 -0.501766,0.167255 -0.88774,0.295913 -0.540364,0.15439 -0.874874,0.231585 -0.334511,0.06433 -0.604693,0.06433 z"
         style="font-style:normal;font-variant:normal;font-weight:bold;font-stretch:normal;font-size:12.8657999px;font-family:'Redacted Script';-inkscape-font-specification:'Redacted Script Bold';fill:#00286b;fill-opacity:1;fill-rule:nonzero;stroke:none;stroke-opacity:1"
         id="path3848" />
      <path
         d="m 25.166466,56.316739 q -0.180121,0 -0.39884,-0.06433 -0.321645,-0.07719 -0.553229,-0.283048 -0.231585,-0.218718 -0.347377,-0.514632 -0.205853,-0.4889 0.01287,-1.106459 0.07719,-0.218718 0.231584,-0.514632 0.02573,-0.05146 0.05146,-0.102926 0.0386,-0.06433 0.07719,-0.128658 -0.295913,0.15439 -0.578961,0.334511 -0.283047,0.167255 -0.578961,0.321645 -0.527497,0.321645 -1.016398,0.591827 -0.476034,0.257316 -0.88774,0.437437 -0.24445,0.115792 -0.501766,0.115792 -0.24445,0 -0.476035,-0.09006 -0.231584,-0.09006 -0.411705,-0.257316 -0.192987,-0.180121 -0.295914,-0.424571 -0.115792,-0.24445 -0.115792,-0.4889 0,-0.257316 0.09006,-0.488901 0.09006,-0.231584 0.270181,-0.411705 0.167256,-0.192987 0.411706,-0.295914 0.295913,-0.141524 0.720485,-0.373108 0.437437,-0.24445 0.926337,-0.527498 0.566096,-0.334511 1.183654,-0.681887 0.630424,-0.360243 1.235117,-0.617559 0.681887,-0.33451 1.273714,-0.450303 0.411705,-0.102926 0.759082,-0.115792 0.360242,-0.01287 0.694753,0.07719 0.707619,0.205853 0.964935,0.874874 0.192987,0.488901 0.05146,0.95207 -0.128658,0.463168 -0.347376,0.874874 0.0386,-0.01287 0.07719,-0.01287 0.05146,-0.01287 0.09006,-0.0386 0.24445,-0.09006 0.488901,-0.06433 0.257316,0.01287 0.476034,0.115792 0.231585,0.102926 0.39884,0.295913 0.180121,0.180122 0.270182,0.424572 0.09006,0.257316 0.07719,0.514632 -0.01287,0.24445 -0.115793,0.476034 -0.102926,0.218719 -0.295913,0.39884 -0.180121,0.167256 -0.437437,0.257316 -0.604693,0.218719 -1.106459,0.39884 -0.501766,0.167255 -0.88774,0.295913 -0.540364,0.15439 -0.874875,0.231585 -0.33451,0.06433 -0.604692,0.06433 z"
         style="font-style:normal;font-variant:normal;font-weight:bold;font-stretch:normal;font-size:12.8657999px;font-family:'Redacted Script';-inkscape-font-specification:'Redacted Script Bold';fill:#00286b;fill-opacity:1;fill-rule:nonzero;stroke:none;stroke-opacity:1"
         id="path3850" />
    </g>
    <rect
       width="38.717426"
       height="41.075031"
       rx="1.4610348"
       ry="1.5458456"
       x="4.6130009"
       y="19.506344"
       id="rect6741-5-0-2-3"
       style="fill:none;stroke:url(#linearGradient3647);stroke-width:0.75142109;stroke-linecap:round;stroke-linejoin:round;stroke-miterlimit:4;stroke-dasharray:none;stroke-dashoffset:0;stroke-opacity:1" />
  </g>
</svg>
