<?xml version="1.0" encoding="UTF-8" standalone="no"?>
<svg
   width="16"
   height="16"
   viewBox="0 0 16 16"
   version="1.1"
   id="svg8"
   inkscape:version="1.1.2 (0a00cf5339, 2022-02-04)"
   sodipodi:docname="notebook-config-symbolic.svg"
   xmlns:inkscape="http://www.inkscape.org/namespaces/inkscape"
   xmlns:sodipodi="http://sodipodi.sourceforge.net/DTD/sodipodi-0.dtd"
   xmlns="http://www.w3.org/2000/svg"
   xmlns:svg="http://www.w3.org/2000/svg"
   xmlns:rdf="http://www.w3.org/1999/02/22-rdf-syntax-ns#"
   xmlns:cc="http://creativecommons.org/ns#"
   xmlns:dc="http://purl.org/dc/elements/1.1/">
  <defs
     id="defs2" />
  <sodipodi:namedview
     id="base"
     pagecolor="#ffffff"
     bordercolor="#666666"
     borderopacity="1.0"
     inkscape:pageopacity="0.0"
     inkscape:pageshadow="2"
     inkscape:zoom="64"
     inkscape:cx="9.8046875"
     inkscape:cy="10.21875"
     inkscape:document-units="px"
     inkscape:current-layer="layer1"
     inkscape:document-rotation="0"
     showgrid="true"
     units="px"
     inkscape:window-width="2560"
     inkscape:window-height="1011"
     inkscape:window-x="0"
     inkscape:window-y="0"
     inkscape:window-maximized="1"
     inkscape:pagecheckerboard="0"
     showguides="true">
    <inkscape:grid
       type="xygrid"
       id="grid10" />
  </sodipodi:namedview>
  <metadata
     id="metadata5">
    <rdf:RDF>
      <cc:Work
         rdf:about="">
        <dc:format>image/svg+xml</dc:format>
        <dc:type
           rdf:resource="http://purl.org/dc/dcmitype/StillImage" />
      </cc:Work>
    </rdf:RDF>
  </metadata>
  <g
     inkscape:label="Layer 1"
     inkscape:groupmode="layer"
     id="layer1">
    <path
       id="rect12"
       style="color:#000000;font-style:normal;font-variant:normal;font-weight:normal;font-stretch:normal;font-size:medium;line-height:normal;font-family:sans-serif;font-variant-ligatures:normal;font-variant-position:normal;font-variant-caps:normal;font-variant-numeric:normal;font-variant-alternates:normal;font-variant-east-asian:normal;font-feature-settings:normal;font-variation-settings:normal;text-indent:0;text-align:start;text-decoration:none;text-decoration-line:none;text-decoration-style:solid;text-decoration-color:#000000;letter-spacing:normal;word-spacing:normal;text-transform:none;writing-mode:lr-tb;direction:ltr;text-orientation:mixed;dominant-baseline:auto;baseline-shift:baseline;text-anchor:start;white-space:normal;shape-padding:0;shape-margin:0;inline-size:0;clip-rule:nonzero;display:inline;overflow:visible;visibility:visible;opacity:1;isolation:auto;mix-blend-mode:normal;color-interpolation:sRGB;color-interpolation-filters:linearRGB;solid-color:#000000;solid-opacity:1;vector-effect:none;fill:#241f31;fill-opacity:1;fill-rule:nonzero;stroke:none;stroke-width:50;stroke-linecap:butt;stroke-linejoin:round;stroke-miterlimit:4;stroke-dasharray:none;stroke-dashoffset:0;stroke-opacity:1;color-rendering:auto;image-rendering:auto;shape-rendering:auto;text-rendering:auto;enable-background:accumulate;stop-color:#000000;stop-opacity:1"
       d="M 2.0996094 0 C 1.4902094 0 1 0.446 1 1 L 1 2 L 1 14 L 1 15 C 1 15.554 1.4902094 16 2.0996094 16 L 3 16 L 6 16 L 6 14.023438 L 6 14 L 3 14 L 3 2 L 11 2 L 11 6 L 12 6 L 12 2 L 13 2 L 13 6 L 15 6 L 15 2 C 15 0.90929723 14.090703 0 13 0 L 10.900391 0 L 3 0 L 2.0996094 0 z M 9 15.980469 L 9 16 L 9.0214844 16 C 9.0141097 15.993734 9.007338 15.986777 9 15.980469 z M 7.9726562 15.998047 L 7.9726562 16 L 8 16 C 7.9903421 16 7.9822211 15.99814 7.9726562 15.998047 z " />
    <path
       id="rect879-6"
       style="fill:#241f31;fill-opacity:0.5;stroke:none;stroke-width:2;stroke-linejoin:round;stroke-miterlimit:4;stroke-dasharray:none"
       d="M 3 2 L 3 14 L 6 14 L 6 10 C 6 6.25 9.515625 6.0146484 9.9550781 6 L 11 6 L 11 2 L 3 2 z " />
    <rect
       style="fill:#241f31;fill-opacity:1;stroke:none;stroke-width:2;stroke-linejoin:round;stroke-miterlimit:4;stroke-dasharray:none"
       id="rect927"
       width="5"
       height="1"
       x="4"
       y="3" />
    <rect
       style="fill:#241f31;fill-opacity:1;stroke:none;stroke-width:2;stroke-linejoin:round;stroke-miterlimit:4;stroke-dasharray:none"
       id="rect929"
       width="5"
       height="1"
       x="4"
       y="5" />
    <path
       style="fill:none;stroke:none;stroke-width:1px;stroke-linecap:butt;stroke-linejoin:miter;stroke-opacity:1"
       d="m 14,6 c 0,0 1,0 1,1 V 6 Z"
       id="path3084" />
    <path
       d="m 13,7 v 3 c 0,1 0,1 -1,1 H 10 C 9,11 9,11 9,10 V 7 c -3,0 -3,6 0,6 0.03201,0.01366 0,3 0,3 h 4 v -3 c 3,0 3,-6 0,-6 z"
       style="line-height:normal;-inkscape-font-specification:Sans;text-indent:0;text-align:start;text-decoration-line:none;text-transform:none;fill:#241f31;stroke-width:1.19134;marker:none"
       color="#000000"
       font-weight="400"
       font-family="Sans"
       overflow="visible"
       id="path1177"
       sodipodi:nodetypes="ccccccccccc" />
  </g>
</svg>
