<?xml version="1.0" encoding="UTF-8" standalone="no"?>
<svg
   height="16px"
   viewBox="0 0 16 16"
   width="16px"
   version="1.1"
   id="svg4"
   sodipodi:docname="text-x-generic-filled-symbolic.svg"
   inkscape:version="1.3 (0e150ed6c4, 2023-07-21)"
   xmlns:inkscape="http://www.inkscape.org/namespaces/inkscape"
   xmlns:sodipodi="http://sodipodi.sourceforge.net/DTD/sodipodi-0.dtd"
   xmlns="http://www.w3.org/2000/svg"
   xmlns:svg="http://www.w3.org/2000/svg">
  <sodipodi:namedview
     id="namedview1"
     pagecolor="#ffffff"
     bordercolor="#000000"
     borderopacity="0.25"
     inkscape:showpageshadow="2"
     inkscape:pageopacity="0.0"
     inkscape:pagecheckerboard="0"
     inkscape:deskcolor="#d1d1d1"
     showgrid="true"
     inkscape:zoom="32"
     inkscape:cx="7"
     inkscape:cy="7.578125"
     inkscape:window-width="2560"
     inkscape:window-height="919"
     inkscape:window-x="0"
     inkscape:window-y="0"
     inkscape:window-maximized="1"
     inkscape:current-layer="svg4">
    <inkscape:grid
       id="grid10"
       units="px"
       originx="0"
       originy="0"
       spacingx="1"
       spacingy="1"
       empcolor="#0099e5"
       empopacity="0.30196078"
       color="#0099e5"
       opacity="0.14901961"
       empspacing="5"
       dotted="false"
       gridanglex="30"
       gridanglez="30"
       visible="true" />
  </sodipodi:namedview>
  <defs
     id="defs8" />
  <path
     id="path2"
     style="color:#000000;fill:#241f31;-inkscape-stroke:none;fill-opacity:1"
     d="M 5.25 0 C 3.4428042 0 2 1.6036319 2 3.5 L 2 12.5 C 2 14.396368 3.4428042 16 5.25 16 L 10.75 16 C 12.557195 16 14 14.396368 14 12.5 L 14 5 C 14 4.61183 13.859671 4.2387783 13.599609 3.9550781 L 10.392578 0.45507812 C 10.13167 0.17045407 9.7628721 7.4014794e-17 9.375 0 L 5.25 0 z M 5.5 6 L 10.5 6 C 10.777 6 11 6.2230003 11 6.5 C 11 6.7769997 10.777 7 10.5 7 L 5.5 7 C 5.2230003 7 5 6.7769997 5 6.5 C 5 6.2230003 5.2230003 6 5.5 6 z M 5.5 8 L 10.5 8 C 10.777 8 11 8.2230006 11 8.5 C 11 8.7769994 10.777 9 10.5 9 L 5.5 9 C 5.2230006 9 5 8.7769994 5 8.5 C 5 8.2230006 5.2230006 8 5.5 8 z M 5.5 10 L 7.5 10 C 7.7769991 10 8 10.223 8 10.5 C 8 10.777 7.7769991 11 7.5 11 L 5.5 11 C 5.2230009 11 5 10.777 5 10.5 C 5 10.223 5.2230009 10 5.5 10 z " />
</svg>
