<?xml version="1.0" encoding="UTF-8" standalone="no"?>
<svg
   height="16px"
   viewBox="0 0 16 16"
   width="16px"
   version="1.1"
   id="svg4"
   sodipodi:docname="user-trash-filled-symbolic.svg"
   inkscape:version="1.3 (0e150ed6c4, 2023-07-21)"
   xmlns:inkscape="http://www.inkscape.org/namespaces/inkscape"
   xmlns:sodipodi="http://sodipodi.sourceforge.net/DTD/sodipodi-0.dtd"
   xmlns="http://www.w3.org/2000/svg"
   xmlns:svg="http://www.w3.org/2000/svg">
  <sodipodi:namedview
     id="namedview1"
     pagecolor="#ffffff"
     bordercolor="#000000"
     borderopacity="0.25"
     inkscape:showpageshadow="2"
     inkscape:pageopacity="0.0"
     inkscape:pagecheckerboard="0"
     inkscape:deskcolor="#d1d1d1"
     showgrid="true"
     inkscape:zoom="44.6875"
     inkscape:cx="8"
     inkscape:cy="8"
     inkscape:window-width="2560"
     inkscape:window-height="919"
     inkscape:window-x="0"
     inkscape:window-y="0"
     inkscape:window-maximized="1"
     inkscape:current-layer="svg4">
    <inkscape:grid
       id="grid1"
       units="px"
       originx="0"
       originy="0"
       spacingx="1"
       spacingy="1"
       empcolor="#0099e5"
       empopacity="0.30196078"
       color="#0099e5"
       opacity="0.14901961"
       empspacing="5"
       dotted="false"
       gridanglex="30"
       gridanglez="30"
       visible="true" />
  </sodipodi:namedview>
  <defs
     id="defs8" />
  <path
     id="path857"
     style="color:#000000;fill:#241f31;stroke-width:1;stroke-linecap:round;stroke-linejoin:round;-inkscape-stroke:none"
     d="M 2.4609375 1 A 0.46153846 0.5 0 0 0 2.0527344 1.2890625 C 2.0200368 1.3532487 2 1.424485 2 1.5 L 2 12.5 C 2 12.5 1.9923043 13.103404 2.3300781 13.722656 C 2.6678526 14.341913 3.4538432 15 4.7265625 15 L 11.273438 15 C 11.273438 15 11.931875 15.006896 12.607422 14.697266 C 13.282971 14.387637 14 13.666661 14 12.5 L 14 1.5 A 0.46153846 0.5 0 0 0 13.988281 1.3984375 A 0.46153846 0.5 0 0 0 13.539062 1 L 13.455078 1 L 2.5449219 1 L 2.4609375 1 z M 5.5 4 A 0.5 0.5 0 0 1 6 4.5 L 6 11.5 A 0.5 0.5 0 0 1 5.5 12 A 0.5 0.5 0 0 1 5 11.5 L 5 4.5 A 0.5 0.5 0 0 1 5.5 4 z M 8.5 4 A 0.5 0.5 0 0 1 9 4.5 L 9 11.5 A 0.5 0.5 0 0 1 8.5 12 A 0.5 0.5 0 0 1 8 11.5 L 8 4.5 A 0.5 0.5 0 0 1 8.5 4 z M 11.5 4 A 0.5 0.5 0 0 1 12 4.5 L 12 11.5 A 0.5 0.5 0 0 1 11.5 12 A 0.5 0.5 0 0 1 11 11.5 L 11 4.5 A 0.5 0.5 0 0 1 11.5 4 z " />
</svg>
