<?xml version="1.0" encoding="UTF-8" standalone="no"?>
<!-- Created with Inkscape (http://www.inkscape.org/) -->

<svg
   xmlns:dc="http://purl.org/dc/elements/1.1/"
   xmlns:cc="http://creativecommons.org/ns#"
   xmlns:rdf="http://www.w3.org/1999/02/22-rdf-syntax-ns#"
   xmlns:svg="http://www.w3.org/2000/svg"
   xmlns="http://www.w3.org/2000/svg"
   xmlns:xlink="http://www.w3.org/1999/xlink"
   xmlns:sodipodi="http://sodipodi.sourceforge.net/DTD/sodipodi-0.dtd"
   xmlns:inkscape="http://www.inkscape.org/namespaces/inkscape"
   width="128"
   height="128"
   id="svg5562"
   version="1.1"
   inkscape:version="0.91 r13725"
   viewBox="0 0 128 128"
   sodipodi:docname="com.github.lainsce.notejot.svg">
  <defs
     id="defs5564">
    <linearGradient
       id="linearGradient5334">
      <stop
         id="stop5336"
         style="stop-color:#c69d00;stop-opacity:1"
         offset="0" />
      <stop
         id="stop5338"
         style="stop-color:#a88700;stop-opacity:1"
         offset="1" />
    </linearGradient>
    <linearGradient
       inkscape:collect="always"
       xlink:href="#linearGradient5334"
       id="linearGradient4207"
       x1="373.57144"
       y1="98.149536"
       x2="375.00003"
       y2="655.29242"
       gradientUnits="userSpaceOnUse"
       gradientTransform="matrix(0.20547077,0,0,0.20575909,-12.180786,-77.738176)" />
    <radialGradient
       gradientTransform="matrix(2.003784,0,0,1.4,27.98813,-17.4)"
       gradientUnits="userSpaceOnUse"
       xlink:href="#linearGradient3688-166-749-4-0-3-8"
       id="radialGradient3337-2-2"
       fy="43.5"
       fx="4.9929786"
       r="2.5"
       cy="43.5"
       cx="4.9929786" />
    <linearGradient
       id="linearGradient3688-166-749-4-0-3-8">
      <stop
         offset="0"
         style="stop-color:#181818;stop-opacity:1"
         id="stop2883-4-0-1-8" />
      <stop
         offset="1"
         style="stop-color:#181818;stop-opacity:0"
         id="stop2885-9-2-9-6" />
    </linearGradient>
    <radialGradient
       gradientTransform="matrix(2.003784,0,0,1.4,-20.01187,-104.4)"
       gradientUnits="userSpaceOnUse"
       xlink:href="#linearGradient3688-166-749-4-0-3-8"
       id="radialGradient3339-1-4"
       fy="43.5"
       fx="4.9929786"
       r="2.5"
       cy="43.5"
       cx="4.9929786" />
    <linearGradient
       gradientUnits="userSpaceOnUse"
       xlink:href="#linearGradient3702-501-757-8-4-1-1"
       id="linearGradient13984"
       y2="39.999443"
       x2="25.058096"
       y1="47.027729"
       x1="25.058096" />
    <linearGradient
       id="linearGradient3702-501-757-8-4-1-1">
      <stop
         offset="0"
         style="stop-color:#181818;stop-opacity:0"
         id="stop2895-8-9-9-1" />
      <stop
         offset="0.5"
         style="stop-color:#181818;stop-opacity:1"
         id="stop2897-7-8-7-7" />
      <stop
         offset="1"
         style="stop-color:#181818;stop-opacity:0"
         id="stop2899-4-5-1-5" />
    </linearGradient>
    <linearGradient
       y2="43"
       x2="23.99999"
       y1="4.999989"
       x1="23.99999"
       gradientTransform="matrix(2.8602167,0,0,3.0075076,-4.2120601,-72.235387)"
       gradientUnits="userSpaceOnUse"
       id="linearGradient3647"
       xlink:href="#linearGradient3924-2-2-5-8" />
    <linearGradient
       id="linearGradient3924-2-2-5-8">
      <stop
         offset="0"
         style="stop-color:#fff194;stop-opacity:1"
         id="stop3926-9-4-9-6" />
      <stop
         offset="0.06316455"
         style="stop-color:#ffffff;stop-opacity:0.23529412"
         id="stop3928-9-8-6-5" />
      <stop
         offset="0.95056331"
         style="stop-color:#ffffff;stop-opacity:0.15686275"
         id="stop3930-3-5-1-7" />
      <stop
         offset="1"
         style="stop-color:#ffffff;stop-opacity:0.39215687"
         id="stop3932-8-0-4-8" />
    </linearGradient>
  </defs>
  <sodipodi:namedview
     id="base"
     pagecolor="#ffffff"
     bordercolor="#666666"
     borderopacity="1.0"
     inkscape:pageopacity="0.0"
     inkscape:pageshadow="2"
     inkscape:zoom="5.5"
     inkscape:cx="35.755029"
     inkscape:cy="68.363636"
     inkscape:current-layer="layer1"
     showgrid="true"
     inkscape:document-units="px"
     inkscape:grid-bbox="true"
     inkscape:window-width="1920"
     inkscape:window-height="962"
     inkscape:window-x="0"
     inkscape:window-y="30"
     inkscape:window-maximized="1" />
  <metadata
     id="metadata5567">
    <rdf:RDF>
      <cc:Work
         rdf:about="">
        <dc:format>image/svg+xml</dc:format>
        <dc:type
           rdf:resource="http://purl.org/dc/dcmitype/StillImage" />
        <dc:title />
      </cc:Work>
    </rdf:RDF>
  </metadata>
  <g
     id="layer1"
     inkscape:label="Layer 1"
     inkscape:groupmode="layer"
     transform="translate(0,64)">
    <rect
       style="opacity:1;fill:#ffdd55;fill-opacity:1;stroke:none;stroke-width:0.52761984;stroke-miterlimit:4;stroke-dasharray:none;stroke-opacity:1"
       id="rect3387-2"
       width="108.42641"
       height="114.07018"
       x="10.329121"
       y="-57.035084"
       ry="5.883667" />
    <g
       transform="matrix(3.0919155,0,0,1.1007428,-9.9596162,9.5946322)"
       id="g3712-8-2-4-4"
       style="opacity:0.4">
      <rect
         width="5"
         height="7"
         x="38"
         y="40"
         id="rect2801-5-5-7-9"
         style="fill:url(#radialGradient3337-2-2);fill-opacity:1;stroke:none" />
      <rect
         width="5"
         height="7"
         x="-10"
         y="-47"
         transform="scale(-1,-1)"
         id="rect3696-3-0-3-7"
         style="fill:url(#radialGradient3339-1-4);fill-opacity:1;stroke:none" />
      <rect
         width="28"
         height="7.0000005"
         x="10"
         y="40"
         id="rect3700-5-6-8-4"
         style="fill:url(#linearGradient13984);fill-opacity:1;stroke:none" />
    </g>
    <rect
       style="opacity:0.4;fill:none;fill-opacity:1;stroke:url(#linearGradient4207);stroke-width:1.44222522;stroke-miterlimit:4;stroke-dasharray:none;stroke-opacity:1"
       id="rect3387"
       width="109.51301"
       height="115.47925"
       x="9.820713"
       y="-57.670105"
       ry="5.956347" />
    <g
       transform="matrix(1.0592422,-0.13401196,0.13768764,0.92665135,0,0)"
       style="font-style:normal;font-weight:normal;font-size:26.37275696px;line-height:125%;font-family:sans-serif;letter-spacing:0px;word-spacing:0px;opacity:1;fill:#00286b;fill-opacity:1;fill-rule:nonzero;stroke:none;stroke-width:1px;stroke-linecap:butt;stroke-linejoin:miter;stroke-opacity:1"
       id="text3353">
      <path
         d="m 41.441066,-6.6928392 q -0.492292,0 -1.090074,-0.1758184 -0.879092,-0.2109821 -1.512038,-0.773601 -0.632947,-0.5977826 -0.94942,-1.4065472 -0.562619,-1.3362202 0.03516,-3.0240762 0.210982,-0.597783 0.632946,-1.406548 0.07033,-0.140654 0.140655,-0.281309 0.105491,-0.175818 0.210982,-0.351637 -0.808765,0.421964 -1.582366,0.914256 -0.773601,0.457128 -1.582365,0.879092 -1.441711,0.879092 -2.777931,1.617529 -1.301056,0.7032738 -2.426294,1.1955653 -0.66811,0.3164732 -1.371384,0.3164732 -0.66811,0 -1.301056,-0.2461458 -0.632946,-0.2461458 -1.125238,-0.7032737 -0.527455,-0.492291 -0.808764,-1.160401 -0.316473,-0.66811 -0.316473,-1.33622 0,-0.703274 0.246145,-1.33622 0.246146,-0.632946 0.738438,-1.125238 0.457127,-0.527455 1.125237,-0.808765 0.808765,-0.3868 1.969167,-1.019746 1.195565,-0.66811 2.531785,-1.441711 1.547202,-0.914256 3.235058,-1.863675 1.723021,-0.984583 3.375714,-1.687857 1.863675,-0.914256 3.481204,-1.230729 1.125238,-0.281309 2.074657,-0.316473 0.984583,-0.03516 1.898839,0.210982 1.934002,0.562619 2.637276,2.39113 0.527455,1.33622 0.140655,2.602113 -0.351637,1.265892 -0.94942,2.39113 0.105491,-0.03516 0.210982,-0.03516 0.140655,-0.03516 0.246146,-0.105491 0.66811,-0.246145 1.33622,-0.175818 0.703274,0.03516 1.301056,0.316473 0.632947,0.28131 1.090074,0.808765 0.492292,0.492291 0.738438,1.160401 0.246145,0.703274 0.210982,1.406547 -0.03516,0.66811 -0.316473,1.301057 -0.28131,0.597782 -0.808765,1.090074 -0.492292,0.4571276 -1.195565,0.7032734 -1.652693,0.5977825 -3.024077,1.0900741 -1.371383,0.4571278 -2.426294,0.8087646 -1.476874,0.4219642 -2.39113,0.6329463 -0.914256,0.1758184 -1.652693,0.1758184 z"
         style="font-style:normal;font-variant:normal;font-weight:bold;font-stretch:normal;font-size:35.16368103px;font-family:'Redacted Script';-inkscape-font-specification:'Redacted Script Bold';fill:#00286b;fill-opacity:1;fill-rule:nonzero;stroke:none;stroke-opacity:1"
         id="path3520" />
      <path
         d="m 62.182143,-6.6928392 q -0.492291,0 -1.090074,-0.1758184 -0.879092,-0.2109821 -1.512038,-0.773601 -0.632946,-0.5977826 -0.949419,-1.4065472 -0.562619,-1.3362202 0.03516,-3.0240762 0.210982,-0.597783 0.632947,-1.406548 0.07033,-0.140654 0.140654,-0.281309 0.105491,-0.175818 0.210982,-0.351637 -0.808764,0.421964 -1.582365,0.914256 -0.773601,0.457128 -1.582366,0.879092 -1.441711,0.879092 -2.777931,1.617529 -1.301056,0.7032738 -2.426294,1.1955653 -0.66811,0.3164732 -1.371383,0.3164732 -0.66811,0 -1.301056,-0.2461458 -0.632947,-0.2461458 -1.125238,-0.7032737 -0.527455,-0.492291 -0.808765,-1.160401 -0.316473,-0.66811 -0.316473,-1.33622 0,-0.703274 0.246146,-1.33622 0.246145,-0.632946 0.738437,-1.125238 0.457128,-0.527455 1.125238,-0.808765 0.808764,-0.3868 1.969166,-1.019746 1.195565,-0.66811 2.531785,-1.441711 1.547202,-0.914256 3.235059,-1.863675 1.72302,-0.984583 3.375713,-1.687857 1.863675,-0.914256 3.481204,-1.230729 1.125238,-0.281309 2.074658,-0.316473 0.984583,-0.03516 1.898838,0.210982 1.934003,0.562619 2.637276,2.39113 0.527456,1.33622 0.140655,2.602113 -0.351637,1.265892 -0.949419,2.39113 0.105491,-0.03516 0.210982,-0.03516 0.140655,-0.03516 0.246146,-0.105491 0.66811,-0.246145 1.33622,-0.175818 0.703273,0.03516 1.301056,0.316473 0.632946,0.28131 1.090074,0.808765 0.492291,0.492291 0.738437,1.160401 0.246146,0.703274 0.210982,1.406547 -0.03516,0.66811 -0.316473,1.301057 -0.281309,0.597782 -0.808765,1.090074 -0.492291,0.4571276 -1.195565,0.7032734 -1.652693,0.5977825 -3.024076,1.0900741 -1.371384,0.4571278 -2.426294,0.8087646 -1.476875,0.4219642 -2.391131,0.6329463 -0.914255,0.1758184 -1.652693,0.1758184 z"
         style="font-style:normal;font-variant:normal;font-weight:bold;font-stretch:normal;font-size:35.16368103px;font-family:'Redacted Script';-inkscape-font-specification:'Redacted Script Bold';fill:#00286b;fill-opacity:1;fill-rule:nonzero;stroke:none;stroke-opacity:1"
         id="path3522" />
      <path
         d="m 82.923221,-6.6928392 q -0.492292,0 -1.090074,-0.1758184 -0.879092,-0.2109821 -1.512039,-0.773601 -0.632946,-0.5977826 -0.949419,-1.4065472 -0.562619,-1.3362202 0.03516,-3.0240762 0.210982,-0.597783 0.632946,-1.406548 0.07033,-0.140654 0.140655,-0.281309 0.105491,-0.175818 0.210982,-0.351637 -0.808765,0.421964 -1.582366,0.914256 -0.773601,0.457128 -1.582366,0.879092 -1.44171,0.879092 -2.77793,1.617529 -1.301057,0.7032738 -2.426294,1.1955653 -0.66811,0.3164732 -1.371384,0.3164732 -0.66811,0 -1.301056,-0.2461458 -0.632946,-0.2461458 -1.125238,-0.7032737 -0.527455,-0.492291 -0.808765,-1.160401 -0.316473,-0.66811 -0.316473,-1.33622 0,-0.703274 0.246146,-1.33622 0.246146,-0.632946 0.738437,-1.125238 0.457128,-0.527455 1.125238,-0.808765 0.808765,-0.3868 1.969166,-1.019746 1.195566,-0.66811 2.531785,-1.441711 1.547202,-0.914256 3.235059,-1.863675 1.72302,-0.984583 3.375713,-1.687857 1.863676,-0.914256 3.481205,-1.230729 1.125238,-0.281309 2.074657,-0.316473 0.984583,-0.03516 1.898839,0.210982 1.934002,0.562619 2.637276,2.39113 0.527455,1.33622 0.140655,2.602113 -0.351637,1.265892 -0.94942,2.39113 0.105491,-0.03516 0.210982,-0.03516 0.140655,-0.03516 0.246146,-0.105491 0.66811,-0.246145 1.33622,-0.175818 0.703274,0.03516 1.301056,0.316473 0.632946,0.28131 1.090074,0.808765 0.492292,0.492291 0.738438,1.160401 0.246145,0.703274 0.210982,1.406547 -0.03516,0.66811 -0.316473,1.301057 -0.28131,0.597782 -0.808765,1.090074 -0.492292,0.4571276 -1.195565,0.7032734 -1.652693,0.5977825 -3.024077,1.0900741 -1.371383,0.4571278 -2.426294,0.8087646 -1.476874,0.4219642 -2.39113,0.6329463 -0.914256,0.1758184 -1.652693,0.1758184 z"
         style="font-style:normal;font-variant:normal;font-weight:bold;font-stretch:normal;font-size:35.16368103px;font-family:'Redacted Script';-inkscape-font-specification:'Redacted Script Bold';fill:#00286b;fill-opacity:1;fill-rule:nonzero;stroke:none;stroke-opacity:1"
         id="path3524" />
      <path
         d="m 41.441066,37.261762 q -0.492292,0 -1.090074,-0.175818 -0.879092,-0.210982 -1.512038,-0.773601 -0.632947,-0.597783 -0.94942,-1.406548 -0.562619,-1.336219 0.03516,-3.024076 0.210982,-0.597783 0.632946,-1.406547 0.07033,-0.140655 0.140655,-0.28131 0.105491,-0.175818 0.210982,-0.351637 -0.808765,0.421965 -1.582366,0.914256 -0.773601,0.457128 -1.582365,0.879092 -1.441711,0.879092 -2.777931,1.617529 -1.301056,0.703274 -2.426294,1.195566 -0.66811,0.316473 -1.371384,0.316473 -0.66811,0 -1.301056,-0.246146 Q 27.234939,34.272849 26.742647,33.815721 26.215192,33.32343 25.933883,32.65532 25.61741,31.98721 25.61741,31.3191 q 0,-0.703274 0.246145,-1.33622 0.246146,-0.632946 0.738438,-1.125238 0.457127,-0.527455 1.125237,-0.808764 0.808765,-0.386801 1.969167,-1.019747 1.195565,-0.66811 2.531785,-1.441711 1.547202,-0.914256 3.235058,-1.863675 1.723021,-0.984583 3.375714,-1.687857 1.863675,-0.914255 3.481204,-1.230729 1.125238,-0.281309 2.074657,-0.316473 0.984583,-0.03516 1.898839,0.210982 1.934002,0.562619 2.637276,2.391131 0.527455,1.33622 0.140655,2.602112 -0.351637,1.265893 -0.94942,2.39113 0.105491,-0.03516 0.210982,-0.03516 0.140655,-0.03516 0.246146,-0.105491 0.66811,-0.246146 1.33622,-0.175819 0.703274,0.03516 1.301056,0.316473 0.632947,0.28131 1.090074,0.808765 0.492292,0.492292 0.738438,1.160401 0.246145,0.703274 0.210982,1.406548 -0.03516,0.66811 -0.316473,1.301056 -0.28131,0.597783 -0.808765,1.090074 -0.492292,0.457128 -1.195565,0.703274 -1.652693,0.597782 -3.024077,1.090074 -1.371383,0.457128 -2.426294,0.808764 -1.476874,0.421965 -2.39113,0.632947 -0.914256,0.175818 -1.652693,0.175818 z"
         style="font-style:normal;font-variant:normal;font-weight:bold;font-stretch:normal;font-size:35.16368103px;font-family:'Redacted Script';-inkscape-font-specification:'Redacted Script Bold';fill:#00286b;fill-opacity:1;fill-rule:nonzero;stroke:none;stroke-opacity:1"
         id="path3526" />
      <path
         d="m 62.182143,37.261762 q -0.492291,0 -1.090074,-0.175818 -0.879092,-0.210982 -1.512038,-0.773601 -0.632946,-0.597783 -0.949419,-1.406548 -0.562619,-1.336219 0.03516,-3.024076 0.210982,-0.597783 0.632947,-1.406547 0.07033,-0.140655 0.140654,-0.28131 0.105491,-0.175818 0.210982,-0.351637 -0.808764,0.421965 -1.582365,0.914256 -0.773601,0.457128 -1.582366,0.879092 -1.441711,0.879092 -2.777931,1.617529 -1.301056,0.703274 -2.426294,1.195566 -0.66811,0.316473 -1.371383,0.316473 -0.66811,0 -1.301056,-0.246146 Q 47.976016,34.272849 47.483725,33.815721 46.95627,33.32343 46.67496,32.65532 46.358487,31.98721 46.358487,31.3191 q 0,-0.703274 0.246146,-1.33622 0.246145,-0.632946 0.738437,-1.125238 0.457128,-0.527455 1.125238,-0.808764 0.808764,-0.386801 1.969166,-1.019747 1.195565,-0.66811 2.531785,-1.441711 1.547202,-0.914256 3.235059,-1.863675 1.72302,-0.984583 3.375713,-1.687857 1.863675,-0.914255 3.481204,-1.230729 1.125238,-0.281309 2.074658,-0.316473 0.984583,-0.03516 1.898838,0.210982 1.934003,0.562619 2.637276,2.391131 0.527456,1.33622 0.140655,2.602112 -0.351637,1.265893 -0.949419,2.39113 0.105491,-0.03516 0.210982,-0.03516 0.140655,-0.03516 0.246146,-0.105491 0.66811,-0.246146 1.33622,-0.175819 0.703273,0.03516 1.301056,0.316473 0.632946,0.28131 1.090074,0.808765 0.492291,0.492292 0.738437,1.160401 0.246146,0.703274 0.210982,1.406548 -0.03516,0.66811 -0.316473,1.301056 -0.281309,0.597783 -0.808765,1.090074 -0.492291,0.457128 -1.195565,0.703274 -1.652693,0.597782 -3.024076,1.090074 -1.371384,0.457128 -2.426294,0.808764 -1.476875,0.421965 -2.391131,0.632947 -0.914255,0.175818 -1.652693,0.175818 z"
         style="font-style:normal;font-variant:normal;font-weight:bold;font-stretch:normal;font-size:35.16368103px;font-family:'Redacted Script';-inkscape-font-specification:'Redacted Script Bold';fill:#00286b;fill-opacity:1;fill-rule:nonzero;stroke:none;stroke-opacity:1"
         id="path3528" />
      <path
         d="m 82.923221,37.261762 q -0.492292,0 -1.090074,-0.175818 -0.879092,-0.210982 -1.512039,-0.773601 -0.632946,-0.597783 -0.949419,-1.406548 -0.562619,-1.336219 0.03516,-3.024076 0.210982,-0.597783 0.632946,-1.406547 0.07033,-0.140655 0.140655,-0.28131 0.105491,-0.175818 0.210982,-0.351637 -0.808765,0.421965 -1.582366,0.914256 -0.773601,0.457128 -1.582366,0.879092 -1.44171,0.879092 -2.77793,1.617529 -1.301057,0.703274 -2.426294,1.195566 -0.66811,0.316473 -1.371384,0.316473 -0.66811,0 -1.301056,-0.246146 -0.632946,-0.246146 -1.125238,-0.703274 -0.527455,-0.492291 -0.808765,-1.160401 -0.316473,-0.66811 -0.316473,-1.33622 0,-0.703274 0.246146,-1.33622 0.246146,-0.632946 0.738437,-1.125238 0.457128,-0.527455 1.125238,-0.808764 0.808765,-0.386801 1.969166,-1.019747 1.195566,-0.66811 2.531785,-1.441711 1.547202,-0.914256 3.235059,-1.863675 1.72302,-0.984583 3.375713,-1.687857 1.863676,-0.914255 3.481205,-1.230729 1.125238,-0.281309 2.074657,-0.316473 0.984583,-0.03516 1.898839,0.210982 1.934002,0.562619 2.637276,2.391131 0.527455,1.33622 0.140655,2.602112 -0.351637,1.265893 -0.94942,2.39113 0.105491,-0.03516 0.210982,-0.03516 0.140655,-0.03516 0.246146,-0.105491 0.66811,-0.246146 1.33622,-0.175819 0.703274,0.03516 1.301056,0.316473 0.632946,0.28131 1.090074,0.808765 0.492292,0.492292 0.738438,1.160401 0.246145,0.703274 0.210982,1.406548 -0.03516,0.66811 -0.316473,1.301056 -0.28131,0.597783 -0.808765,1.090074 -0.492292,0.457128 -1.195565,0.703274 -1.652693,0.597782 -3.024077,1.090074 -1.371383,0.457128 -2.426294,0.808764 -1.476874,0.421965 -2.39113,0.632947 -0.914256,0.175818 -1.652693,0.175818 z"
         style="font-style:normal;font-variant:normal;font-weight:bold;font-stretch:normal;font-size:35.16368103px;font-family:'Redacted Script';-inkscape-font-specification:'Redacted Script Bold';fill:#00286b;fill-opacity:1;fill-rule:nonzero;stroke:none;stroke-opacity:1"
         id="path3530" />
    </g>
    <rect
       width="105.82803"
       height="111.27778"
       rx="3.9935102"
       ry="4.1879034"
       x="11.519131"
       y="-55.694103"
       id="rect6741-5-0-2-3"
       style="fill:none;stroke:url(#linearGradient3647);stroke-width:2.04477596;stroke-linecap:round;stroke-linejoin:round;stroke-miterlimit:4;stroke-dasharray:none;stroke-dashoffset:0;stroke-opacity:1" />
  </g>
</svg>
