<?xml version="1.0" encoding="UTF-8" standalone="no"?>
<svg
   xmlns:dc="http://purl.org/dc/elements/1.1/"
   xmlns:cc="http://creativecommons.org/ns#"
   xmlns:rdf="http://www.w3.org/1999/02/22-rdf-syntax-ns#"
   xmlns:svg="http://www.w3.org/2000/svg"
   xmlns="http://www.w3.org/2000/svg"
   xmlns:sodipodi="http://sodipodi.sourceforge.net/DTD/sodipodi-0.dtd"
   xmlns:inkscape="http://www.inkscape.org/namespaces/inkscape"
   height="128px"
   viewBox="0 0 128 128"
   width="128px"
   version="1.1"
   id="svg44"
   sodipodi:docname="io.github.lainsce.Notejot.svg"
   inkscape:export-filename="/home/lains/Projects/notejot/data/icon.png"
   inkscape:export-xdpi="96"
   inkscape:export-ydpi="96"
   inkscape:version="1.0.2 (e86c870879, 2021-01-15)">
  <metadata
     id="metadata50">
    <rdf:RDF>
      <cc:Work
         rdf:about="">
        <dc:format>image/svg+xml</dc:format>
        <dc:type
           rdf:resource="http://purl.org/dc/dcmitype/StillImage" />
      </cc:Work>
    </rdf:RDF>
  </metadata>
  <defs
     id="defs48" />
  <sodipodi:namedview
     pagecolor="#ffffff"
     bordercolor="#666666"
     borderopacity="1"
     objecttolerance="10"
     gridtolerance="10"
     guidetolerance="10"
     inkscape:pageopacity="0"
     inkscape:pageshadow="2"
     inkscape:window-width="780"
     inkscape:window-height="480"
     id="namedview46"
     showgrid="false"
     inkscape:zoom="5.7421875"
     inkscape:cx="64"
     inkscape:cy="64"
     inkscape:window-x="0"
     inkscape:window-y="32"
     inkscape:window-maximized="0"
     inkscape:current-layer="svg44" />
  <linearGradient
     id="a"
     gradientTransform="matrix(0.232143 0 0 0.328947 -8.56707 263.826965)"
     gradientUnits="userSpaceOnUse"
     x1="88.595886"
     x2="536.595886"
     y1="-449.394012"
     y2="-449.394012">
    <stop
       offset="0"
       stop-color="#f5c211"
       id="stop2" />
    <stop
       offset="0.0384615"
       stop-color="#f8e45c"
       id="stop4" />
    <stop
       offset="0.0768555"
       stop-color="#f5c211"
       id="stop6" />
    <stop
       offset="0.923077"
       stop-color="#f5c211"
       id="stop8" />
    <stop
       offset="0.961538"
       stop-color="#f8e45c"
       id="stop10" />
    <stop
       offset="1"
       stop-color="#f5c211"
       id="stop12" />
  </linearGradient>
  <clipPath
     id="b">
    <path
       d="m 88 80 h 28 v 28 h -28 z m 0 0"
       id="path15" />
  </clipPath>
  <clipPath
     id="c">
    <path
       d="m 116 80 l -28 28 h -8 v -36 h 36 z m 0 0"
       id="path18" />
  </clipPath>
  <linearGradient
     id="d"
     gradientTransform="matrix(0 0.25 0.25 0 83 8)"
     gradientUnits="userSpaceOnUse"
     x1="344"
     x2="340"
     y1="76"
     y2="72">
    <stop
       offset="0"
       stop-color="#f6d32d"
       id="stop21" />
    <stop
       offset="1"
       stop-color="#f9f06b"
       id="stop23" />
  </linearGradient>
  <path
     d="m 20 16 h 88 c 4.417969 0 8 3.582031 8 8 v 84 c 0 4.417969 -3.582031 8 -8 8 h -88 c -4.417969 0 -8 -3.582031 -8 -8 v -84 c 0 -4.417969 3.582031 -8 8 -8 z m 0 0"
     fill="url(#a)"
     id="path26" />
  <path
     d="m 20 12 h 88 c 4.417969 0 8 3.582031 8 8 v 80 c 0 4.417969 -3.582031 8 -8 8 h -88 c -4.417969 0 -8 -3.582031 -8 -8 v -80 c 0 -4.417969 3.582031 -8 8 -8 z m 0 0"
     fill="#f8e45c"
     id="path28" />
  <g
     clip-path="url(#b)"
     id="g34">
    <g
       clip-path="url(#c)"
       id="g32">
      <path
         d="m 88 88 v 20 c 0 4.417969 3.582031 8 8 8 h 20 c 4.417969 0 8 -3.582031 8 -8 v -20 c 0 -4.417969 -3.582031 -8 -8 -8 h -20 c -4.417969 0 -8 3.582031 -8 8 z m 0 0"
         fill="url(#d)"
         id="path30" />
    </g>
  </g>
  <g
     fill="#e5a50a"
     id="g42">
    <path
       d="m 20 24 h 68 v 8 h -68 z m 0 0"
       id="path36" />
    <path
       d="m 20 40 h 52 v 8 h -52 z m 0 0"
       id="path38" />
    <path
       d="m 20 56 h 60 v 8 h -60 z m 0 0"
       id="path40" />
  </g>
</svg>
