<?xml version="1.0" encoding="UTF-8"?>
<svg height="128px" viewBox="0 0 128 128" width="128px" xmlns="http://www.w3.org/2000/svg" xmlns:xlink="http://www.w3.org/1999/xlink">
    <linearGradient id="a" gradientTransform="matrix(0.196428 0 0 0.342105 2.59732 273.740051)" gradientUnits="userSpaceOnUse" x1="88.595886" x2="536.595886" y1="-449.394012" y2="-449.394012">
        <stop offset="0" stop-color="#865e3c"/>
        <stop offset="0.0500001" stop-color="#b5835a"/>
        <stop offset="0.099807" stop-color="#865e3c"/>
        <stop offset="0.900001" stop-color="#865e3c"/>
        <stop offset="0.950001" stop-color="#b5835a"/>
        <stop offset="1" stop-color="#865e3c"/>
    </linearGradient>
    <linearGradient id="b" gradientTransform="matrix(0.196428 0 0 0.335526 2.59732 268.783508)" gradientUnits="userSpaceOnUse" x1="88.595886" x2="536.595886" y1="-449.394012" y2="-449.394012">
        <stop offset="0" stop-color="#f6d32d"/>
        <stop offset="0.0357143" stop-color="#f9f06b"/>
        <stop offset="0.0713653" stop-color="#f6d32d"/>
        <stop offset="0.928571" stop-color="#f6d32d"/>
        <stop offset="0.964286" stop-color="#f9f06b"/>
        <stop offset="1" stop-color="#f6d32d"/>
    </linearGradient>
    <linearGradient id="c" gradientUnits="userSpaceOnUse" x1="64" x2="64" y1="8" y2="28">
        <stop offset="0" stop-color="#986a44"/>
        <stop offset="1" stop-color="#865e3c"/>
    </linearGradient>
    <clipPath id="d">
        <path d="m 80 84 h 28 v 28 h -28 z m 0 0"/>
    </clipPath>
    <clipPath id="e">
        <path d="m 108 84 l -28 28 h -8 v -36 h 36 z m 0 0"/>
    </clipPath>
    <linearGradient id="f" gradientTransform="matrix(0 0.25 0.25 0 75 12)" gradientUnits="userSpaceOnUse" x1="344" x2="340" y1="76" y2="72">
        <stop offset="0" stop-color="#f6d32d"/>
        <stop offset="1" stop-color="#f9f06b"/>
    </linearGradient>
    <filter id="g" height="100%" width="100%" x="0%" y="0%">
        <feColorMatrix in="SourceGraphic" type="matrix" values="0 0 0 0 1 0 0 0 0 1 0 0 0 0 1 0 0 0 1 0"/>
    </filter>
    <mask id="h">
        <g filter="url(#g)">
            <rect fill-opacity="0.218543" height="128" width="128"/>
        </g>
    </mask>
    <linearGradient id="i" gradientUnits="userSpaceOnUse" x1="72" x2="72" y1="44" y2="48">
        <stop offset="0"/>
        <stop offset="1" stop-opacity="0"/>
    </linearGradient>
    <clipPath id="j">
        <rect height="152" width="192"/>
    </clipPath>
    <path d="m 28 16 h 72 c 4.417969 0 8 3.582031 8 8 v 88 c 0 4.417969 -3.582031 8 -8 8 h -72 c -4.417969 0 -8 -3.582031 -8 -8 v -88 c 0 -4.417969 3.582031 -8 8 -8 z m 0 0" fill="url(#a)"/>
    <path d="m 28 16 h 72 c 4.417969 0 8 3.582031 8 8 v 86 c 0 4.417969 -3.582031 8 -8 8 h -72 c -4.417969 0 -8 -3.582031 -8 -8 v -86 c 0 -4.417969 3.582031 -8 8 -8 z m 0 0" fill="url(#b)"/>
    <path d="m 28 8 h 72 c 4.417969 0 8 3.582031 8 8 v 88 c 0 4.417969 -3.582031 8 -8 8 h -72 c -4.417969 0 -8 -3.582031 -8 -8 v -88 c 0 -4.417969 3.582031 -8 8 -8 z m 0 0" fill="#f8e45c"/>
    <path d="m 28 8 c -4.433594 0 -8 3.566406 -8 8 v 12 h 88 v -12 c 0 -4.433594 -3.566406 -8 -8 -8 z m 0 0" fill="url(#c)"/>
    <g fill-opacity="0.390947">
        <path d="m 27 28 h 1 v 84 h -1 z m 0 0" fill="#e01b24"/>
        <path d="m 20 40 h 88 v 1 h -88 z m 0 0" fill="#3584e4"/>
        <path d="m 20 48 h 88 v 1 h -88 z m 0 0" fill="#3584e4"/>
        <path d="m 20 56 h 88 v 1 h -88 z m 0 0" fill="#3584e4"/>
        <path d="m 20 64 h 88 v 1 h -88 z m 0 0" fill="#3584e4"/>
        <path d="m 20 72 h 88 v 1 h -88 z m 0 0" fill="#3584e4"/>
        <path d="m 20 80 h 88 v 1 h -88 z m 0 0" fill="#3584e4"/>
        <path d="m 20 88 h 88 v 1 h -88 z m 0 0" fill="#3584e4"/>
        <path d="m 20 96 h 88 v 1 h -88 z m 0 0" fill="#3584e4"/>
        <path d="m 20 104.058594 h 87.980469 v 1 h -87.980469 z m 0 0" fill="#3584e4"/>
    </g>
    <g clip-path="url(#d)">
        <g clip-path="url(#e)">
            <path d="m 80 92 v 20 c 0 4.417969 3.582031 8 8 8 h 20 c 4.417969 0 8 -3.582031 8 -8 v -20 c 0 -4.417969 -3.582031 -8 -8 -8 h -20 c -4.417969 0 -8 3.582031 -8 8 z m 0 0" fill="url(#f)"/>
        </g>
    </g>
    <g clip-path="url(#j)" mask="url(#h)" transform="matrix(1 0 0 1 -8 -16)">
        <path d="m 28 44 h 88 v 4 h -88 z m 0 0" fill="url(#i)"/>
    </g>
</svg>
