<?xml version="1.0" encoding="UTF-8"?>
<svg height="16px" viewBox="0 0 16 16" width="16px" xmlns="http://www.w3.org/2000/svg">
    <g fill="#241f31">
        <path d="m 5 1 c -0.550781 0 -1 0.417969 -1 0.933594 v 0.933594 h -2 c -0.550781 0 -1 0.417968 -1 0.933593 v 10.265625 c 0 0.515625 0.449219 0.933594 1 0.933594 h 10 c 0.550781 0 1 -0.417969 1 -0.933594 v -1.867187 h 1 c 0.550781 0 1 -0.417969 1 -0.933594 v -9.332031 c 0 -0.515625 -0.449219 -0.933594 -1 -0.933594 z m -2 3.734375 h 8 v 8.398437 h -8 z m 0 0" fill-rule="evenodd"/>
        <path d="m 4 5.667969 h 4 v 0.933593 h -4 z m 0 0"/>
        <path d="m 4 7.535156 h 5 v 0.929688 h -5 z m 0 0"/>
        <path d="m 4 9.398438 h 3 v 0.933593 h -3 z m 0 0"/>
    </g>
</svg>
