<?xml version="1.0" encoding="UTF-8"?>
<svg height="16px" viewBox="0 0 16 16" width="16px" xmlns="http://www.w3.org/2000/svg">
    <g fill="#241f31">
        <path d="m 2.167969 1 c -0.644531 0 -1.167969 0.566406 -1.167969 1.167969 v 11.664062 c 0 0.601563 0.523438 1.167969 1.167969 1.167969 h 11.664062 c 0.644531 0 1.167969 -0.488281 1.167969 -1.089844 c 0 -1.910156 0 -10.910156 0 -11.742187 c 0 -0.601563 -0.523438 -1.167969 -1.167969 -1.167969 c -1.832031 0 -9.832031 0 -11.664062 0 z m 0.832031 2 h 10 v 10 h -10 z m 0 0" fill-rule="evenodd"/>
        <path d="m 4 4 h 8 v 1 h -8 z m 0 0"/>
        <path d="m 4 6 h 7 v 1 h -7 z m 0 0"/>
    </g>
</svg>
