<?xml version="1.0" encoding="UTF-8" standalone="no"?>
<!-- Created with Inkscape (http://www.inkscape.org/) -->

<svg
   xmlns:dc="http://purl.org/dc/elements/1.1/"
   xmlns:cc="http://creativecommons.org/ns#"
   xmlns:rdf="http://www.w3.org/1999/02/22-rdf-syntax-ns#"
   xmlns:svg="http://www.w3.org/2000/svg"
   xmlns="http://www.w3.org/2000/svg"
   xmlns:xlink="http://www.w3.org/1999/xlink"
   xmlns:sodipodi="http://sodipodi.sourceforge.net/DTD/sodipodi-0.dtd"
   xmlns:inkscape="http://www.inkscape.org/namespaces/inkscape"
   width="32"
   height="32"
   id="svg5562"
   version="1.1"
   inkscape:version="0.91 r13725"
   viewBox="0 0 32 32"
   sodipodi:docname="com.github.lainsce.notejot.svg">
  <defs
     id="defs5564">
    <linearGradient
       id="linearGradient5334">
      <stop
         id="stop5336"
         style="stop-color:#c69d00;stop-opacity:1"
         offset="0" />
      <stop
         id="stop5338"
         style="stop-color:#a88700;stop-opacity:1"
         offset="1" />
    </linearGradient>
    <linearGradient
       inkscape:collect="always"
       xlink:href="#linearGradient5334"
       id="linearGradient4207"
       x1="373.57144"
       y1="98.149536"
       x2="375.00003"
       y2="655.29242"
       gradientUnits="userSpaceOnUse"
       gradientTransform="matrix(0.04834537,0,0,0.0479549,-1.9337393,30.009607)" />
    <radialGradient
       gradientTransform="matrix(2.003784,0,0,1.4,27.98813,-17.4)"
       gradientUnits="userSpaceOnUse"
       xlink:href="#linearGradient3688-166-749-4-0-3-8"
       id="radialGradient3337-2-2"
       fy="43.5"
       fx="4.9929786"
       r="2.5"
       cy="43.5"
       cx="4.9929786" />
    <linearGradient
       id="linearGradient3688-166-749-4-0-3-8">
      <stop
         offset="0"
         style="stop-color:#181818;stop-opacity:1"
         id="stop2883-4-0-1-8" />
      <stop
         offset="1"
         style="stop-color:#181818;stop-opacity:0"
         id="stop2885-9-2-9-6" />
    </linearGradient>
    <radialGradient
       gradientTransform="matrix(2.003784,0,0,1.4,-20.01187,-104.4)"
       gradientUnits="userSpaceOnUse"
       xlink:href="#linearGradient3688-166-749-4-0-3-8"
       id="radialGradient3339-1-4"
       fy="43.5"
       fx="4.9929786"
       r="2.5"
       cy="43.5"
       cx="4.9929786" />
    <linearGradient
       gradientUnits="userSpaceOnUse"
       xlink:href="#linearGradient3702-501-757-8-4-1-1"
       id="linearGradient13984"
       y2="39.999443"
       x2="25.058096"
       y1="47.027729"
       x1="25.058096" />
    <linearGradient
       id="linearGradient3702-501-757-8-4-1-1">
      <stop
         offset="0"
         style="stop-color:#181818;stop-opacity:0"
         id="stop2895-8-9-9-1" />
      <stop
         offset="0.5"
         style="stop-color:#181818;stop-opacity:1"
         id="stop2897-7-8-7-7" />
      <stop
         offset="1"
         style="stop-color:#181818;stop-opacity:0"
         id="stop2899-4-5-1-5" />
    </linearGradient>
    <linearGradient
       y2="43"
       x2="23.99999"
       y1="4.999989"
       x1="23.99999"
       gradientTransform="matrix(0.672941,0,0,0.70759503,-0.05777374,31.26067)"
       gradientUnits="userSpaceOnUse"
       id="linearGradient3647"
       xlink:href="#linearGradient3924-2-2-5-8" />
    <linearGradient
       id="linearGradient3924-2-2-5-8">
      <stop
         offset="0"
         style="stop-color:#fff194;stop-opacity:1"
         id="stop3926-9-4-9-6" />
      <stop
         offset="0.06316455"
         style="stop-color:#ffffff;stop-opacity:0.23529412"
         id="stop3928-9-8-6-5" />
      <stop
         offset="0.95056331"
         style="stop-color:#ffffff;stop-opacity:0.15686275"
         id="stop3930-3-5-1-7" />
      <stop
         offset="1"
         style="stop-color:#ffffff;stop-opacity:0.39215687"
         id="stop3932-8-0-4-8" />
    </linearGradient>
  </defs>
  <sodipodi:namedview
     id="base"
     pagecolor="#ffffff"
     bordercolor="#666666"
     borderopacity="1.0"
     inkscape:pageopacity="0.0"
     inkscape:pageshadow="2"
     inkscape:zoom="15.556349"
     inkscape:cx="6.7415436"
     inkscape:cy="11.316251"
     inkscape:current-layer="layer1"
     showgrid="true"
     inkscape:document-units="px"
     inkscape:grid-bbox="true"
     inkscape:window-width="1920"
     inkscape:window-height="962"
     inkscape:window-x="0"
     inkscape:window-y="30"
     inkscape:window-maximized="1" />
  <metadata
     id="metadata5567">
    <rdf:RDF>
      <cc:Work
         rdf:about="">
        <dc:format>image/svg+xml</dc:format>
        <dc:type
           rdf:resource="http://purl.org/dc/dcmitype/StillImage" />
        <dc:title />
      </cc:Work>
    </rdf:RDF>
  </metadata>
  <g
     id="layer1"
     inkscape:label="Layer 1"
     inkscape:groupmode="layer"
     transform="translate(0,-32)">
    <rect
       style="opacity:1;fill:#ffdd55;fill-opacity:1;stroke:none;stroke-width:0.52761984;stroke-miterlimit:4;stroke-dasharray:none;stroke-opacity:1"
       id="rect3387-2"
       width="25.498978"
       height="26.812508"
       x="3.364886"
       y="34.801369"
       ry="1.3829722" />
    <g
       transform="matrix(0.72745423,0,0,0.25897861,-1.4100371,50.513326)"
       id="g3712-8-2-4-4"
       style="opacity:0.4">
      <rect
         width="5"
         height="7"
         x="38"
         y="40"
         id="rect2801-5-5-7-9"
         style="fill:url(#radialGradient3337-2-2);fill-opacity:1;stroke:none" />
      <rect
         width="5"
         height="7"
         x="-10"
         y="-47"
         transform="scale(-1,-1)"
         id="rect3696-3-0-3-7"
         style="fill:url(#radialGradient3339-1-4);fill-opacity:1;stroke:none" />
      <rect
         width="28"
         height="7.0000005"
         x="10"
         y="40"
         id="rect3700-5-6-8-4"
         style="fill:url(#linearGradient13984);fill-opacity:1;stroke:none" />
    </g>
    <rect
       style="opacity:0.4;fill:none;fill-opacity:1;stroke:url(#linearGradient4207);stroke-width:0.33773223;stroke-miterlimit:4;stroke-dasharray:none;stroke-opacity:1"
       id="rect3387"
       width="25.767397"
       height="26.913982"
       x="3.2430098"
       y="34.686741"
       ry="1.3882062" />
    <g
       transform="matrix(1.0592422,-0.13401196,0.13768764,0.92665135,0,0)"
       style="font-style:normal;font-weight:normal;font-size:6.20488262px;line-height:125%;font-family:sans-serif;letter-spacing:0px;word-spacing:0px;opacity:1;fill:#00286b;fill-opacity:1;fill-rule:nonzero;stroke:none;stroke-width:1px;stroke-linecap:butt;stroke-linejoin:miter;stroke-opacity:1"
       id="text3353">
      <path
         d="m 3.9706251,49.665121 q -0.1158245,0 -0.2564685,-0.04137 -0.2068294,-0.04964 -0.3557466,-0.18201 -0.1489172,-0.140644 -0.2233758,-0.330927 -0.1323709,-0.314381 0.00827,-0.711493 0.049639,-0.140644 0.1489172,-0.330927 0.016546,-0.03309 0.033093,-0.06619 0.02482,-0.04137 0.049639,-0.08273 -0.1902831,0.09928 -0.372293,0.215103 -0.1820099,0.107551 -0.372293,0.20683 -0.3392003,0.206829 -0.6535811,0.380566 -0.3061076,0.165463 -0.5708493,0.281288 -0.1571904,0.07446 -0.3226539,0.07446 -0.1571904,0 -0.30610761,-0.05791 -0.1489172,-0.05791 -0.2647417,-0.165463 -0.12409767,-0.115825 -0.19028309,-0.273015 -0.0744586,-0.157191 -0.0744586,-0.314381 0,-0.165464 0.0579123,-0.314381 0.0579123,-0.148917 0.17373674,-0.264742 0.10755132,-0.124097 0.2647417,-0.190283 0.1902831,-0.09101 0.46329802,-0.239922 0.281288,-0.15719 0.5956688,-0.3392 0.3640198,-0.215103 0.7611324,-0.438479 0.4053857,-0.231649 0.7942251,-0.397112 0.4384784,-0.215103 0.8190446,-0.289561 0.2647417,-0.06619 0.4881175,-0.07446 0.231649,-0.0083 0.4467516,0.04964 0.4550248,0.132371 0.6204884,0.562576 0.1240976,0.314381 0.033093,0.612215 -0.082732,0.297835 -0.2233758,0.562577 0.024819,-0.0083 0.049639,-0.0083 0.033093,-0.0083 0.057912,-0.02482 0.1571904,-0.05791 0.3143808,-0.04137 0.1654635,0.0083 0.3061076,0.07446 0.1489172,0.06618 0.2564685,0.190283 0.1158245,0.115824 0.1737367,0.273015 0.057912,0.165463 0.049639,0.330927 -0.00827,0.15719 -0.074459,0.306107 -0.066185,0.140644 -0.1902831,0.256469 -0.1158245,0.107551 -0.2812881,0.165463 -0.3888393,0.140644 -0.7114933,0.256469 -0.3226539,0.107551 -0.5708493,0.190283 -0.3474735,0.09928 -0.5625761,0.148917 -0.2151026,0.04137 -0.3888394,0.04137 z"
         style="font-style:normal;font-variant:normal;font-weight:bold;font-stretch:normal;font-size:8.2731781px;font-family:'Redacted Script';-inkscape-font-specification:'Redacted Script Bold';fill:#00286b;fill-opacity:1;fill-rule:nonzero;stroke:none;stroke-opacity:1"
         id="path3364" />
      <path
         d="m 8.8505075,49.665121 q -0.1158245,0 -0.2564685,-0.04137 -0.2068295,-0.04964 -0.3557467,-0.18201 -0.1489172,-0.140644 -0.2233758,-0.330927 -0.1323709,-0.314381 0.00827,-0.711493 0.049639,-0.140644 0.1489172,-0.330927 0.016546,-0.03309 0.033093,-0.06619 0.024819,-0.04137 0.049639,-0.08273 -0.1902831,0.09928 -0.3722931,0.215103 -0.1820099,0.107551 -0.372293,0.20683 -0.3392003,0.206829 -0.653581,0.380566 -0.3061076,0.165463 -0.5708493,0.281288 -0.1571904,0.07446 -0.322654,0.07446 -0.1571904,0 -0.3061076,-0.05791 Q 5.5081435,48.961901 5.392319,48.85435 5.2682214,48.738525 5.2020359,48.581335 q -0.074459,-0.157191 -0.074459,-0.314381 0,-0.165464 0.057912,-0.314381 0.057912,-0.148917 0.1737367,-0.264742 0.1075513,-0.124097 0.2647417,-0.190283 0.1902831,-0.09101 0.463298,-0.239922 0.281288,-0.15719 0.5956688,-0.3392 0.3640198,-0.215103 0.7611324,-0.438479 0.4053857,-0.231649 0.7942251,-0.397112 0.4384784,-0.215103 0.8190446,-0.289561 0.2647417,-0.06619 0.4881175,-0.07446 0.231649,-0.0083 0.4467517,0.04964 0.4550249,0.132371 0.6204879,0.562576 0.124098,0.314381 0.03309,0.612215 -0.08273,0.297835 -0.223376,0.562577 0.02482,-0.0083 0.04964,-0.0083 0.03309,-0.0083 0.05791,-0.02482 0.15719,-0.05791 0.31438,-0.04137 0.165464,0.0083 0.306108,0.07446 0.148917,0.06618 0.256469,0.190283 0.115824,0.115824 0.173736,0.273015 0.05791,0.165463 0.04964,0.330927 -0.0083,0.15719 -0.07446,0.306107 -0.06619,0.140644 -0.190283,0.256469 -0.115825,0.107551 -0.281288,0.165463 -0.38884,0.140644 -0.711494,0.256469 -0.322654,0.107551 -0.570849,0.190283 -0.3474735,0.09928 -0.5625762,0.148917 -0.2151026,0.04137 -0.3888393,0.04137 z"
         style="font-style:normal;font-variant:normal;font-weight:bold;font-stretch:normal;font-size:8.2731781px;font-family:'Redacted Script';-inkscape-font-specification:'Redacted Script Bold';fill:#00286b;fill-opacity:1;fill-rule:nonzero;stroke:none;stroke-opacity:1"
         id="path3366" />
      <path
         d="m 13.73039,49.665121 q -0.115825,0 -0.256469,-0.04137 -0.206829,-0.04964 -0.355746,-0.18201 -0.148918,-0.140644 -0.223376,-0.330927 -0.132371,-0.314381 0.0083,-0.711493 0.04964,-0.140644 0.148917,-0.330927 0.01655,-0.03309 0.03309,-0.06619 0.02482,-0.04137 0.04964,-0.08273 -0.190283,0.09928 -0.372293,0.215103 -0.18201,0.107551 -0.372293,0.20683 -0.3392,0.206829 -0.653581,0.380566 -0.306108,0.165463 -0.570849,0.281288 -0.157191,0.07446 -0.322654,0.07446 -0.157191,0 -0.306108,-0.05791 -0.148917,-0.05791 -0.264742,-0.165463 -0.124097,-0.115825 -0.190283,-0.273015 -0.07446,-0.157191 -0.07446,-0.314381 0,-0.165464 0.05791,-0.314381 0.05791,-0.148917 0.173737,-0.264742 0.107551,-0.124097 0.264741,-0.190283 0.190283,-0.09101 0.463298,-0.239922 0.281288,-0.15719 0.595669,-0.3392 0.36402,-0.215103 0.761133,-0.438479 0.405385,-0.231649 0.794225,-0.397112 0.438478,-0.215103 0.819044,-0.289561 0.264742,-0.06619 0.488118,-0.07446 0.231649,-0.0083 0.446751,0.04964 0.455025,0.132371 0.620489,0.562576 0.124097,0.314381 0.03309,0.612215 -0.08273,0.297835 -0.223375,0.562577 0.02482,-0.0083 0.04964,-0.0083 0.03309,-0.0083 0.05791,-0.02482 0.15719,-0.05791 0.314381,-0.04137 0.165463,0.0083 0.306107,0.07446 0.148918,0.06618 0.256469,0.190283 0.115824,0.115824 0.173737,0.273015 0.05791,0.165463 0.04964,0.330927 -0.0083,0.15719 -0.07446,0.306107 -0.06618,0.140644 -0.190283,0.256469 -0.115825,0.107551 -0.281288,0.165463 -0.388839,0.140644 -0.711493,0.256469 -0.322654,0.107551 -0.57085,0.190283 -0.347473,0.09928 -0.562576,0.148917 -0.215102,0.04137 -0.388839,0.04137 z"
         style="font-style:normal;font-variant:normal;font-weight:bold;font-stretch:normal;font-size:8.2731781px;font-family:'Redacted Script';-inkscape-font-specification:'Redacted Script Bold';fill:#00286b;fill-opacity:1;fill-rule:nonzero;stroke:none;stroke-opacity:1"
         id="path3368" />
      <path
         d="m 3.9706251,60.006594 q -0.1158245,0 -0.2564685,-0.04137 -0.2068294,-0.04964 -0.3557466,-0.18201 -0.1489172,-0.140644 -0.2233758,-0.330927 -0.1323709,-0.314381 0.00827,-0.711494 0.049639,-0.140644 0.1489172,-0.330927 0.016546,-0.03309 0.033093,-0.06618 0.02482,-0.04137 0.049639,-0.08273 -0.1902831,0.09928 -0.372293,0.215103 -0.1820099,0.107551 -0.372293,0.206829 -0.3392003,0.20683 -0.6535811,0.380566 -0.3061076,0.165464 -0.5708493,0.281288 -0.1571904,0.07446 -0.3226539,0.07446 -0.1571904,0 -0.30610761,-0.05791 -0.1489172,-0.05791 -0.2647417,-0.165464 -0.12409767,-0.115824 -0.19028309,-0.273015 -0.0744586,-0.15719 -0.0744586,-0.31438 0,-0.165464 0.0579123,-0.314381 0.0579123,-0.148917 0.17373674,-0.264742 0.10755132,-0.124098 0.2647417,-0.190283 0.1902831,-0.09101 0.46329802,-0.239922 0.281288,-0.157191 0.5956688,-0.3392 0.3640198,-0.215103 0.7611324,-0.438479 0.4053857,-0.231649 0.7942251,-0.397112 0.4384784,-0.215103 0.8190446,-0.289562 0.2647417,-0.06618 0.4881175,-0.07446 0.231649,-0.0083 0.4467516,0.04964 0.4550248,0.132371 0.6204884,0.562576 0.1240976,0.314381 0.033093,0.612215 -0.082732,0.297834 -0.2233758,0.562576 0.024819,-0.0083 0.049639,-0.0083 0.033093,-0.0083 0.057912,-0.02482 0.1571904,-0.05791 0.3143808,-0.04136 0.1654635,0.0083 0.3061076,0.07446 0.1489172,0.06619 0.2564685,0.190283 0.1158245,0.115825 0.1737367,0.273015 0.057912,0.165464 0.049639,0.330927 -0.00827,0.157191 -0.074459,0.306108 -0.066185,0.140644 -0.1902831,0.256468 -0.1158245,0.107552 -0.2812881,0.165464 -0.3888393,0.140644 -0.7114933,0.256468 -0.3226539,0.107552 -0.5708493,0.190284 -0.3474735,0.09928 -0.5625761,0.148917 -0.2151026,0.04137 -0.3888394,0.04137 z"
         style="font-style:normal;font-variant:normal;font-weight:bold;font-stretch:normal;font-size:8.2731781px;font-family:'Redacted Script';-inkscape-font-specification:'Redacted Script Bold';fill:#00286b;fill-opacity:1;fill-rule:nonzero;stroke:none;stroke-opacity:1"
         id="path3370" />
      <path
         d="m 8.8505075,60.006594 q -0.1158245,0 -0.2564685,-0.04137 -0.2068295,-0.04964 -0.3557467,-0.18201 -0.1489172,-0.140644 -0.2233758,-0.330927 -0.1323709,-0.314381 0.00827,-0.711494 0.049639,-0.140644 0.1489172,-0.330927 0.016546,-0.03309 0.033093,-0.06618 0.024819,-0.04137 0.049639,-0.08273 -0.1902831,0.09928 -0.3722931,0.215103 -0.1820099,0.107551 -0.372293,0.206829 -0.3392003,0.20683 -0.653581,0.380566 -0.3061076,0.165464 -0.5708493,0.281288 -0.1571904,0.07446 -0.322654,0.07446 -0.1571904,0 -0.3061076,-0.05791 -0.1489172,-0.05791 -0.2647417,-0.165464 -0.1240976,-0.115824 -0.1902831,-0.273015 -0.074459,-0.15719 -0.074459,-0.31438 0,-0.165464 0.057912,-0.314381 0.057912,-0.148917 0.1737367,-0.264742 0.1075513,-0.124098 0.2647417,-0.190283 0.1902831,-0.09101 0.463298,-0.239922 0.281288,-0.157191 0.5956688,-0.3392 0.3640198,-0.215103 0.7611324,-0.438479 0.4053857,-0.231649 0.7942251,-0.397112 0.4384784,-0.215103 0.8190446,-0.289562 0.2647417,-0.06618 0.4881175,-0.07446 0.231649,-0.0083 0.4467517,0.04964 0.4550249,0.132371 0.6204879,0.562576 0.124098,0.314381 0.03309,0.612215 -0.08273,0.297834 -0.223376,0.562576 0.02482,-0.0083 0.04964,-0.0083 0.03309,-0.0083 0.05791,-0.02482 0.15719,-0.05791 0.31438,-0.04136 0.165464,0.0083 0.306108,0.07446 0.148917,0.06619 0.256469,0.190283 0.115824,0.115825 0.173736,0.273015 0.05791,0.165464 0.04964,0.330927 -0.0083,0.157191 -0.07446,0.306108 -0.06619,0.140644 -0.190283,0.256468 -0.115825,0.107552 -0.281288,0.165464 -0.38884,0.140644 -0.711494,0.256468 -0.322654,0.107552 -0.570849,0.190284 -0.3474735,0.09928 -0.5625762,0.148917 -0.2151026,0.04137 -0.3888393,0.04137 z"
         style="font-style:normal;font-variant:normal;font-weight:bold;font-stretch:normal;font-size:8.2731781px;font-family:'Redacted Script';-inkscape-font-specification:'Redacted Script Bold';fill:#00286b;fill-opacity:1;fill-rule:nonzero;stroke:none;stroke-opacity:1"
         id="path3372" />
      <path
         d="m 13.73039,60.006594 q -0.115825,0 -0.256469,-0.04137 -0.206829,-0.04964 -0.355746,-0.18201 -0.148918,-0.140644 -0.223376,-0.330927 -0.132371,-0.314381 0.0083,-0.711494 0.04964,-0.140644 0.148917,-0.330927 0.01655,-0.03309 0.03309,-0.06618 0.02482,-0.04137 0.04964,-0.08273 -0.190283,0.09928 -0.372293,0.215103 -0.18201,0.107551 -0.372293,0.206829 -0.3392,0.20683 -0.653581,0.380566 -0.306108,0.165464 -0.570849,0.281288 -0.157191,0.07446 -0.322654,0.07446 -0.157191,0 -0.306108,-0.05791 -0.148917,-0.05791 -0.264742,-0.165464 -0.124097,-0.115824 -0.190283,-0.273015 -0.07446,-0.15719 -0.07446,-0.31438 0,-0.165464 0.05791,-0.314381 0.05791,-0.148917 0.173737,-0.264742 0.107551,-0.124098 0.264741,-0.190283 0.190283,-0.09101 0.463298,-0.239922 0.281288,-0.157191 0.595669,-0.3392 0.36402,-0.215103 0.761133,-0.438479 0.405385,-0.231649 0.794225,-0.397112 0.438478,-0.215103 0.819044,-0.289562 0.264742,-0.06618 0.488118,-0.07446 0.231649,-0.0083 0.446751,0.04964 0.455025,0.132371 0.620489,0.562576 0.124097,0.314381 0.03309,0.612215 -0.08273,0.297834 -0.223375,0.562576 0.02482,-0.0083 0.04964,-0.0083 0.03309,-0.0083 0.05791,-0.02482 0.15719,-0.05791 0.314381,-0.04136 0.165463,0.0083 0.306107,0.07446 0.148918,0.06619 0.256469,0.190283 0.115824,0.115825 0.173737,0.273015 0.05791,0.165464 0.04964,0.330927 -0.0083,0.157191 -0.07446,0.306108 -0.06618,0.140644 -0.190283,0.256468 -0.115825,0.107552 -0.281288,0.165464 -0.388839,0.140644 -0.711493,0.256468 -0.322654,0.107552 -0.57085,0.190284 -0.347473,0.09928 -0.562576,0.148917 -0.215102,0.04137 -0.388839,0.04137 z"
         style="font-style:normal;font-variant:normal;font-weight:bold;font-stretch:normal;font-size:8.2731781px;font-family:'Redacted Script';-inkscape-font-specification:'Redacted Script Bold';fill:#00286b;fill-opacity:1;fill-rule:nonzero;stroke:none;stroke-opacity:1"
         id="path3374" />
    </g>
    <rect
       width="24.898821"
       height="26.181017"
       rx="0.93957806"
       ry="0.98531413"
       x="3.6434014"
       y="35.152443"
       id="rect6741-5-0-2-3"
       style="fill:none;stroke:url(#linearGradient3647);stroke-width:0.48108721;stroke-linecap:round;stroke-linejoin:round;stroke-miterlimit:4;stroke-dasharray:none;stroke-dashoffset:0;stroke-opacity:1" />
  </g>
</svg>
