<svg width="128" height="128" viewBox="0 0 128 128" fill="none" xmlns="http://www.w3.org/2000/svg">
<g id="io.github.lainsce.Notejot">
<rect id="Rectangle 7" x="10" y="10" width="109" height="109" rx="24" fill="url(#paint0_linear_1135_5)"/>
<g id="Rectangle 2" filter="url(#filter0_di_1135_5)">
<rect x="24" y="51" width="63" height="4" rx="2" fill="black" fill-opacity="0.15" shape-rendering="crispEdges"/>
</g>
<g id="Rectangle 3" filter="url(#filter1_di_1135_5)">
<rect x="24" y="63" width="63" height="4" rx="2" fill="black" fill-opacity="0.15" shape-rendering="crispEdges"/>
</g>
<g id="Rectangle 4" filter="url(#filter2_di_1135_5)">
<rect x="24" y="75" width="54" height="4" rx="2" fill="black" fill-opacity="0.15" shape-rendering="crispEdges"/>
</g>
<g id="Rectangle 5" filter="url(#filter3_di_1135_5)">
<rect x="24" y="87" width="41" height="4" rx="2" fill="black" fill-opacity="0.15" shape-rendering="crispEdges"/>
</g>
<g id="NOTES" filter="url(#filter4_di_1135_5)">
<path d="M24.81 41V32.324H27.162L30.546 37.16V32.324H32.88V41H30.774L27.144 35.828V41H24.81ZM38.8934 41.12C38.0334 41.12 37.2874 40.938 36.6554 40.574C36.0274 40.206 35.5414 39.69 35.1974 39.026C34.8534 38.362 34.6814 37.58 34.6814 36.68C34.6814 35.776 34.8554 34.99 35.2034 34.322C35.5554 33.65 36.0474 33.13 36.6794 32.762C37.3114 32.39 38.0494 32.204 38.8934 32.204C39.7334 32.204 40.4674 32.39 41.0954 32.762C41.7234 33.13 42.2114 33.65 42.5594 34.322C42.9074 34.99 43.0814 35.776 43.0814 36.68C43.0814 37.576 42.9094 38.358 42.5654 39.026C42.2254 39.69 41.7414 40.206 41.1134 40.574C40.4854 40.938 39.7454 41.12 38.8934 41.12ZM38.8934 39.248C39.2134 39.248 39.4974 39.168 39.7454 39.008C39.9974 38.844 40.1934 38.578 40.3334 38.21C40.4774 37.838 40.5494 37.34 40.5494 36.716C40.5494 36.072 40.4774 35.558 40.3334 35.174C40.1934 34.786 39.9974 34.506 39.7454 34.334C39.4974 34.162 39.2134 34.076 38.8934 34.076C38.5734 34.076 38.2874 34.162 38.0354 34.334C37.7874 34.506 37.5914 34.786 37.4474 35.174C37.3034 35.558 37.2314 36.072 37.2314 36.716C37.2314 37.34 37.3034 37.838 37.4474 38.21C37.5914 38.578 37.7874 38.844 38.0354 39.008C38.2874 39.168 38.5734 39.248 38.8934 39.248ZM46.7133 41V34.376H44.2533V32.324H51.5373V34.376H49.0533V41H46.7133ZM53.0039 41V32.324H59.4119L59.3999 34.256H55.3559V35.696H58.7399V37.58H55.3379V39.056H59.4239V41H53.0039ZM64.9166 41.12C64.4686 41.12 64.0246 41.064 63.5846 40.952C63.1486 40.84 62.7466 40.67 62.3786 40.442C62.0146 40.214 61.7146 39.928 61.4786 39.584C61.2426 39.236 61.1066 38.828 61.0706 38.36H63.4466C63.4906 38.564 63.5786 38.738 63.7106 38.882C63.8426 39.026 64.0206 39.138 64.2446 39.218C64.4726 39.294 64.7446 39.332 65.0606 39.332C65.2486 39.332 65.4386 39.31 65.6306 39.266C65.8226 39.218 65.9826 39.14 66.1106 39.032C66.2426 38.92 66.3086 38.768 66.3086 38.576C66.3086 38.324 66.2046 38.152 65.9966 38.06C65.7886 37.964 65.5426 37.89 65.2586 37.838L63.7766 37.574C63.2606 37.482 62.8186 37.328 62.4506 37.112C62.0826 36.892 61.8006 36.606 61.6046 36.254C61.4126 35.902 61.3166 35.48 61.3166 34.988C61.3166 34.404 61.4786 33.906 61.8026 33.494C62.1266 33.078 62.5666 32.762 63.1226 32.546C63.6786 32.326 64.3026 32.216 64.9946 32.216C65.7506 32.216 66.3926 32.332 66.9206 32.564C67.4526 32.796 67.8606 33.118 68.1446 33.53C68.4286 33.942 68.5766 34.416 68.5886 34.952H66.2726C66.2486 34.732 66.1806 34.554 66.0686 34.418C65.9566 34.282 65.8046 34.182 65.6126 34.118C65.4246 34.05 65.1966 34.016 64.9286 34.016C64.4966 34.016 64.1946 34.092 64.0226 34.244C63.8506 34.396 63.7646 34.56 63.7646 34.736C63.7646 34.916 63.8346 35.07 63.9746 35.198C64.1186 35.322 64.3726 35.414 64.7366 35.474L66.0266 35.684C66.6306 35.78 67.1246 35.948 67.5086 36.188C67.8966 36.428 68.1826 36.728 68.3666 37.088C68.5506 37.448 68.6426 37.86 68.6426 38.324C68.6426 38.888 68.4786 39.38 68.1506 39.8C67.8266 40.216 67.3846 40.54 66.8246 40.772C66.2646 41.004 65.6286 41.12 64.9166 41.12Z" fill="black" fill-opacity="0.32" shape-rendering="crispEdges"/>
</g>
<g id="Vector 3" filter="url(#filter5_ddi_1135_5)">
<path d="M86 88V115L119 82H92C88.6863 82 86 84.6863 86 88Z" fill="url(#paint1_linear_1135_5)"/>
</g>
<g id="Intersect" filter="url(#filter6_di_1135_5)">
<path d="M107.575 13.5566C112.347 16.4982 116.011 21.0626 117.797 26.4814L88.0275 68.7129C87.8714 68.9342 87.6722 69.1217 87.4415 69.2637L73.7833 77.6709C72.3153 78.5746 70.4681 77.3222 70.7648 75.624L73.3634 60.7461C73.4161 60.4443 73.5373 60.1586 73.7179 59.9111L107.575 13.5566Z" fill="#FAFAFA"/>
</g>
<path id="rect34" d="M10.0865 94C10.0384 94.6475 10 95.2988 10 95.9608C10 108.724 21.1151 119 32.4375 119H96.5625C107.885 119 119 108.724 119 95.9608C119 95.2988 118.962 94.6475 118.914 94C118.035 105.837 109.298 115.078 98.5625 115.078H30.4375C19.7024 115.078 10.9653 105.837 10.0865 94Z" fill="black" fill-opacity="0.2"/>
<path id="rect34-9" d="M10.0865 35C10.0384 34.3525 10 33.7012 10 33.0392C10 20.2755 19.1151 10 30.4375 10H98.5625C109.885 10 119 20.2755 119 33.0392C119 33.7012 118.962 34.3525 118.914 35C118.035 23.1628 109.298 13.9216 98.5625 13.9216H30.4375C19.7024 13.9216 10.9653 23.1628 10.0865 35Z" fill="white" fill-opacity="0.2"/>
<path id="Vector 54" fill-rule="evenodd" clip-rule="evenodd" d="M86.5 115L119 82.5V93C119 101 114 107 114 107C114 107 108.5 115 100 115H86.5Z" fill="url(#paint2_linear_1135_5)" fill-opacity="0.32"/>
</g>
<defs>
<filter id="filter0_di_1135_5" x="24" y="50" width="63" height="7" filterUnits="userSpaceOnUse" color-interpolation-filters="sRGB">
<feFlood flood-opacity="0" result="BackgroundImageFix"/>
<feColorMatrix in="SourceAlpha" type="matrix" values="0 0 0 0 0 0 0 0 0 0 0 0 0 0 0 0 0 0 127 0" result="hardAlpha"/>
<feOffset dy="-1"/>
<feComposite in2="hardAlpha" operator="out"/>
<feColorMatrix type="matrix" values="0 0 0 0 1 0 0 0 0 1 0 0 0 0 1 0 0 0 0.25 0"/>
<feBlend mode="normal" in2="BackgroundImageFix" result="effect1_dropShadow_1135_5"/>
<feBlend mode="normal" in="SourceGraphic" in2="effect1_dropShadow_1135_5" result="shape"/>
<feColorMatrix in="SourceAlpha" type="matrix" values="0 0 0 0 0 0 0 0 0 0 0 0 0 0 0 0 0 0 127 0" result="hardAlpha"/>
<feOffset dy="2"/>
<feGaussianBlur stdDeviation="1"/>
<feComposite in2="hardAlpha" operator="arithmetic" k2="-1" k3="1"/>
<feColorMatrix type="matrix" values="0 0 0 0 0 0 0 0 0 0 0 0 0 0 0 0 0 0 0.25 0"/>
<feBlend mode="normal" in2="shape" result="effect2_innerShadow_1135_5"/>
</filter>
<filter id="filter1_di_1135_5" x="24" y="62" width="63" height="7" filterUnits="userSpaceOnUse" color-interpolation-filters="sRGB">
<feFlood flood-opacity="0" result="BackgroundImageFix"/>
<feColorMatrix in="SourceAlpha" type="matrix" values="0 0 0 0 0 0 0 0 0 0 0 0 0 0 0 0 0 0 127 0" result="hardAlpha"/>
<feOffset dy="-1"/>
<feComposite in2="hardAlpha" operator="out"/>
<feColorMatrix type="matrix" values="0 0 0 0 1 0 0 0 0 1 0 0 0 0 1 0 0 0 0.25 0"/>
<feBlend mode="normal" in2="BackgroundImageFix" result="effect1_dropShadow_1135_5"/>
<feBlend mode="normal" in="SourceGraphic" in2="effect1_dropShadow_1135_5" result="shape"/>
<feColorMatrix in="SourceAlpha" type="matrix" values="0 0 0 0 0 0 0 0 0 0 0 0 0 0 0 0 0 0 127 0" result="hardAlpha"/>
<feOffset dy="2"/>
<feGaussianBlur stdDeviation="1"/>
<feComposite in2="hardAlpha" operator="arithmetic" k2="-1" k3="1"/>
<feColorMatrix type="matrix" values="0 0 0 0 0 0 0 0 0 0 0 0 0 0 0 0 0 0 0.25 0"/>
<feBlend mode="normal" in2="shape" result="effect2_innerShadow_1135_5"/>
</filter>
<filter id="filter2_di_1135_5" x="24" y="74" width="54" height="7" filterUnits="userSpaceOnUse" color-interpolation-filters="sRGB">
<feFlood flood-opacity="0" result="BackgroundImageFix"/>
<feColorMatrix in="SourceAlpha" type="matrix" values="0 0 0 0 0 0 0 0 0 0 0 0 0 0 0 0 0 0 127 0" result="hardAlpha"/>
<feOffset dy="-1"/>
<feComposite in2="hardAlpha" operator="out"/>
<feColorMatrix type="matrix" values="0 0 0 0 1 0 0 0 0 1 0 0 0 0 1 0 0 0 0.25 0"/>
<feBlend mode="normal" in2="BackgroundImageFix" result="effect1_dropShadow_1135_5"/>
<feBlend mode="normal" in="SourceGraphic" in2="effect1_dropShadow_1135_5" result="shape"/>
<feColorMatrix in="SourceAlpha" type="matrix" values="0 0 0 0 0 0 0 0 0 0 0 0 0 0 0 0 0 0 127 0" result="hardAlpha"/>
<feOffset dy="2"/>
<feGaussianBlur stdDeviation="1"/>
<feComposite in2="hardAlpha" operator="arithmetic" k2="-1" k3="1"/>
<feColorMatrix type="matrix" values="0 0 0 0 0 0 0 0 0 0 0 0 0 0 0 0 0 0 0.25 0"/>
<feBlend mode="normal" in2="shape" result="effect2_innerShadow_1135_5"/>
</filter>
<filter id="filter3_di_1135_5" x="24" y="86" width="41" height="7" filterUnits="userSpaceOnUse" color-interpolation-filters="sRGB">
<feFlood flood-opacity="0" result="BackgroundImageFix"/>
<feColorMatrix in="SourceAlpha" type="matrix" values="0 0 0 0 0 0 0 0 0 0 0 0 0 0 0 0 0 0 127 0" result="hardAlpha"/>
<feOffset dy="-1"/>
<feComposite in2="hardAlpha" operator="out"/>
<feColorMatrix type="matrix" values="0 0 0 0 1 0 0 0 0 1 0 0 0 0 1 0 0 0 0.25 0"/>
<feBlend mode="normal" in2="BackgroundImageFix" result="effect1_dropShadow_1135_5"/>
<feBlend mode="normal" in="SourceGraphic" in2="effect1_dropShadow_1135_5" result="shape"/>
<feColorMatrix in="SourceAlpha" type="matrix" values="0 0 0 0 0 0 0 0 0 0 0 0 0 0 0 0 0 0 127 0" result="hardAlpha"/>
<feOffset dy="2"/>
<feGaussianBlur stdDeviation="1"/>
<feComposite in2="hardAlpha" operator="arithmetic" k2="-1" k3="1"/>
<feColorMatrix type="matrix" values="0 0 0 0 0 0 0 0 0 0 0 0 0 0 0 0 0 0 0.25 0"/>
<feBlend mode="normal" in2="shape" result="effect2_innerShadow_1135_5"/>
</filter>
<filter id="filter4_di_1135_5" x="24.8101" y="31.204" width="43.8325" height="11.916" filterUnits="userSpaceOnUse" color-interpolation-filters="sRGB">
<feFlood flood-opacity="0" result="BackgroundImageFix"/>
<feColorMatrix in="SourceAlpha" type="matrix" values="0 0 0 0 0 0 0 0 0 0 0 0 0 0 0 0 0 0 127 0" result="hardAlpha"/>
<feOffset dy="-1"/>
<feComposite in2="hardAlpha" operator="out"/>
<feColorMatrix type="matrix" values="0 0 0 0 1 0 0 0 0 1 0 0 0 0 1 0 0 0 0.25 0"/>
<feBlend mode="normal" in2="BackgroundImageFix" result="effect1_dropShadow_1135_5"/>
<feBlend mode="normal" in="SourceGraphic" in2="effect1_dropShadow_1135_5" result="shape"/>
<feColorMatrix in="SourceAlpha" type="matrix" values="0 0 0 0 0 0 0 0 0 0 0 0 0 0 0 0 0 0 127 0" result="hardAlpha"/>
<feOffset dy="2"/>
<feGaussianBlur stdDeviation="1"/>
<feComposite in2="hardAlpha" operator="arithmetic" k2="-1" k3="1"/>
<feColorMatrix type="matrix" values="0 0 0 0 0 0 0 0 0 0 0 0 0 0 0 0 0 0 0.25 0"/>
<feBlend mode="normal" in2="shape" result="effect2_innerShadow_1135_5"/>
</filter>
<filter id="filter5_ddi_1135_5" x="79" y="75" width="47" height="47" filterUnits="userSpaceOnUse" color-interpolation-filters="sRGB">
<feFlood flood-opacity="0" result="BackgroundImageFix"/>
<feColorMatrix in="SourceAlpha" type="matrix" values="0 0 0 0 0 0 0 0 0 0 0 0 0 0 0 0 0 0 127 0" result="hardAlpha"/>
<feOffset dx="2" dy="2"/>
<feGaussianBlur stdDeviation="1.5"/>
<feComposite in2="hardAlpha" operator="out"/>
<feColorMatrix type="matrix" values="0 0 0 0 0 0 0 0 0 0 0 0 0 0 0 0 0 0 0.14 0"/>
<feBlend mode="normal" in2="BackgroundImageFix" result="effect1_dropShadow_1135_5"/>
<feColorMatrix in="SourceAlpha" type="matrix" values="0 0 0 0 0 0 0 0 0 0 0 0 0 0 0 0 0 0 127 0" result="hardAlpha"/>
<feOffset/>
<feGaussianBlur stdDeviation="3.5"/>
<feComposite in2="hardAlpha" operator="out"/>
<feColorMatrix type="matrix" values="0 0 0 0 0 0 0 0 0 0 0 0 0 0 0 0 0 0 0.1 0"/>
<feBlend mode="normal" in2="effect1_dropShadow_1135_5" result="effect2_dropShadow_1135_5"/>
<feBlend mode="normal" in="SourceGraphic" in2="effect2_dropShadow_1135_5" result="shape"/>
<feColorMatrix in="SourceAlpha" type="matrix" values="0 0 0 0 0 0 0 0 0 0 0 0 0 0 0 0 0 0 127 0" result="hardAlpha"/>
<feOffset dx="1" dy="1"/>
<feComposite in2="hardAlpha" operator="arithmetic" k2="-1" k3="1"/>
<feColorMatrix type="matrix" values="0 0 0 0 1 0 0 0 0 1 0 0 0 0 1 0 0 0 0.3 0"/>
<feBlend mode="normal" in2="shape" result="effect3_innerShadow_1135_5"/>
</filter>
<filter id="filter6_di_1135_5" x="69.7332" y="11.5566" width="53.0638" height="71.4164" filterUnits="userSpaceOnUse" color-interpolation-filters="sRGB">
<feFlood flood-opacity="0" result="BackgroundImageFix"/>
<feColorMatrix in="SourceAlpha" type="matrix" values="0 0 0 0 0 0 0 0 0 0 0 0 0 0 0 0 0 0 127 0" result="hardAlpha"/>
<feOffset dx="2" dy="2"/>
<feGaussianBlur stdDeviation="1.5"/>
<feComposite in2="hardAlpha" operator="out"/>
<feColorMatrix type="matrix" values="0 0 0 0 0 0 0 0 0 0 0 0 0 0 0 0 0 0 0.14 0"/>
<feBlend mode="normal" in2="BackgroundImageFix" result="effect1_dropShadow_1135_5"/>
<feBlend mode="normal" in="SourceGraphic" in2="effect1_dropShadow_1135_5" result="shape"/>
<feColorMatrix in="SourceAlpha" type="matrix" values="0 0 0 0 0 0 0 0 0 0 0 0 0 0 0 0 0 0 127 0" result="hardAlpha"/>
<feOffset dy="-2"/>
<feGaussianBlur stdDeviation="1.5"/>
<feComposite in2="hardAlpha" operator="arithmetic" k2="-1" k3="1"/>
<feColorMatrix type="matrix" values="0 0 0 0 0 0 0 0 0 0 0 0 0 0 0 0 0 0 0.25 0"/>
<feBlend mode="normal" in2="shape" result="effect2_innerShadow_1135_5"/>
</filter>
<linearGradient id="paint0_linear_1135_5" x1="32.1406" y1="10" x2="94.3047" y2="119" gradientUnits="userSpaceOnUse">
<stop stop-color="#FED97C"/>
<stop offset="1" stop-color="#E0A101"/>
</linearGradient>
<linearGradient id="paint1_linear_1135_5" x1="86" y1="82" x2="103" y2="99" gradientUnits="userSpaceOnUse">
<stop stop-color="#FEBC16"/>
<stop offset="1" stop-color="#E0A101"/>
</linearGradient>
<linearGradient id="paint2_linear_1135_5" x1="88" y1="84" x2="113" y2="108" gradientUnits="userSpaceOnUse">
<stop/>
<stop offset="1" stop-opacity="0"/>
</linearGradient>
</defs>
</svg>
