<?xml version="1.0" encoding="UTF-8" standalone="no"?>
<svg
   xmlns:dc="http://purl.org/dc/elements/1.1/"
   xmlns:cc="http://creativecommons.org/ns#"
   xmlns:rdf="http://www.w3.org/1999/02/22-rdf-syntax-ns#"
   xmlns:svg="http://www.w3.org/2000/svg"
   xmlns="http://www.w3.org/2000/svg"
   xmlns:sodipodi="http://sodipodi.sourceforge.net/DTD/sodipodi-0.dtd"
   xmlns:inkscape="http://www.inkscape.org/namespaces/inkscape"
   height="128px"
   viewBox="0 0 128 128"
   width="128px"
   version="1.1"
   id="svg142"
   sodipodi:docname="io.github.lainsce.Notejot.svg"
   inkscape:version="1.0.2 (e86c870879, 2021-01-15)"
   inkscape:export-filename="/home/lains/Downloads/icon.png"
   inkscape:export-xdpi="96"
   inkscape:export-ydpi="96">
  <metadata
     id="metadata148">
    <rdf:RDF>
      <cc:Work
         rdf:about="">
        <dc:format>image/svg+xml</dc:format>
        <dc:type
           rdf:resource="http://purl.org/dc/dcmitype/StillImage" />
      </cc:Work>
    </rdf:RDF>
  </metadata>
  <defs
     id="defs146" />
  <sodipodi:namedview
     pagecolor="#ffffff"
     bordercolor="#666666"
     borderopacity="1"
     objecttolerance="10"
     gridtolerance="10"
     guidetolerance="10"
     inkscape:pageopacity="0"
     inkscape:pageshadow="2"
     inkscape:window-width="2560"
     inkscape:window-height="1011"
     id="namedview144"
     showgrid="false"
     inkscape:zoom="6.3555359"
     inkscape:cx="30.5756"
     inkscape:cy="64"
     inkscape:window-x="0"
     inkscape:window-y="0"
     inkscape:window-maximized="1"
     inkscape:current-layer="svg142"
     inkscape:document-rotation="0" />
  <linearGradient
     id="a"
     gradientUnits="userSpaceOnUse"
     x1="20"
     x2="108"
     y1="68.999999"
     y2="68.999999">
    <stop
       offset="0"
       stop-color="#865e3c"
       id="stop2" />
    <stop
       offset="0.0454543"
       stop-color="#b5835a"
       id="stop4" />
    <stop
       offset="0.090909"
       stop-color="#865e3c"
       id="stop6" />
    <stop
       offset="0.909093"
       stop-color="#865e3c"
       id="stop8" />
    <stop
       offset="0.954548"
       stop-color="#b5835a"
       id="stop10" />
    <stop
       offset="1"
       stop-color="#865e3c"
       id="stop12" />
  </linearGradient>
  <linearGradient
     id="b"
     gradientUnits="userSpaceOnUse"
     x1="20"
     x2="108"
     y1="67"
     y2="67">
    <stop
       offset="0"
       stop-color="#f5c211"
       id="stop15" />
    <stop
       offset="0.0454546"
       stop-color="#f8e45c"
       id="stop17" />
    <stop
       offset="0.0909091"
       stop-color="#f5c211"
       id="stop19" />
    <stop
       offset="0.909091"
       stop-color="#f5c211"
       id="stop21" />
    <stop
       offset="0.954545"
       stop-color="#f8e45c"
       id="stop23" />
    <stop
       offset="1"
       stop-color="#f5c211"
       id="stop25" />
  </linearGradient>
  <linearGradient
     id="c"
     gradientUnits="userSpaceOnUse"
     x1="64"
     x2="64"
     y1="8"
     y2="28">
    <stop
       offset="0"
       stop-color="#986a44"
       id="stop28" />
    <stop
       offset="1"
       stop-color="#865e3c"
       id="stop30" />
  </linearGradient>
  <filter
     id="d"
     height="100%"
     width="100%"
     x="0%"
     y="0%">
    <feColorMatrix
       in="SourceGraphic"
       type="matrix"
       values="0 0 0 0 1 0 0 0 0 1 0 0 0 0 1 0 0 0 1 0"
       id="feColorMatrix33" />
  </filter>
  <mask
     id="e">
    <g
       filter="url(#d)"
       id="g38">
      <rect
         fill-opacity="0.5"
         height="128"
         width="128"
         id="rect36" />
    </g>
  </mask>
  <clipPath
     id="f">
    <rect
       height="152"
       width="192"
       id="rect41" />
  </clipPath>
  <clipPath
     id="g">
    <path
       d="m 80 84 h 28 v 28 h -28 z m 0 0"
       id="path44" />
  </clipPath>
  <clipPath
     id="h">
    <path
       d="m 108 84 l -28 28 h -8 v -36 h 36 z m 0 0"
       id="path47" />
  </clipPath>
  <linearGradient
     id="i"
     gradientTransform="matrix(0 0.25 0.25 0 75 12)"
     gradientUnits="userSpaceOnUse"
     x1="344"
     x2="340"
     y1="76"
     y2="72">
    <stop
       offset="0"
       stop-color="#f6d32d"
       id="stop50" />
    <stop
       offset="1"
       stop-color="#fdfacb"
       id="stop52" />
  </linearGradient>
  <clipPath
     id="j">
    <path
       d="m 20 10 h 88 v 102 h -88 z m 0 0"
       id="path55" />
  </clipPath>
  <clipPath
     id="k">
    <path
       d="m 28 10 h 72 c 4.417969 0 8 3.582031 8 8 v 86 c 0 4.417969 -3.582031 8 -8 8 h -72 c -4.417969 0 -8 -3.582031 -8 -8 v -86 c 0 -4.417969 3.582031 -8 8 -8 z m 0 0"
       id="path58" />
  </clipPath>
  <mask
     id="l">
    <g
       filter="url(#d)"
       id="g63">
      <rect
         fill-opacity="0.2"
         height="128"
         width="128"
         id="rect61" />
    </g>
  </mask>
  <clipPath
     id="m">
    <rect
       height="152"
       width="192"
       id="rect66" />
  </clipPath>
  <linearGradient
     id="n"
     gradientTransform="matrix(0.848528 -0.848528 0.824958 0.824958 -128.994565 -20.7489)"
     gradientUnits="userSpaceOnUse"
     x1="115"
     x2="115"
     y1="183"
     y2="174">
    <stop
       offset="0"
       stop-color="#f66151"
       id="stop69" />
    <stop
       offset="1"
       stop-color="#f9988e"
       id="stop71" />
  </linearGradient>
  <linearGradient
     id="o"
     gradientTransform="matrix(0.0485366 -0.23068 0.23068 -0.0485366 87.697128 106.515963)"
     gradientUnits="userSpaceOnUse"
     x1="128.817169"
     x2="158.518021"
     y1="-97.698288"
     y2="-127.399147">
    <stop
       offset="0"
       stop-color="#d0bb8e"
       id="stop74" />
    <stop
       offset="1"
       stop-color="#ffffff"
       id="stop76" />
  </linearGradient>
  <linearGradient
     id="p"
     gradientTransform="matrix(0.707107 -0.707107 0.824958 0.824958 -113.721054 -36.022411)"
     gradientUnits="userSpaceOnUse"
     x1="110"
     x2="110"
     y1="182"
     y2="174">
    <stop
       offset="0"
       stop-color="#9a9996"
       id="stop79" />
    <stop
       offset="0.533151"
       stop-color="#deddda"
       id="stop81" />
    <stop
       offset="1"
       stop-color="#f6f5f4"
       id="stop83" />
  </linearGradient>
  <path
     d="m 28 18 h 72 c 4.417969 0 8 3.582031 8 8 v 86 c 0 4.417969 -3.582031 8 -8 8 h -72 c -4.417969 0 -8 -3.582031 -8 -8 v -86 c 0 -4.417969 3.582031 -8 8 -8 z m 0 0"
     fill="url(#a)"
     id="path86" />
  <path
     d="m 28 16 h 72 c 4.417969 0 8 3.582031 8 8 v 86 c 0 4.417969 -3.582031 8 -8 8 h -72 c -4.417969 0 -8 -3.582031 -8 -8 v -86 c 0 -4.417969 3.582031 -8 8 -8 z m 0 0"
     fill="url(#b)"
     id="path88" />
  <path
     d="m 28 10 h 72 c 4.417969 0 8 3.582031 8 8 v 86 c 0 4.417969 -3.582031 8 -8 8 h -72 c -4.417969 0 -8 -3.582031 -8 -8 v -86 c 0 -4.417969 3.582031 -8 8 -8 z m 0 0"
     fill="#f8e45c"
     id="path90" />
  <path
     d="m 28 8 c -4.433594 0 -8 3.566406 -8 8 v 12 h 88 v -12 c 0 -4.433594 -3.566406 -8 -8 -8 z m 0 0"
     fill="url(#c)"
     id="path92" />
  <g
     clip-path="url(#f)"
     fill="#e5a50a"
     fill-opacity="0.997061"
     mask="url(#e)"
     transform="matrix(1 0 0 1 -8 -16)"
     id="g106">
    <path
       d="m 28 55 h 88 v 1 h -88 z m 0 0"
       id="path94" />
    <path
       d="m 28 67 h 88 v 1 h -88 z m 0 0"
       id="path96" />
    <path
       d="m 28 79 h 88 v 1 h -88 z m 0 0"
       id="path98" />
    <path
       d="m 28 103 h 88 v 1 h -88 z m 0 0"
       id="path100" />
    <path
       d="m 28 91 h 88 v 1 h -88 z m 0 0"
       id="path102" />
    <path
       d="m 28 115 h 88 v 1 h -88 z m 0 0"
       id="path104" />
  </g>
  <path
     d="m 32 28 h 2 v 84 h -2 z m 0 0"
     fill="#e5a50a"
     id="path108" />
  <path
     d="m 32 118 h 2 v -6 h -2 z m 0 0"
     fill="#c48d09"
     id="path110"
     style="fill:#cf9609;fill-opacity:1" />
  <g
     clip-path="url(#g)"
     id="g116">
    <g
       clip-path="url(#h)"
       id="g114">
      <path
         d="m 80 92 v 20 c 0 4.417969 3.582031 8 8 8 h 20 c 4.417969 0 8 -3.582031 8 -8 v -20 c 0 -4.417969 -3.582031 -8 -8 -8 h -20 c -4.417969 0 -8 3.582031 -8 8 z m 0 0"
         fill="url(#i)"
         id="path112" />
    </g>
  </g>
  <path
     d="m 20 24 h 88 v 4 h -88 z m 0 0"
     fill="#63452c"
     id="path118" />
  <g
     clip-path="url(#j)"
     id="g126">
    <g
       clip-path="url(#k)"
       id="g124">
      <g
         clip-path="url(#m)"
         mask="url(#l)"
         transform="matrix(1 0 0 1 -8 -16)"
         id="g122">
        <path
           d="m 124.4375 57.402344 c -3.339844 -3.257813 -6.628906 -6.570313 -9.898438 -9.902344 l -42.425781 42.429688 l -2.207031 12.101562 l 12.105469 -2.203125 z m 0 0"
           id="path120" />
      </g>
    </g>
  </g>
  <path
     d="m 107.367188 26.675781 l 2.828124 -2.828125 c 1.5625 -1.5625 4.09375 -1.5625 5.65625 0 l 4.242188 4.242188 c 1.5625 1.5625 1.5625 4.09375 0 5.65625 l -2.828125 2.828125 c -1.5625 1.5625 -4.09375 1.5625 -5.65625 0 l -4.242187 -4.242188 c -1.5625 -1.5625 -1.5625 -4.09375 0 -5.65625 z m 0 0"
     fill="url(#n)"
     id="path128" />
  <path
     d="m 65.960938 82.929688 l -4.949219 -4.949219 l 1.101562 -6.050781 l 9.898438 9.898437 z m 0 0"
     fill="url(#o)"
     id="path130" />
  <path
     d="m 59.910156 84.03125 l 1.101563 -6.050781 l 4.949219 4.949219 z m 0 0"
     fill="#424048"
     id="path132" />
  <path
     d="m 70.882812 80.699219 l -6.222656 -6.222657 l 42.398438 -42.402343 l 6.222656 6.222656 z m 0 0"
     fill="#3584e4"
     id="path134"
     style="fill:#3d3846" />
  <path
     d="m 64.941406 74.757812 l -2.828125 -2.828124 l 42.425781 -42.425782 l 2.804688 2.851563 z m 0 0"
     fill="#62a0ea"
     id="path136"
     style="fill:#5e5c64" />
  <path
     d="m 69.183594 79 l 2.828125 2.828125 l 42.425781 -42.425781 l -2.851562 -2.804688 z m 0 0"
     fill="#1a5fb4"
     id="path138"
     style="fill:#241f31" />
  <path
     d="m 104.539062 29.503906 l 2.828126 -2.828125 l 9.898437 9.898438 l -2.828125 2.828125 z m 0 0"
     fill="url(#p)"
     id="path140" />
</svg>
