<svg width="129" height="128" viewBox="0 0 129 128" fill="none" xmlns="http://www.w3.org/2000/svg">
<g filter="url(#filter0_ii_1135_5)">
<rect width="128" height="128" rx="24" fill="url(#paint0_linear_1135_5)"/>
</g>
<rect x="15" y="39" width="70" height="8" rx="4" fill="black" fill-opacity="0.15"/>
<rect x="15" y="55" width="70" height="8" rx="4" fill="black" fill-opacity="0.15"/>
<rect x="15" y="71" width="60" height="8" rx="4" fill="black" fill-opacity="0.15"/>
<rect x="15" y="87" width="45" height="8" rx="4" fill="black" fill-opacity="0.15"/>
<path d="M73.9933 59.5343L115.116 3.23446C116.42 1.44882 118.926 1.06019 120.71 2.36686L126.831 6.85086C128.591 8.13954 128.993 10.6 127.737 12.3825L88.2645 68.3772C87.9523 68.82 87.5534 69.1949 87.092 69.4789L77.566 75.3427C74.6299 77.15 70.9355 74.6444 71.5288 71.248L73.2831 61.2054C73.3886 60.6013 73.6316 60.0295 73.9933 59.5343Z" fill="#FAFAFA"/>
<mask id="mask0_1135_5" style="mask-type:alpha" maskUnits="userSpaceOnUse" x="0" y="0" width="128" height="128">
<rect width="128" height="128" rx="24" fill="url(#paint1_linear_1135_5)"/>
</mask>
<g mask="url(#mask0_1135_5)">
<g filter="url(#filter1_ddi_1135_5)">
<path d="M84 86V124L128 80H90C86.6863 80 84 82.6863 84 86Z" fill="#FEBC16"/>
</g>
<path d="M128 100V80L84 124H104C117.255 124 128 113.255 128 100Z" fill="black" fill-opacity="0.08"/>
<g filter="url(#filter2_d_1135_5)">
<path d="M73.9933 59.5343L115.116 3.23446C116.42 1.44882 118.926 1.06019 120.71 2.36685L126.831 6.85086C128.591 8.13954 128.993 10.6 127.737 12.3825L88.2645 68.3772C87.9523 68.82 87.5534 69.1949 87.092 69.4789L77.566 75.3427C74.6299 77.15 70.9355 74.6444 71.5288 71.248L73.2831 61.2054C73.3886 60.6013 73.6316 60.0295 73.9933 59.5343Z" fill="white" fill-opacity="0.01" shape-rendering="crispEdges"/>
</g>
</g>
<defs>
<filter id="filter0_ii_1135_5" x="0" y="0" width="128" height="129" filterUnits="userSpaceOnUse" color-interpolation-filters="sRGB">
<feFlood flood-opacity="0" result="BackgroundImageFix"/>
<feBlend mode="normal" in="SourceGraphic" in2="BackgroundImageFix" result="shape"/>
<feColorMatrix in="SourceAlpha" type="matrix" values="0 0 0 0 0 0 0 0 0 0 0 0 0 0 0 0 0 0 127 0" result="hardAlpha"/>
<feOffset dy="-4"/>
<feComposite in2="hardAlpha" operator="arithmetic" k2="-1" k3="1"/>
<feColorMatrix type="matrix" values="0 0 0 0 0 0 0 0 0 0 0 0 0 0 0 0 0 0 0.25 0"/>
<feBlend mode="normal" in2="shape" result="effect1_innerShadow_1135_5"/>
<feColorMatrix in="SourceAlpha" type="matrix" values="0 0 0 0 0 0 0 0 0 0 0 0 0 0 0 0 0 0 127 0" result="hardAlpha"/>
<feMorphology radius="1" operator="erode" in="SourceAlpha" result="effect2_innerShadow_1135_5"/>
<feOffset dy="2"/>
<feComposite in2="hardAlpha" operator="arithmetic" k2="-1" k3="1"/>
<feColorMatrix type="matrix" values="0 0 0 0 1 0 0 0 0 1 0 0 0 0 1 0 0 0 0.25 0"/>
<feBlend mode="normal" in2="effect1_innerShadow_1135_5" result="effect2_innerShadow_1135_5"/>
</filter>
<filter id="filter1_ddi_1135_5" x="77" y="73" width="58" height="58" filterUnits="userSpaceOnUse" color-interpolation-filters="sRGB">
<feFlood flood-opacity="0" result="BackgroundImageFix"/>
<feColorMatrix in="SourceAlpha" type="matrix" values="0 0 0 0 0 0 0 0 0 0 0 0 0 0 0 0 0 0 127 0" result="hardAlpha"/>
<feOffset dx="2" dy="2"/>
<feGaussianBlur stdDeviation="1.5"/>
<feComposite in2="hardAlpha" operator="out"/>
<feColorMatrix type="matrix" values="0 0 0 0 0 0 0 0 0 0 0 0 0 0 0 0 0 0 0.14 0"/>
<feBlend mode="normal" in2="BackgroundImageFix" result="effect1_dropShadow_1135_5"/>
<feColorMatrix in="SourceAlpha" type="matrix" values="0 0 0 0 0 0 0 0 0 0 0 0 0 0 0 0 0 0 127 0" result="hardAlpha"/>
<feOffset/>
<feGaussianBlur stdDeviation="3.5"/>
<feComposite in2="hardAlpha" operator="out"/>
<feColorMatrix type="matrix" values="0 0 0 0 0 0 0 0 0 0 0 0 0 0 0 0 0 0 0.1 0"/>
<feBlend mode="normal" in2="effect1_dropShadow_1135_5" result="effect2_dropShadow_1135_5"/>
<feBlend mode="normal" in="SourceGraphic" in2="effect2_dropShadow_1135_5" result="shape"/>
<feColorMatrix in="SourceAlpha" type="matrix" values="0 0 0 0 0 0 0 0 0 0 0 0 0 0 0 0 0 0 127 0" result="hardAlpha"/>
<feOffset dx="1" dy="1"/>
<feComposite in2="hardAlpha" operator="arithmetic" k2="-1" k3="1"/>
<feColorMatrix type="matrix" values="0 0 0 0 1 0 0 0 0 1 0 0 0 0 1 0 0 0 0.3 0"/>
<feBlend mode="normal" in2="shape" result="effect3_innerShadow_1135_5"/>
</filter>
<filter id="filter2_d_1135_5" x="70.4655" y="0.593506" width="63.0023" height="80.3534" filterUnits="userSpaceOnUse" color-interpolation-filters="sRGB">
<feFlood flood-opacity="0" result="BackgroundImageFix"/>
<feColorMatrix in="SourceAlpha" type="matrix" values="0 0 0 0 0 0 0 0 0 0 0 0 0 0 0 0 0 0 127 0" result="hardAlpha"/>
<feOffset dx="2" dy="2"/>
<feGaussianBlur stdDeviation="1.5"/>
<feComposite in2="hardAlpha" operator="out"/>
<feColorMatrix type="matrix" values="0 0 0 0 0 0 0 0 0 0 0 0 0 0 0 0 0 0 0.14 0"/>
<feBlend mode="normal" in2="BackgroundImageFix" result="effect1_dropShadow_1135_5"/>
<feBlend mode="normal" in="SourceGraphic" in2="effect1_dropShadow_1135_5" result="shape"/>
</filter>
<linearGradient id="paint0_linear_1135_5" x1="26" y1="9.53674e-07" x2="99" y2="128" gradientUnits="userSpaceOnUse">
<stop stop-color="#FED97C"/>
<stop offset="1" stop-color="#E0A101"/>
</linearGradient>
<linearGradient id="paint1_linear_1135_5" x1="26" y1="9.53674e-07" x2="99" y2="128" gradientUnits="userSpaceOnUse">
<stop stop-color="#FED97C"/>
<stop offset="1" stop-color="#E0A101"/>
</linearGradient>
</defs>
</svg>
