<svg width="128" height="128" viewBox="0 0 128 128" fill="none" xmlns="http://www.w3.org/2000/svg">
<g filter="url(#filter0_i_619_2)">
<rect x="12" y="12" width="104" height="104" rx="24" fill="#FECB49"/>
<rect x="12" y="12" width="104" height="104" rx="24" fill="url(#paint0_linear_619_2)"/>
</g>
<path d="M12 40H83C84.1046 40 85 40.8954 85 42V42C85 43.1046 84.1046 44 83 44H12V40Z" fill="url(#paint1_linear_619_2)" fill-opacity="0.55"/>
<path d="M12 62H109C110.105 62 111 62.8954 111 64V64C111 65.1046 110.105 66 109 66H12V62Z" fill="url(#paint2_linear_619_2)" fill-opacity="0.55"/>
<path d="M12 84H46C47.1046 84 48 84.8954 48 86V86C48 87.1046 47.1046 88 46 88H12V84Z" fill="url(#paint3_linear_619_2)" fill-opacity="0.55"/>
<g filter="url(#filter1_f_619_2)">
<path d="M60.3695 77.4478L108.299 53.8692C109.785 53.0667 115.347 60.7323 113.775 61.6838L65.8453 85.2624C62.9994 86.7159 56.4098 87.6797 54.3143 85.251C52.3301 82.9514 57.0622 78.8315 60.3695 77.4478Z" fill="url(#paint4_linear_619_2)" fill-opacity="0.3"/>
<path d="M60.3695 77.4478L108.299 53.8692C109.785 53.0667 115.347 60.7323 113.775 61.6838L65.8453 85.2624C62.9994 86.7159 56.4098 87.6797 54.3143 85.251C52.3301 82.9514 57.0622 78.8315 60.3695 77.4478Z" fill="url(#paint5_linear_619_2)" fill-opacity="0.1"/>
</g>
<g filter="url(#filter2_ii_619_2)">
<path d="M54.3269 71.5028L111.79 18.9184C113.563 17.1832 121.495 26.3586 119.631 28.3453L62.1676 80.9297C58.7621 84.1305 57.3473 85.2679 46.5001 86.5C48.3473 77.7679 50.3322 74.774 54.3269 71.5028Z" fill="url(#paint6_radial_619_2)"/>
</g>
<g filter="url(#filter3_f_619_2)">
<path d="M54.3269 71.5028L111.79 18.9184C113.563 17.1832 121.495 26.3586 119.631 28.3453L62.1676 80.9297C58.7621 84.1305 57.5 83.5 47.6528 85.2321C49.5 76.5 50.3322 74.774 54.3269 71.5028Z" fill="url(#paint7_angular_619_2)" fill-opacity="0.4"/>
</g>
<defs>
<filter id="filter0_i_619_2" x="12" y="12" width="104" height="104" filterUnits="userSpaceOnUse" color-interpolation-filters="sRGB">
<feFlood flood-opacity="0" result="BackgroundImageFix"/>
<feBlend mode="normal" in="SourceGraphic" in2="BackgroundImageFix" result="shape"/>
<feColorMatrix in="SourceAlpha" type="matrix" values="0 0 0 0 0 0 0 0 0 0 0 0 0 0 0 0 0 0 127 0" result="hardAlpha"/>
<feOffset dy="-4"/>
<feComposite in2="hardAlpha" operator="arithmetic" k2="-1" k3="1"/>
<feColorMatrix type="matrix" values="0 0 0 0 0.176471 0 0 0 0 0.176471 0 0 0 0 0.176471 0 0 0 0.2 0"/>
<feBlend mode="normal" in2="shape" result="effect1_innerShadow_619_2"/>
</filter>
<filter id="filter1_f_619_2" x="41.8441" y="41.8104" width="84.2079" height="56.9234" filterUnits="userSpaceOnUse" color-interpolation-filters="sRGB">
<feFlood flood-opacity="0" result="BackgroundImageFix"/>
<feBlend mode="normal" in="SourceGraphic" in2="BackgroundImageFix" result="shape"/>
<feGaussianBlur stdDeviation="6" result="effect1_foregroundBlur_619_2"/>
</filter>
<filter id="filter2_ii_619_2" x="46.5001" y="17.7012" width="73.4125" height="69.7987" filterUnits="userSpaceOnUse" color-interpolation-filters="sRGB">
<feFlood flood-opacity="0" result="BackgroundImageFix"/>
<feBlend mode="normal" in="SourceGraphic" in2="BackgroundImageFix" result="shape"/>
<feColorMatrix in="SourceAlpha" type="matrix" values="0 0 0 0 0 0 0 0 0 0 0 0 0 0 0 0 0 0 127 0" result="hardAlpha"/>
<feOffset dy="-1"/>
<feGaussianBlur stdDeviation="2"/>
<feComposite in2="hardAlpha" operator="arithmetic" k2="-1" k3="1"/>
<feColorMatrix type="matrix" values="0 0 0 0 0.176471 0 0 0 0 0.176471 0 0 0 0 0.176471 0 0 0 0.25 0"/>
<feBlend mode="normal" in2="shape" result="effect1_innerShadow_619_2"/>
<feColorMatrix in="SourceAlpha" type="matrix" values="0 0 0 0 0 0 0 0 0 0 0 0 0 0 0 0 0 0 127 0" result="hardAlpha"/>
<feOffset dy="1"/>
<feGaussianBlur stdDeviation="2"/>
<feComposite in2="hardAlpha" operator="arithmetic" k2="-1" k3="1"/>
<feColorMatrix type="matrix" values="0 0 0 0 1 0 0 0 0 1 0 0 0 0 1 0 0 0 0.25 0"/>
<feBlend mode="normal" in2="effect1_innerShadow_619_2" result="effect2_innerShadow_619_2"/>
</filter>
<filter id="filter3_f_619_2" x="43.6527" y="14.7013" width="80.2599" height="74.5308" filterUnits="userSpaceOnUse" color-interpolation-filters="sRGB">
<feFlood flood-opacity="0" result="BackgroundImageFix"/>
<feBlend mode="normal" in="SourceGraphic" in2="BackgroundImageFix" result="shape"/>
<feGaussianBlur stdDeviation="2" result="effect1_foregroundBlur_619_2"/>
</filter>
<linearGradient id="paint0_linear_619_2" x1="64" y1="12" x2="64" y2="116" gradientUnits="userSpaceOnUse">
<stop stop-color="#2D2D2D" stop-opacity="0"/>
<stop offset="1" stop-color="#2D2D2D" stop-opacity="0.2"/>
</linearGradient>
<linearGradient id="paint1_linear_619_2" x1="12" y1="42.4" x2="107.5" y2="42" gradientUnits="userSpaceOnUse">
<stop stop-color="white" stop-opacity="0.2"/>
<stop offset="0.380208" stop-color="white"/>
<stop offset="1" stop-color="white" stop-opacity="0"/>
</linearGradient>
<linearGradient id="paint2_linear_619_2" x1="12" y1="64.4" x2="111" y2="64" gradientUnits="userSpaceOnUse">
<stop stop-color="white" stop-opacity="0.2"/>
<stop offset="0.369126" stop-color="white"/>
<stop offset="0.989583" stop-color="white" stop-opacity="0"/>
</linearGradient>
<linearGradient id="paint3_linear_619_2" x1="12" y1="86.4" x2="115" y2="86" gradientUnits="userSpaceOnUse">
<stop stop-color="white" stop-opacity="0.2"/>
<stop offset="0.349845" stop-color="white" stop-opacity="0.625"/>
<stop offset="1" stop-color="white" stop-opacity="0"/>
</linearGradient>
<linearGradient id="paint4_linear_619_2" x1="48" y1="86.5" x2="139.5" y2="50" gradientUnits="userSpaceOnUse">
<stop stop-color="#2D2D2D"/>
<stop offset="1" stop-color="#2D2D2D" stop-opacity="0"/>
</linearGradient>
<linearGradient id="paint5_linear_619_2" x1="77.5" y1="76" x2="51.5" y2="86.5" gradientUnits="userSpaceOnUse">
<stop stop-color="#2D2D2D"/>
<stop offset="1" stop-color="#2D2D2D"/>
</linearGradient>
<radialGradient id="paint6_radial_619_2" cx="0" cy="0" r="1" gradientUnits="userSpaceOnUse" gradientTransform="translate(68.8556 59.1936) rotate(-31.3619) scale(59.1822 20.2994)">
<stop stop-color="#F0F0F2"/>
<stop offset="1" stop-color="#E5E5EB"/>
</radialGradient>
<radialGradient id="paint7_angular_619_2" cx="0" cy="0" r="1" gradientUnits="userSpaceOnUse" gradientTransform="translate(117 22.5) rotate(137.342) scale(95.1853 41.0141)">
<stop stop-color="#FECB49" stop-opacity="0.7"/>
<stop offset="1" stop-color="#FECB49" stop-opacity="0"/>
</radialGradient>
</defs>
</svg>
