<?xml version="1.0" encoding="UTF-8"?>
<svg height="16px" viewBox="0 0 16 16" width="16px" xmlns="http://www.w3.org/2000/svg" xmlns:xlink="http://www.w3.org/1999/xlink">
    <filter id="a" height="100%" width="100%" x="0%" y="0%">
        <feColorMatrix in="SourceGraphic" type="matrix" values="0 0 0 0 1 0 0 0 0 1 0 0 0 0 1 0 0 0 1 0"/>
    </filter>
    <mask id="b">
        <g filter="url(#a)">
            <rect fill-opacity="0.5" height="16" width="16"/>
        </g>
    </mask>
    <clipPath id="c">
        <rect height="152" width="192"/>
    </clipPath>
    <g clip-path="url(#c)" fill="#e5a50a" fill-opacity="0.997061" mask="url(#b)" transform="matrix(1 0 0 1 -168 -16)">
        <path d="m 28 55 h 88 v 1 h -88 z m 0 0"/>
        <path d="m 28 67 h 88 v 1 h -88 z m 0 0"/>
        <path d="m 28 79 h 88 v 1 h -88 z m 0 0"/>
        <path d="m 28 103 h 88 v 1 h -88 z m 0 0"/>
        <path d="m 28 91 h 88 v 1 h -88 z m 0 0"/>
        <path d="m 28 115 h 88 v 1 h -88 z m 0 0"/>
    </g>
    <g fill="#241f31">
        <path d="m 4 1 c -1.109375 0 -2 0.890625 -2 2 v 10 c 0 1.109375 0.890625 2 2 2 h 7 c 1.109375 0 2 -0.890625 2 -2 v -4 l -2 2 v 2 h -7 v -10 h 7 l 1.417969 -1.417969 c -0.363281 -0.359375 -0.863281 -0.582031 -1.417969 -0.582031 z m 0 0"/>
        <path d="m 7 11 h 2 l 6 -6 l -2 -2 l -6 6 z m 0 0"/>
        <path d="m 5 3 h 1 v 10 h -1 z m 0 0"/>
    </g>
</svg>
