<?xml version="1.0" encoding="UTF-8" standalone="no"?>
<svg
   width="16"
   height="16"
   viewBox="0 0 16 16"
   fill="none"
   version="1.1"
   id="svg4"
   sodipodi:docname="quote-symbolic.svg"
   inkscape:version="1.4.2 (ebf0e940d0, 2025-05-08)"
   xmlns:inkscape="http://www.inkscape.org/namespaces/inkscape"
   xmlns:sodipodi="http://sodipodi.sourceforge.net/DTD/sodipodi-0.dtd"
   xmlns="http://www.w3.org/2000/svg"
   xmlns:svg="http://www.w3.org/2000/svg">
  <sodipodi:namedview
     id="namedview4"
     pagecolor="#ffffff"
     bordercolor="#111111"
     borderopacity="1"
     inkscape:showpageshadow="0"
     inkscape:pageopacity="0"
     inkscape:pagecheckerboard="1"
     inkscape:deskcolor="#d1d1d1"
     showgrid="true"
     inkscape:zoom="39.7"
     inkscape:cx="13.992443"
     inkscape:cy="8.9546599"
     inkscape:window-width="2560"
     inkscape:window-height="1368"
     inkscape:window-x="0"
     inkscape:window-y="0"
     inkscape:window-maximized="1"
     inkscape:current-layer="svg4">
    <inkscape:grid
       id="grid4"
       units="px"
       originx="0"
       originy="0"
       spacingx="1"
       spacingy="1"
       empcolor="#0099e5"
       empopacity="0.30196078"
       color="#0099e5"
       opacity="0.14901961"
       empspacing="5"
       enabled="true"
       visible="true" />
  </sodipodi:namedview>
  <defs
     id="defs4">
    <filter
       id="filter0_d_6_139"
       x="0"
       y="0"
       width="28"
       height="30"
       filterUnits="userSpaceOnUse"
       color-interpolation-filters="sRGB">
      <feFlood
         flood-opacity="0"
         result="BackgroundImageFix"
         id="feFlood2" />
      <feColorMatrix
         in="SourceAlpha"
         type="matrix"
         values="0 0 0 0 0 0 0 0 0 0 0 0 0 0 0 0 0 0 127 0"
         result="hardAlpha"
         id="feColorMatrix2" />
      <feOffset
         dy="4"
         id="feOffset2" />
      <feGaussianBlur
         stdDeviation="1"
         id="feGaussianBlur2" />
      <feComposite
         in2="hardAlpha"
         operator="out"
         id="feComposite2" />
      <feColorMatrix
         type="matrix"
         values="0 0 0 0 0 0 0 0 0 0 0 0 0 0 0 0 0 0 0.25 0"
         id="feColorMatrix3" />
      <feBlend
         mode="normal"
         in2="BackgroundImageFix"
         result="effect1_dropShadow_6_139"
         id="feBlend3" />
      <feBlend
         mode="normal"
         in="SourceGraphic"
         in2="effect1_dropShadow_6_139"
         result="shape"
         id="feBlend4" />
    </filter>
  </defs>
  <path
     id="path4"
     style="baseline-shift:baseline;display:inline;overflow:visible;vector-effect:none;fill:#241f31;stroke-linecap:round;stroke-linejoin:round;enable-background:accumulate;stop-color:#000000;stop-opacity:1;opacity:1"
     d="M 4.5 1 C 2.5729257 1 1 2.5729257 1 4.5 C 1 6.4270743 2.5729257 8 4.5 8 C 5.4774652 8 6.3638151 7.5956268 7 6.9453125 L 7 9.5 C 7 9.5 6.99311 10.146601 6.6777344 10.777344 C 6.3623629 11.408087 5.8333333 12 4.5 12 A 0.5 0.5 0 0 0 4 12.5 A 0.5 0.5 0 0 0 4.5 13 C 6.1666667 13 7.1376371 12.091913 7.5722656 11.222656 C 8.0068941 10.353399 8 9.5 8 9.5 L 8 4.5 A 0.5 0.5 0 0 0 7.9960938 4.4355469 C 7.9611719 2.5382543 6.405343 1 4.5 1 z M 8 4.5 C 8 6.4270743 9.5729257 8 11.5 8 C 12.477465 8 13.363815 7.5956269 14 6.9453125 L 14 9.5 C 14 9.5 13.9931 10.146601 13.677734 10.777344 C 13.362363 11.408087 12.833333 12 11.5 12 A 0.5 0.5 0 0 0 11 12.5 A 0.5 0.5 0 0 0 11.5 13 C 13.166667 13 14.137637 12.091913 14.572266 11.222656 C 15.006894 10.353399 15 9.5 15 9.5 L 15 4.5 A 0.5 0.5 0 0 0 14.996094 4.4355469 C 14.961172 2.5382543 13.405343 1 11.5 1 C 9.5729257 1 8 2.5729257 8 4.5 z M 4.5 2 C 5.8866342 2 7 3.1133658 7 4.5 C 7 5.8866342 5.8866342 7 4.5 7 C 3.1133658 7 2 5.8866342 2 4.5 C 2 3.1133658 3.1133658 2 4.5 2 z M 11.5 2 C 12.886634 2 14 3.1133658 14 4.5 C 14 5.8866342 12.886634 7 11.5 7 C 10.113366 7 9 5.8866342 9 4.5 C 9 3.1133658 10.113366 2 11.5 2 z " />
</svg>
