<?xml version="1.0" encoding="UTF-8" standalone="no"?>
<svg
   width="16"
   height="16"
   viewBox="0 0 16 16"
   fill="none"
   version="1.1"
   id="svg4"
   sodipodi:docname="quote-symbolic.svg"
   inkscape:version="1.4.2 (ebf0e940d0, 2025-05-08)"
   xmlns:inkscape="http://www.inkscape.org/namespaces/inkscape"
   xmlns:sodipodi="http://sodipodi.sourceforge.net/DTD/sodipodi-0.dtd"
   xmlns="http://www.w3.org/2000/svg"
   xmlns:svg="http://www.w3.org/2000/svg">
  <path
     id="path4"
     style="baseline-shift:baseline;display:inline;overflow:visible;vector-effect:none;fill:#241f31;stroke-linecap:square;enable-background:accumulate;stop-color:#000000;stop-opacity:1;opacity:1"
     d="M 12 1 L 12 8.5 L 12 8.9980469 L 12 9 C 12 9 12.000703 10.101565 11.214844 11.232422 C 10.428984 12.363279 8.8800832 13.537109 5.5 13.537109 L 5 13.537109 L 5 14.537109 L 5.5 14.537109 C 9.1199169 14.537109 11.071016 13.190139 12.035156 11.802734 C 12.999297 10.415329 13 9 13 9 L 13 8.9980469 L 13 8.5 L 13 1 L 12 1 z " />
  <sodipodi:namedview
     id="namedview4"
     pagecolor="#ffffff"
     bordercolor="#111111"
     borderopacity="1"
     inkscape:showpageshadow="0"
     inkscape:pageopacity="0"
     inkscape:pagecheckerboard="1"
     inkscape:deskcolor="#d1d1d1"
     showgrid="true"
     inkscape:zoom="32"
     inkscape:cx="7.640625"
     inkscape:cy="7.109375"
     inkscape:window-width="2560"
     inkscape:window-height="1368"
     inkscape:window-x="0"
     inkscape:window-y="0"
     inkscape:window-maximized="1"
     inkscape:current-layer="svg4">
    <inkscape:grid
       id="grid4"
       units="px"
       originx="0"
       originy="0"
       spacingx="1"
       spacingy="1"
       empcolor="#0099e5"
       empopacity="0.30196078"
       color="#0099e5"
       opacity="0.14901961"
       empspacing="5"
       enabled="true"
       visible="true" />
  </sodipodi:namedview>
  <defs
     id="defs4">
    <filter
       id="filter0_d_6_139"
       x="0"
       y="0"
       width="28"
       height="30"
       filterUnits="userSpaceOnUse"
       color-interpolation-filters="sRGB">
      <feFlood
         flood-opacity="0"
         result="BackgroundImageFix"
         id="feFlood2" />
      <feColorMatrix
         in="SourceAlpha"
         type="matrix"
         values="0 0 0 0 0 0 0 0 0 0 0 0 0 0 0 0 0 0 127 0"
         result="hardAlpha"
         id="feColorMatrix2" />
      <feOffset
         dy="4"
         id="feOffset2" />
      <feGaussianBlur
         stdDeviation="1"
         id="feGaussianBlur2" />
      <feComposite
         in2="hardAlpha"
         operator="out"
         id="feComposite2" />
      <feColorMatrix
         type="matrix"
         values="0 0 0 0 0 0 0 0 0 0 0 0 0 0 0 0 0 0 0.25 0"
         id="feColorMatrix3" />
      <feBlend
         mode="normal"
         in2="BackgroundImageFix"
         result="effect1_dropShadow_6_139"
         id="feBlend3" />
      <feBlend
         mode="normal"
         in="SourceGraphic"
         in2="effect1_dropShadow_6_139"
         result="shape"
         id="feBlend4" />
    </filter>
  </defs>
  <path
     id="rect4-5"
     style="fill:#241f31;stroke-width:0.999996;stroke-linecap:round;stroke-linejoin:round"
     d="m 9.7148438,1 c 0,0 -1.1357511,-0.0134588 -2.2988282,0.4667969 C 6.2529385,1.9470526 5,3.0399331 5,5 5,7.0048993 6.2494684,8.1112943 7.4160156,8.5898438 8.5825629,9.068393 10,9.0429688 10,9.0429688 v 0 0 l 1,-0.00391 V 8.3671875 5 3.3320312 1 H 9.9472656 Z M 10,2 V 2 L 10,3.3320312 10,5 V 8 H 9.6992188 c 0,0 -0.9647436,0.051445 -1.9042969,-0.3339844 C 6.8553675,7.2805853 6,6.6172674 6,5 6,3.4386559 6.8538515,2.7819697 7.796875,2.3925781 8.7398985,2.0031866 10,2 10,2 Z"
     sodipodi:nodetypes="csssccccccccccccccccsssc" />
</svg>
