<?xml version="1.0" encoding="UTF-8" standalone="no"?>
<svg
   xmlns:dc="http://purl.org/dc/elements/1.1/"
   xmlns:cc="http://creativecommons.org/ns#"
   xmlns:rdf="http://www.w3.org/1999/02/22-rdf-syntax-ns#"
   xmlns:svg="http://www.w3.org/2000/svg"
   xmlns="http://www.w3.org/2000/svg"
   xmlns:xlink="http://www.w3.org/1999/xlink"
   xmlns:sodipodi="http://sodipodi.sourceforge.net/DTD/sodipodi-0.dtd"
   xmlns:inkscape="http://www.inkscape.org/namespaces/inkscape"
   id="svg13986"
   height="64"
   width="64"
   version="1.1"
   inkscape:version="0.92.5 (2060ec1f9f, 2020-04-08)"
   sodipodi:docname="com.github.lainsce.notejot.svg"
   inkscape:export-filename="/home/lains/Documents/Projects/notejot/data/icon.png"
   inkscape:export-xdpi="90"
   inkscape:export-ydpi="90">
  <sodipodi:namedview
     pagecolor="#ffffff"
     bordercolor="#666666"
     borderopacity="1"
     objecttolerance="10"
     gridtolerance="10"
     guidetolerance="10"
     inkscape:pageopacity="0"
     inkscape:pageshadow="2"
     inkscape:window-width="2560"
     inkscape:window-height="964"
     id="namedview69"
     showgrid="true"
     showguides="true"
     inkscape:guide-bbox="true"
     inkscape:zoom="8"
     inkscape:cx="-41.871851"
     inkscape:cy="27.877518"
     inkscape:window-x="0"
     inkscape:window-y="30"
     inkscape:window-maximized="1"
     inkscape:current-layer="svg13986">
    <inkscape:grid
       type="xygrid"
       id="grid4245" />
  </sodipodi:namedview>
  <defs
     id="defs13988">
    <linearGradient
       id="linearGradient10669">
      <stop
         id="stop10671"
         style="stop-color:#d7bb4b;stop-opacity:1"
         offset="0" />
      <stop
         id="stop10673"
         style="stop-color:#fff6d6;stop-opacity:1"
         offset="1" />
    </linearGradient>
    <linearGradient
       id="linearGradient10655">
      <stop
         offset="0"
         style="stop-color:#ffd943;stop-opacity:1"
         id="stop10657" />
      <stop
         offset="1"
         style="stop-color:#c9a000;stop-opacity:1"
         id="stop10659" />
    </linearGradient>
    <linearGradient
       id="linearGradient4242">
      <stop
         id="stop4244"
         style="stop-color:#d4aa00;stop-opacity:0.75657892"
         offset="0" />
      <stop
         id="stop4246"
         style="stop-color:#aa8800;stop-opacity:0.69736844"
         offset="1" />
    </linearGradient>
    <linearGradient
       id="linearGradient4253">
      <stop
         id="stop4255"
         style="stop-color:#ffffff;stop-opacity:1"
         offset="0" />
      <stop
         id="stop4257"
         style="stop-color:#ffffff;stop-opacity:0.47368422"
         offset="0.18527266" />
      <stop
         id="stop4259"
         style="stop-color:#ffffff;stop-opacity:0.15686275"
         offset="0.95056331" />
      <stop
         id="stop4261"
         style="stop-color:#ffffff;stop-opacity:0.39215687"
         offset="1" />
    </linearGradient>
    <linearGradient
       id="linearGradient5739">
      <stop
         id="stop5741"
         style="stop-color:#fff394;stop-opacity:1"
         offset="0" />
      <stop
         id="stop5745"
         style="stop-color:#f9c440;stop-opacity:1"
         offset="1" />
    </linearGradient>
    <linearGradient
       id="linearGradient5391">
      <stop
         id="stop5393"
         style="stop-color:#ffeeaa;stop-opacity:1"
         offset="0" />
      <stop
         id="stop5395"
         style="stop-color:#ffffff;stop-opacity:0.23529412"
         offset="0.06316455" />
      <stop
         id="stop5397"
         style="stop-color:#ffffff;stop-opacity:0.15686275"
         offset="0.95056331" />
      <stop
         id="stop5399"
         style="stop-color:#fff7cb;stop-opacity:0.39215687"
         offset="1" />
    </linearGradient>
    <linearGradient
       id="linearGradient4431">
      <stop
         offset="0"
         style="stop-color:#d4aa00;stop-opacity:1"
         id="stop4579" />
      <stop
         offset="1"
         style="stop-color:#aa8800;stop-opacity:1"
         id="stop4581" />
    </linearGradient>
    <linearGradient
       id="linearGradient4583">
      <stop
         id="stop4433"
         style="stop-color:#828282;stop-opacity:1"
         offset="0" />
      <stop
         id="stop4435"
         style="stop-color:#cecece;stop-opacity:1"
         offset="1" />
    </linearGradient>
    <linearGradient
       id="linearGradient27416-1-2">
      <stop
         offset="0"
         style="stop-color:#55c1ec;stop-opacity:1"
         id="stop27420-2-0" />
      <stop
         offset="1"
         style="stop-color:#3689e6;stop-opacity:1"
         id="stop27422-3-5" />
    </linearGradient>
    <linearGradient
       id="linearGradient3924-2-2-5-8">
      <stop
         offset="0"
         style="stop-color:#ffffff;stop-opacity:1"
         id="stop3926-9-4-9-6" />
      <stop
         offset="0.06316455"
         style="stop-color:#ffffff;stop-opacity:0.23529412"
         id="stop3928-9-8-6-5" />
      <stop
         offset="0.95056331"
         style="stop-color:#ffffff;stop-opacity:0.15686275"
         id="stop3930-3-5-1-7" />
      <stop
         offset="1"
         style="stop-color:#ffffff;stop-opacity:0.39215687"
         id="stop3932-8-0-4-8" />
    </linearGradient>
    <radialGradient
       gradientTransform="matrix(2.003784,0,0,1.4,27.98813,-17.4)"
       gradientUnits="userSpaceOnUse"
       xlink:href="#linearGradient3688-166-749-4-0-3-8"
       id="radialGradient3337-2-2"
       fy="43.5"
       fx="4.9929786"
       r="2.5"
       cy="43.5"
       cx="4.9929786" />
    <linearGradient
       id="linearGradient3688-166-749-4-0-3-8">
      <stop
         offset="0"
         style="stop-color:#181818;stop-opacity:1"
         id="stop2883-4-0-1-8" />
      <stop
         offset="1"
         style="stop-color:#181818;stop-opacity:0"
         id="stop2885-9-2-9-6" />
    </linearGradient>
    <radialGradient
       gradientTransform="matrix(2.003784,0,0,1.4,-20.01187,-104.4)"
       gradientUnits="userSpaceOnUse"
       xlink:href="#linearGradient3688-464-309-9-2-4-2"
       id="radialGradient3339-1-4"
       fy="43.5"
       fx="4.9929786"
       r="2.5"
       cy="43.5"
       cx="4.9929786" />
    <linearGradient
       id="linearGradient3688-464-309-9-2-4-2">
      <stop
         offset="0"
         style="stop-color:#181818;stop-opacity:1"
         id="stop2889-7-9-6-9" />
      <stop
         offset="1"
         style="stop-color:#181818;stop-opacity:0"
         id="stop2891-6-6-1-7" />
    </linearGradient>
    <linearGradient
       id="linearGradient3702-501-757-8-4-1-1">
      <stop
         offset="0"
         style="stop-color:#181818;stop-opacity:0"
         id="stop2895-8-9-9-1" />
      <stop
         offset="0.5"
         style="stop-color:#181818;stop-opacity:1"
         id="stop2897-7-8-7-7" />
      <stop
         offset="1"
         style="stop-color:#181818;stop-opacity:0"
         id="stop2899-4-5-1-5" />
    </linearGradient>
    <linearGradient
       gradientUnits="userSpaceOnUse"
       xlink:href="#linearGradient3702-501-757-8-4-1-1"
       id="linearGradient13984"
       y2="39.999443"
       x2="25.058096"
       y1="47.027729"
       x1="25.058096" />
    <linearGradient
       id="linearGradient4632-92-3-0-8-1">
      <stop
         offset="0"
         style="stop-color:#fafafa;stop-opacity:1"
         id="stop4634-68-8-0-2-9" />
      <stop
         offset="1"
         style="stop-color:#e1e1e1;stop-opacity:1"
         id="stop4636-8-21-7-1-4" />
    </linearGradient>
    <linearGradient
       id="linearGradient4215-8-4-07-7">
      <stop
         style="stop-color:#e9e9e9;stop-opacity:1;"
         offset="0"
         id="stop4217-1-2-1-2" />
      <stop
         style="stop-color:#ffffff;stop-opacity:1;"
         offset="1"
         id="stop4219-3-4-0-96" />
    </linearGradient>
    <linearGradient
       id="linearGradient4011-9-9-70-61-7">
      <stop
         id="stop4013-5-4-3-8-3"
         style="stop-color:#ffffff;stop-opacity:1;"
         offset="0" />
      <stop
         offset="0.507761"
         style="stop-color:#ffffff;stop-opacity:0.23529412;"
         id="stop4015-1-5-70-9-5" />
      <stop
         id="stop4017-7-0-13-0-1"
         style="stop-color:#ffffff;stop-opacity:0.15686275;"
         offset="0.83456558" />
      <stop
         id="stop4019-1-12-7-0-7"
         style="stop-color:#ffffff;stop-opacity:0.39215687;"
         offset="1" />
    </linearGradient>
    <linearGradient
       y2="55.052982"
       x2="30.271185"
       y1="10.028973"
       x1="30.271185"
       gradientTransform="matrix(1.111111,0,0,1.25,-3.5555565,-7.9999992)"
       gradientUnits="userSpaceOnUse"
       id="linearGradient3643"
       xlink:href="#linearGradient27416-1-2" />
    <linearGradient
       y2="43"
       x2="23.99999"
       y1="4.999989"
       x1="23.99999"
       gradientTransform="matrix(1.4310558,0,0,1.4739044,-2.3741724,-2.6463965)"
       gradientUnits="userSpaceOnUse"
       id="linearGradient3647"
       xlink:href="#linearGradient5391" />
    <radialGradient
       r="27.5"
       fy="4.3419166"
       fx="31.999998"
       cy="4.3419166"
       cx="31.999998"
       gradientTransform="matrix(0,1.7327521,-1.732752,0,31.523424,-52.376973)"
       gradientUnits="userSpaceOnUse"
       id="radialGradient3651"
       xlink:href="#linearGradient4632-92-3-0-8-1" />
    <linearGradient
       y2="44.340794"
       x2="71.204407"
       y1="6.2375584"
       x1="71.204407"
       gradientTransform="matrix(-0.45945942,0,0,0.45945942,74.958504,20.349516)"
       gradientUnits="userSpaceOnUse"
       id="linearGradient3659"
       xlink:href="#linearGradient4011-9-9-70-61-7" />
    <linearGradient
       y2="8.0928917"
       x2="38.976662"
       y1="59.967686"
       x1="38.976662"
       gradientTransform="matrix(-0.37254354,0,0,0.37254354,53.921253,19.33366)"
       gradientUnits="userSpaceOnUse"
       id="linearGradient3662"
       xlink:href="#linearGradient4215-8-4-07-7" />
    <radialGradient
       cx="62.625"
       cy="4.625"
       r="10.625"
       fx="62.625"
       fy="4.625"
       id="radialGradient3384-6-7"
       xlink:href="#linearGradient23419"
       gradientUnits="userSpaceOnUse"
       gradientTransform="matrix(0.31730659,0,0,0.09065887,175.35645,59.950771)" />
    <linearGradient
       id="linearGradient23419">
      <stop
         id="stop23421"
         style="stop-color:#000000;stop-opacity:1"
         offset="0" />
      <stop
         id="stop23423"
         style="stop-color:#000000;stop-opacity:0"
         offset="1" />
    </linearGradient>
    <radialGradient
       cx="62.625"
       cy="4.625"
       r="10.625"
       fx="62.625"
       fy="4.625"
       id="radialGradient3384-6-7-7"
       xlink:href="#linearGradient23419"
       gradientUnits="userSpaceOnUse"
       gradientTransform="matrix(0.31730659,0,0,0.09065887,175.35645,59.950771)" />
    <radialGradient
       cx="4.9929786"
       cy="43.5"
       r="2.5"
       fx="4.9929786"
       fy="43.5"
       id="radialGradient3013"
       xlink:href="#linearGradient3688-166-749-4-0-3-8"
       gradientUnits="userSpaceOnUse"
       gradientTransform="matrix(2.003784,0,0,1.4,27.98813,-17.4)" />
    <radialGradient
       cx="4.9929786"
       cy="43.5"
       r="2.5"
       fx="4.9929786"
       fy="43.5"
       id="radialGradient3015"
       xlink:href="#linearGradient3688-166-749-4-0-3-8"
       gradientUnits="userSpaceOnUse"
       gradientTransform="matrix(2.003784,0,0,1.4,-20.01187,-104.4)" />
    <linearGradient
       x1="25.058096"
       y1="47.027729"
       x2="25.058096"
       y2="39.999443"
       id="linearGradient4387"
       xlink:href="#linearGradient3702-501-757-8-4-1-1"
       gradientUnits="userSpaceOnUse" />
    <linearGradient
       xlink:href="#linearGradient4011-9-9-70-61-7"
       id="linearGradient3590"
       gradientUnits="userSpaceOnUse"
       gradientTransform="matrix(-0.29729724,0,0,0.29729724,52.326181,17.461356)"
       x1="71.204407"
       y1="6.2375584"
       x2="71.204407"
       y2="44.340794" />
    <linearGradient
       xlink:href="#linearGradient4215-8-4-07-7"
       id="linearGradient3593"
       gradientUnits="userSpaceOnUse"
       gradientTransform="matrix(-0.25490196,0,0,0.25490196,39.156863,16.333328)"
       x1="38.976662"
       y1="59.967686"
       x2="38.976662"
       y2="8.0928917" />
    <linearGradient
       xlink:href="#linearGradient23419"
       id="linearGradient3847"
       gradientUnits="userSpaceOnUse"
       gradientTransform="matrix(0.80749834,0,0,0.83374395,106.87671,-0.0698511)"
       x1="-95.837799"
       y1="54.199703"
       x2="-95.837799"
       y2="5.1757793" />
    <linearGradient
       xlink:href="#linearGradient3924-2-2-5-8"
       id="linearGradient3850"
       gradientUnits="userSpaceOnUse"
       gradientTransform="translate(4e-6,1.0000062)"
       x1="23.99999"
       y1="4.999989"
       x2="23.99999"
       y2="43" />
    <linearGradient
       xlink:href="#linearGradient27416-1-2"
       id="linearGradient3853"
       gradientUnits="userSpaceOnUse"
       gradientTransform="matrix(0.78787871,0,0,0.88636364,-1.212111,-3.363642)"
       x1="30.271185"
       y1="10.028973"
       x2="30.271185"
       y2="55.052982" />
    <radialGradient
       xlink:href="#linearGradient4632-92-3-0-8-1"
       id="radialGradient3857"
       gradientUnits="userSpaceOnUse"
       gradientTransform="matrix(0,1.6257921,-1.625792,0,31.059051,-46.134567)"
       cx="31.999998"
       cy="4.3419166"
       fx="31.999998"
       fy="4.3419166"
       r="27.5" />
    <radialGradient
       cx="4.9929786"
       cy="43.5"
       r="2.5"
       fx="4.9929786"
       fy="43.5"
       id="radialGradient3337-2-2-2"
       xlink:href="#linearGradient3688-166-749-4-0-3-8"
       gradientUnits="userSpaceOnUse"
       gradientTransform="matrix(2.003784,0,0,1.4,27.98813,-17.4)" />
    <radialGradient
       cx="4.9929786"
       cy="43.5"
       r="2.5"
       fx="4.9929786"
       fy="43.5"
       id="radialGradient3339-1-4-8"
       xlink:href="#linearGradient3688-166-749-4-0-3-8"
       gradientUnits="userSpaceOnUse"
       gradientTransform="matrix(2.003784,0,0,1.4,-20.01187,-104.4)" />
    <linearGradient
       x1="25.058096"
       y1="47.027729"
       x2="25.058096"
       y2="39.999443"
       id="linearGradient4512"
       xlink:href="#linearGradient3702-501-757-8-4-1-1"
       gradientUnits="userSpaceOnUse" />
    <linearGradient
       xlink:href="#linearGradient27416-1-2"
       id="linearGradient4514"
       gradientUnits="userSpaceOnUse"
       gradientTransform="matrix(1.111111,0,0,1.25,-3.5555565,-7.9999992)"
       x1="30.271185"
       y1="10.028973"
       x2="30.271185"
       y2="55.052982" />
    <linearGradient
       xlink:href="#linearGradient3924-2-2-5-8"
       id="linearGradient4516"
       gradientUnits="userSpaceOnUse"
       gradientTransform="matrix(1.4324324,0,0,1.4362832,-2.378381,-2.4707781)"
       x1="23.99999"
       y1="4.999989"
       x2="23.99999"
       y2="43" />
    <radialGradient
       xlink:href="#linearGradient4632-92-3-0-8-1"
       id="radialGradient3651-7"
       gradientUnits="userSpaceOnUse"
       gradientTransform="matrix(1.0056172e-8,2.3103361,-2.310336,1.0056172e-8,42.031285,-69.085963)"
       cx="31.999998"
       cy="4.3419166"
       fx="31.999998"
       fy="4.3419166"
       r="27.5" />
    <linearGradient
       xlink:href="#linearGradient4011-9-9-70-61-7"
       id="linearGradient4519"
       gradientUnits="userSpaceOnUse"
       gradientTransform="matrix(-0.45945942,0,0,0.45945942,74.958504,20.349516)"
       x1="71.204407"
       y1="6.2375584"
       x2="71.204407"
       y2="44.340794" />
    <linearGradient
       xlink:href="#linearGradient4215-8-4-07-7"
       id="linearGradient4521"
       gradientUnits="userSpaceOnUse"
       gradientTransform="matrix(-0.37254354,0,0,0.37254354,53.921253,19.33366)"
       x1="38.976662"
       y1="59.967686"
       x2="38.976662"
       y2="8.0928917" />
    <radialGradient
       gradientTransform="matrix(0.31730659,0,0,0.09065887,175.35645,59.950771)"
       gradientUnits="userSpaceOnUse"
       xlink:href="#linearGradient23419"
       id="radialGradient3384-6-7-3"
       fy="4.625"
       fx="62.625"
       r="10.625"
       cy="4.625"
       cx="62.625" />
    <radialGradient
       gradientTransform="matrix(0.31730659,0,0,0.09065887,175.35645,59.950771)"
       gradientUnits="userSpaceOnUse"
       xlink:href="#linearGradient23419"
       id="radialGradient3384-6-7-7-2"
       fy="4.625"
       fx="62.625"
       r="10.625"
       cy="4.625"
       cx="62.625" />
    <radialGradient
       gradientTransform="matrix(2.003784,0,0,1.4,27.98813,-17.4)"
       gradientUnits="userSpaceOnUse"
       xlink:href="#linearGradient3688-166-749-4-0-3-8"
       id="radialGradient3337-2-2-6"
       fy="43.5"
       fx="4.9929786"
       r="2.5"
       cy="43.5"
       cx="4.9929786" />
    <radialGradient
       gradientTransform="matrix(2.003784,0,0,1.4,-20.01187,-104.4)"
       gradientUnits="userSpaceOnUse"
       xlink:href="#linearGradient3688-166-749-4-0-3-8"
       id="radialGradient3339-1-4-3"
       fy="43.5"
       fx="4.9929786"
       r="2.5"
       cy="43.5"
       cx="4.9929786" />
    <linearGradient
       x1="38.856056"
       y1="26.320496"
       x2="38.856056"
       y2="32.521935"
       id="linearGradient4225-5"
       xlink:href="#linearGradient23419"
       gradientUnits="userSpaceOnUse"
       gradientTransform="matrix(0.99215968,0,0,-0.9932415,0.2541701,63.794029)" />
    <linearGradient
       y2="42.091705"
       x2="23.99999"
       y1="5.9093657"
       x1="23.99999"
       gradientTransform="matrix(1.4324324,0,0,1.4362832,-2.3783747,-2.4707846)"
       gradientUnits="userSpaceOnUse"
       id="linearGradient3904"
       xlink:href="#linearGradient4270" />
    <linearGradient
       id="linearGradient4270">
      <stop
         id="stop4272"
         style="stop-color:#ffffff;stop-opacity:1"
         offset="0" />
      <stop
         id="stop4274"
         style="stop-color:#ffffff;stop-opacity:0.23529412"
         offset="0.0348749" />
      <stop
         id="stop4276"
         style="stop-color:#ffffff;stop-opacity:0.15686275"
         offset="0.96216321" />
      <stop
         id="stop4278"
         style="stop-color:#ffffff;stop-opacity:0.39215687"
         offset="1" />
    </linearGradient>
    <radialGradient
       r="12.671875"
       fy="9.9571075"
       fx="6.2001843"
       cy="9.9571075"
       cx="6.7304144"
       gradientTransform="matrix(0,13.637511,-16.742506,0,199.90027,-117.56447)"
       gradientUnits="userSpaceOnUse"
       id="radialGradient4147"
       xlink:href="#linearGradient5739" />
    <linearGradient
       id="linearGradient2867-449-88-871-390-598-476-591-434-148-57-177-8-3-3-6-4-8-8-8-5">
      <stop
         id="stop3750-1-0-7-6-6-1-3-9-3"
         style="stop-color:#919caf;stop-opacity:1;"
         offset="0" />
      <stop
         id="stop3752-3-7-4-0-32-8-923-0-7"
         style="stop-color:#68758e;stop-opacity:1;"
         offset="0.26238" />
      <stop
         id="stop3754-1-8-5-2-7-6-7-1-9"
         style="stop-color:#485a6c;stop-opacity:1;"
         offset="0.704952" />
      <stop
         id="stop3756-1-6-2-6-6-1-96-6-0"
         style="stop-color:#444c5c;stop-opacity:1;"
         offset="1" />
    </linearGradient>
    <radialGradient
       gradientTransform="matrix(2.003784,0,0,1.4,27.98813,-17.4)"
       gradientUnits="userSpaceOnUse"
       xlink:href="#linearGradient3688-166-749-4-0-3-8"
       id="radialGradient2873-966-168-714"
       fy="43.5"
       fx="4.9929786"
       r="2.5"
       cy="43.5"
       cx="4.9929786" />
    <radialGradient
       gradientTransform="matrix(2.003784,0,0,1.4,-20.01187,-104.4)"
       gradientUnits="userSpaceOnUse"
       xlink:href="#linearGradient3688-166-749-4-0-3-8"
       id="radialGradient2875-742-326-419"
       fy="43.5"
       fx="4.9929786"
       r="2.5"
       cy="43.5"
       cx="4.9929786" />
    <filter
       inkscape:collect="always"
       style="color-interpolation-filters:sRGB"
       id="filter1078"
       x="-0.077910776"
       width="1.1558216"
       y="-0.081534533"
       height="1.1630691">
      <feGaussianBlur
         inkscape:collect="always"
         stdDeviation="1.460827"
         id="feGaussianBlur1080" />
    </filter>
    <filter
       inkscape:collect="always"
       style="color-interpolation-filters:sRGB"
       id="filter1082"
       x="-0.088717614"
       width="1.1774352"
       y="-0.064500779"
       height="1.1290016">
      <feGaussianBlur
         inkscape:collect="always"
         stdDeviation="1.460827"
         id="feGaussianBlur1084" />
    </filter>
    <filter
       inkscape:collect="always"
       style="color-interpolation-filters:sRGB"
       id="filter1086"
       x="-0.073347411"
       width="1.1466948"
       y="-0.064497794"
       height="1.1289956">
      <feGaussianBlur
         inkscape:collect="always"
         stdDeviation="1.460827"
         id="feGaussianBlur1088" />
    </filter>
  </defs>
  <metadata
     id="metadata13991">
    <rdf:RDF>
      <cc:Work
         rdf:about="">
        <dc:format>image/svg+xml</dc:format>
        <dc:type
           rdf:resource="http://purl.org/dc/dcmitype/StillImage" />
        <dc:title />
      </cc:Work>
    </rdf:RDF>
  </metadata>
  <rect
     style="opacity:0.24800002;fill:#161300;fill-opacity:1;stroke:#000000;stroke-width:1.08299148;stroke-linecap:round;stroke-linejoin:round;stroke-miterlimit:4;stroke-dasharray:none;stroke-opacity:1;filter:url(#filter1078)"
     id="rect959-3"
     width="45"
     height="43"
     x="11.159411"
     y="14.652124"
     transform="matrix(0.91576951,0,0,0.93103023,1.9912252,6.059949)" />
  <rect
     style="opacity:1;fill:#fff394;fill-opacity:1;stroke:#ffe16b;stroke-width:1;stroke-linecap:round;stroke-linejoin:round;stroke-miterlimit:4;stroke-dasharray:none;stroke-opacity:1"
     id="rect959"
     width="41"
     height="44"
     x="12.5"
     y="14.5" />
  <path
     style="clip-rule:evenodd;opacity:0.24800002;fill:#5f5000;fill-opacity:1;fill-rule:evenodd;stroke:#000000;stroke-width:1.01955581;stroke-linejoin:round;stroke-miterlimit:4;stroke-dasharray:none;stroke-opacity:1;filter:url(#filter1082)"
     d="M 13.605415,6.1383128 3.505985,49.012006 25.257383,55.637792 15.712433,15.115447 29.39221,10.946049 Z M 43.024461,52.745072 29.39221,56.898309 41.202601,60.494012 Z"
     id="path1092-6"
     inkscape:connector-curvature="0"
     transform="matrix(0.96839716,0,0,0.99340091,0.11079908,0.39920522)" />
  <g
     id="layer4-0"
     transform="matrix(0.9047486,0,0,0.9047486,-570.51497,-675.56047)" />
  <g
     id="layer4-0-7"
     transform="matrix(0.9047486,0,0,0.9047486,-570.51497,-668.32248)" />
  <g
     id="layer1-3"
     transform="matrix(0.9047486,0,0,0.9047486,-73.807987,0.496663)" />
  <path
     style="clip-rule:evenodd;fill:#fff394;fill-rule:evenodd;stroke:#ffe16b;stroke-width:1;stroke-linejoin:round;stroke-miterlimit:4;stroke-dasharray:none"
     d="M 12.446004,5.4861881 2.3465739,48.359881 24.097972,54.985667 14.553022,14.463322 28.232799,10.293924 Z M 41.86505,52.092947 28.232799,56.246184 40.04319,59.841887 Z"
     id="path1092"
     inkscape:connector-curvature="0" />
  <path
     style="clip-rule:evenodd;opacity:0.24800002;fill:#5f5000;fill-opacity:1;fill-rule:evenodd;stroke:#000000;stroke-width:1.01955581;stroke-linejoin:round;stroke-miterlimit:4;stroke-dasharray:none;stroke-opacity:1;filter:url(#filter1086)"
     inkscape:connector-curvature="0"
     d="m 29.390794,10.948997 -13.681627,4.168982 9.547428,40.520185 0.553837,2.35079 3.580362,-1.091 L 43.028148,52.742429 63.508876,46.501715 53.407491,3.6307393 C 42.132002,7.1079255 39.498122,7.8691429 29.390794,10.948997 Z"
     id="path1090-7"
     sodipodi:nodetypes="ccccccccc"
     transform="matrix(0.96839716,0,0,0.99340091,0.11079908,0.39920522)" />
  <path
     style="clip-rule:evenodd;fill:#ffe16b;fill-rule:evenodd;stroke:#f9c440;stroke-width:1;stroke-linejoin:round;stroke-miterlimit:4;stroke-dasharray:none"
     inkscape:connector-curvature="0"
     d="m 28.231383,10.296872 -13.681627,4.168982 9.547428,40.520185 0.553837,2.35079 3.580362,-1.091 L 41.868737,52.090304 62.349465,45.84959 52.24808,2.9786146 C 40.972591,6.4558008 38.338711,7.2170182 28.231383,10.296872 Z"
     id="path1090"
     sodipodi:nodetypes="ccccccccc" />
  <g
     aria-label="notejot is the best software ever made"
     style="font-style:normal;font-variant:normal;font-weight:normal;font-stretch:normal;font-size:10.66666698px;line-height:1.25;font-family:'Redacted Script';-inkscape-font-specification:'Redacted Script';letter-spacing:0px;word-spacing:0px;fill:#0e141f;fill-opacity:0.51707315;stroke:none;stroke-width:1.70526063"
     id="text973"
     transform="matrix(0.56438649,-0.15921636,0.15921244,0.56440037,84.517143,3.5268031)">
    <path
       d="m -110.17476,7.6906667 q -0.128,0 -0.21333,-0.074667 -0.17067,-0.1386667 -0.096,-0.352 0,-0.010667 0.0747,-0.256 0.0853,-0.2453334 0.192,-0.5546667 0.0533,-0.1813334 0.096,-0.3093334 0.0427,-0.1386666 0.0747,-0.2453333 -0.224,0.085333 -0.512,0.192 -0.288,0.1066667 -0.61866,0.2346667 -0.32,0.1173333 -0.66134,0.2453333 -0.34133,0.128 -0.66133,0.2453334 -0.11733,0.042667 -0.23467,-0.010667 -0.128,-0.064 -0.18133,-0.192 -0.0427,-0.1173333 0.0213,-0.2346667 0.0533,-0.128 0.18134,-0.1813333 0.48,-0.1706667 0.992,-0.3626667 0.52266,-0.192 0.94933,-0.352 0.42667,-0.16 0.704,-0.2666667 0.288,-0.1066667 0.288,-0.1066667 0.0533,-0.010667 0.096,-0.010667 0.0533,-0.010667 0.10667,0.010667 0.14933,0.021333 0.21333,0.1706667 0.0533,0.085333 0.0427,0.224 0,0.128 -0.0533,0.3733334 -0.032,0.1386666 -0.0853,0.3093333 -0.0427,0.16 -0.11733,0.3733334 -0.0107,0.042667 -0.0213,0.074667 -0.0107,0.032 -0.0213,0.074667 0.42667,-0.2346667 1.04533,-0.4906667 0.11734,-0.053333 0.23467,0 0.11733,0.042667 0.17067,0.16 0.064,0.1173334 0.0107,0.2453334 -0.0533,0.128 -0.17066,0.1813333 -0.36267,0.16 -0.672,0.3093333 -0.30934,0.1493334 -0.53334,0.2666667 -0.26666,0.1386667 -0.48,0.256 -0.064,0.053333 -0.16,0.053333 z"
       style="fill:#0e141f;stroke-width:1.70526063;fill-opacity:0.51707315"
       id="path996"
       inkscape:connector-curvature="0" />
    <path
       d="m -106.02543,7.6906667 q -0.128,0 -0.21333,-0.074667 -0.17067,-0.1386667 -0.096,-0.352 0,-0.010667 0.0747,-0.256 0.0853,-0.2453334 0.192,-0.5546667 0.0533,-0.1813334 0.096,-0.3093334 0.0427,-0.1386666 0.0747,-0.2453333 -0.224,0.085333 -0.512,0.192 -0.288,0.1066667 -0.61866,0.2346667 -0.32,0.1173333 -0.66134,0.2453333 -0.34133,0.128 -0.66133,0.2453334 -0.11733,0.042667 -0.23467,-0.010667 -0.128,-0.064 -0.18133,-0.192 -0.0427,-0.1173333 0.0213,-0.2346667 0.0533,-0.128 0.18134,-0.1813333 0.48,-0.1706667 0.992,-0.3626667 0.52266,-0.192 0.94933,-0.352 0.42667,-0.16 0.704,-0.2666667 0.288,-0.1066667 0.288,-0.1066667 0.0533,-0.010667 0.096,-0.010667 0.0533,-0.010667 0.10667,0.010667 0.14933,0.021333 0.21333,0.1706667 0.0533,0.085333 0.0427,0.224 0,0.128 -0.0533,0.3733334 -0.032,0.1386666 -0.0853,0.3093333 -0.0427,0.16 -0.11733,0.3733334 -0.0107,0.042667 -0.0213,0.074667 -0.0107,0.032 -0.0213,0.074667 0.42667,-0.2346667 1.04534,-0.4906667 0.11733,-0.053333 0.23466,0 0.11734,0.042667 0.17067,0.16 0.064,0.1173334 0.0107,0.2453334 -0.0533,0.128 -0.17067,0.1813333 -0.36267,0.16 -0.672,0.3093333 -0.30934,0.1493334 -0.53334,0.2666667 -0.26666,0.1386667 -0.48,0.256 -0.064,0.053333 -0.16,0.053333 z"
       style="fill:#0e141f;stroke-width:1.70526063;fill-opacity:0.51707315"
       id="path998"
       inkscape:connector-curvature="0" />
    <path
       d="m -100.56409,7.584 q -0.0747,0 -0.13867,-0.021333 -0.20267,-0.042667 -0.288,-0.2453334 -0.064,-0.1813333 0.032,-0.4053333 0.096,-0.224 0.27733,-0.5013334 0.064,-0.096 0.11734,-0.192 0.064,-0.1066667 0.10666,-0.192 0.032,-0.042667 0.0533,-0.1066667 -0.32,-0.053333 -0.74667,-0.021333 -0.416,0.021333 -0.93867,0.16 -0.46933,0.1173333 -0.992,0.3093334 -0.52266,0.1813333 -1.10933,0.4373333 -0.11733,0.053333 -0.23467,0.010667 -0.11733,-0.053333 -0.17066,-0.1706667 Q -104.66009,6.528 -104.60676,6.4 q 0.0533,-0.1280001 0.17067,-0.1813334 0.608,-0.2666667 1.14133,-0.4586667 0.544,-0.2026666 1.04533,-0.32 1.312,-0.3306667 2.144,-0.1066666 0.245338,0.064 0.341338,0.2986666 0.096,0.2453334 -0.04267,0.5333334 -0.138666,0.2773333 -0.330668,0.5866667 -0.0213,0.021333 -0.0427,0.053333 -0.0107,0.032 -0.032,0.074667 0.245328,-0.053333 0.714662,-0.2133334 0.48,-0.16 1.333333,-0.4693333 0.117333,-0.042667 0.234667,0.021333 0.128,0.053333 0.170666,0.1813334 0.05333,0.1173333 0,0.2453333 -0.05333,0.1173333 -0.192,0.1706667 -0.490666,0.1706666 -0.896,0.3093333 Q -99.252092,7.264 -99.572092,7.36 -100.00943,7.488 -100.23343,7.5413333 -100.44676,7.584 -100.56409,7.584 Z"
       style="fill:#0e141f;stroke-width:1.70526063;fill-opacity:0.51707315"
       id="path1000"
       inkscape:connector-curvature="0" />
    <path
       d="m -97.172105,8.2986667 q -0.08533,0 -0.16,-0.010667 -0.064,-0.010667 -0.138667,-0.032 -0.192,-0.053333 -0.266666,-0.224 -0.096,-0.2133333 0,-0.512 0.106666,-0.3093334 0.341333,-0.7893334 0.04267,-0.085333 0.08533,-0.192 0.04267,-0.1066666 0.096,-0.2026666 -0.138666,0.053333 -0.298666,0.1813333 -0.149334,0.1173333 -0.309334,0.2453333 -0.106666,0.085333 -0.234666,0.064 -0.138667,-0.021333 -0.224,-0.1173333 -0.08533,-0.1066667 -0.064,-0.2346667 0.02133,-0.128 0.117333,-0.224 0.149333,-0.1066667 0.309333,-0.2346667 0.16,-0.128 0.341334,-0.2133333 0.437333,-0.224 0.8,-0.1173333 0.170666,0.032 0.256,0.2133333 0.08533,0.1813333 -0.01067,0.4266667 -0.08533,0.2453333 -0.298667,0.6933333 -0.05333,0.128 -0.117333,0.256 -0.05333,0.128 -0.106667,0.2453334 -0.02133,0.042667 -0.032,0.074667 -0.01067,0.032 -0.02133,0.064 0.106667,-0.010667 0.266667,-0.064 0.170666,-0.053333 0.384,-0.1600001 0.224,-0.1173333 0.512,-0.3093333 0.288,-0.192 0.661333,-0.48 0.288,-0.2346667 0.544,-0.4586667 0.256,-0.224 0.448,-0.4053333 0.192,-0.1813334 0.309333,-0.2986667 0.117334,-0.1173333 0.117334,-0.1173333 0.128,-0.1493334 0.309333,-0.096 0.08533,0.021333 0.138667,0.074667 0.05333,0.053333 0.08533,0.1066667 0.07467,0.1493333 0.01067,0.352 -0.064,0.2026667 -0.234667,0.6293334 -0.064,0.1386666 -0.128,0.2773333 -0.05333,0.1386667 -0.106667,0.256 -0.01067,0.053333 -0.032,0.1173333 0.149334,-0.021333 0.32,-0.1173333 0.170667,-0.096 0.341334,-0.2133333 0.170667,-0.1173334 0.32,-0.2453334 0.149333,-0.1386666 0.266667,-0.2346667 0.106666,-0.096 0.234666,-0.085333 0.128,0.010667 0.224,0.1066667 0.08533,0.1066667 0.07467,0.2346667 0,0.128 -0.106667,0.224 -0.245333,0.224 -0.501333,0.4266666 -0.256,0.192 -0.522667,0.3413334 -0.256,0.1386667 -0.522667,0.2026667 Q -93.961438,7.776 -94.217438,7.712 q -0.170667,-0.064 -0.245334,-0.2133333 -0.064,-0.1493334 -0.04267,-0.3200001 0.032,-0.1813333 0.128,-0.4586666 -0.117334,0.1066666 -0.245334,0.2026666 -0.117333,0.096 -0.256,0.2133334 -1.472,1.1626667 -2.293333,1.1626667 z"
       style="fill:#0e141f;stroke-width:1.70526063;fill-opacity:0.51707315"
       id="path1002"
       inkscape:connector-curvature="0" />
    <path
       d="m -90.93211,7.3706666 q -0.05333,0 -0.08533,-0.010667 -0.170667,-0.042667 -0.245334,-0.128 -0.064,-0.096 -0.08533,-0.1493334 -0.08533,-0.2346666 0.04267,-0.48 0.138666,-0.256 0.341333,-0.5333333 0.064,-0.085333 0.117333,-0.1813334 0.05333,-0.096 0.106667,-0.1813333 0.01067,-0.010667 0.032,-0.042667 -0.064,0.021333 -0.16,0.064 -0.08533,0.042667 -0.202667,0.128 -0.192,0.1173334 -0.405333,0.3093334 -0.213333,0.1813333 -0.437333,0.384 -0.05333,0.053333 -0.117334,0.1066667 -0.05333,0.042667 -0.106666,0.096 -0.096,0.085333 -0.224,0.085333 -0.138667,-0.010667 -0.224,-0.1173333 -0.096,-0.096 -0.08533,-0.224 0.01067,-0.1386667 0.106667,-0.2240001 0.05333,-0.053333 0.117333,-0.096 0.05333,-0.053333 0.106667,-0.1066666 0.256,-0.2346667 0.501333,-0.4373334 0.256,-0.2133333 0.490667,-0.3626666 0.245333,-0.1493334 0.48,-0.2133334 0.245333,-0.074667 0.469333,-0.010667 0.181334,0.053333 0.256,0.1493334 0.07467,0.096 0.096,0.1706667 0.096,0.2453333 -0.04267,0.5013333 -0.138667,0.256 -0.352,0.5653334 -0.02133,0.021333 -0.05333,0.074667 -0.02133,0.042667 -0.05333,0.085333 0.16,-0.064 0.405333,-0.1493334 0.256,-0.096 0.629334,-0.2453333 0.138666,-0.042667 0.256,0.021333 0.117333,0.053333 0.16,0.1813334 0.05333,0.1173333 -0.01067,0.2453333 -0.05333,0.1173333 -0.170667,0.1706667 -0.341333,0.1173333 -0.618666,0.2133333 -0.277334,0.096 -0.469334,0.1706667 -0.106666,0.042667 -0.192,0.074667 -0.07467,0.021333 -0.138666,0.042667 -0.08533,0.021333 -0.138667,0.042667 -0.04267,0.010667 -0.096,0.010667 z"
       style="fill:#0e141f;stroke-width:1.70526063;fill-opacity:0.51707315"
       id="path1004"
       inkscape:connector-curvature="0" />
    <path
       d="m -86.985446,7.6906667 q -0.128,0 -0.213333,-0.074667 -0.170667,-0.1386667 -0.096,-0.352 0,-0.010667 0.07467,-0.256 0.08533,-0.2453334 0.192,-0.5546667 0.05333,-0.1813334 0.096,-0.3093334 0.04267,-0.1386666 0.07467,-0.2453333 -0.224,0.085333 -0.512,0.192 -0.288,0.1066667 -0.618667,0.2346667 -0.32,0.1173333 -0.661333,0.2453333 -0.341333,0.128 -0.661333,0.2453334 -0.117334,0.042667 -0.234667,-0.010667 -0.128,-0.064 -0.181333,-0.192 -0.04267,-0.1173333 0.02133,-0.2346667 0.05333,-0.128 0.181333,-0.1813333 0.48,-0.1706667 0.992,-0.3626667 0.522667,-0.192 0.949334,-0.352 0.426666,-0.16 0.704,-0.2666667 0.288,-0.1066667 0.288,-0.1066667 0.05333,-0.010667 0.096,-0.010667 0.05333,-0.010667 0.106666,0.010667 0.149334,0.021333 0.213334,0.1706667 0.05333,0.085333 0.04267,0.224 0,0.128 -0.05333,0.3733334 -0.032,0.1386666 -0.08533,0.3093333 -0.04267,0.16 -0.117334,0.3733334 -0.01067,0.042667 -0.02133,0.074667 -0.01067,0.032 -0.02133,0.074667 0.426666,-0.2346667 1.045333,-0.4906667 0.117333,-0.053333 0.234667,0 0.117333,0.042667 0.170666,0.16 0.064,0.1173334 0.01067,0.2453334 -0.05333,0.128 -0.170667,0.1813333 -0.362666,0.16 -0.672,0.3093333 -0.309333,0.1493334 -0.533333,0.2666667 -0.266667,0.1386667 -0.48,0.256 -0.064,0.053333 -0.16,0.053333 z"
       style="fill:#0e141f;stroke-width:1.70526063;fill-opacity:0.51707315"
       id="path1006"
       inkscape:connector-curvature="0" />
    <path
       d="m -81.524114,7.584 q -0.07467,0 -0.138667,-0.021333 -0.202666,-0.042667 -0.288,-0.2453334 -0.064,-0.1813333 0.032,-0.4053333 0.096,-0.224 0.277334,-0.5013334 0.064,-0.096 0.117333,-0.192 0.064,-0.1066667 0.106667,-0.192 0.032,-0.042667 0.05333,-0.1066667 -0.32,-0.053333 -0.746667,-0.021333 -0.416,0.021333 -0.938666,0.16 -0.469334,0.1173333 -0.992,0.3093334 -0.522667,0.1813333 -1.109334,0.4373333 -0.117333,0.053333 -0.234666,0.010667 -0.117334,-0.053333 -0.170667,-0.1706667 Q -85.620114,6.528 -85.566781,6.4 q 0.05333,-0.1280001 0.170667,-0.1813334 0.608,-0.2666667 1.141333,-0.4586667 0.544,-0.2026666 1.045334,-0.32 1.312,-0.3306667 2.144,-0.1066666 0.245333,0.064 0.341333,0.2986666 0.096,0.2453334 -0.04267,0.5333334 -0.138666,0.2773333 -0.330666,0.5866667 -0.02133,0.021333 -0.04267,0.053333 -0.01067,0.032 -0.032,0.074667 0.245333,-0.053333 0.714667,-0.2133334 0.48,-0.16 1.333333,-0.4693333 0.117333,-0.042667 0.234667,0.021333 0.128,0.053333 0.170666,0.1813334 0.05333,0.1173333 0,0.2453333 -0.05333,0.1173333 -0.192,0.1706667 -0.490666,0.1706666 -0.896,0.3093333 Q -80.212114,7.264 -80.532114,7.36 -80.969447,7.488 -81.193447,7.5413333 -81.406781,7.584 -81.524114,7.584 Z"
       style="fill:#0e141f;stroke-width:1.70526063;fill-opacity:0.51707315"
       id="path1008"
       inkscape:connector-curvature="0" />
    <path
       d="m -72.382813,7.3706666 q -0.05333,0 -0.08533,-0.010667 -0.170667,-0.042667 -0.245333,-0.128 -0.064,-0.096 -0.08533,-0.1493334 -0.08533,-0.2346666 0.04267,-0.48 0.138667,-0.256 0.341333,-0.5333333 0.064,-0.085333 0.117334,-0.1813334 0.05333,-0.096 0.106666,-0.1813333 0.01067,-0.010667 0.032,-0.042667 -0.064,0.021333 -0.16,0.064 -0.08533,0.042667 -0.202666,0.128 -0.192,0.1173334 -0.405334,0.3093334 -0.213333,0.1813333 -0.437333,0.384 -0.05333,0.053333 -0.117333,0.1066667 -0.05333,0.042667 -0.106667,0.096 -0.096,0.085333 -0.224,0.085333 -0.138667,-0.010667 -0.224,-0.1173333 -0.096,-0.096 -0.08533,-0.224 0.01067,-0.1386667 0.106666,-0.2240001 0.05333,-0.053333 0.117334,-0.096 0.05333,-0.053333 0.106666,-0.1066666 0.256,-0.2346667 0.501334,-0.4373334 0.256,-0.2133333 0.490666,-0.3626666 0.245334,-0.1493334 0.48,-0.2133334 0.245334,-0.074667 0.469334,-0.010667 0.181333,0.053333 0.256,0.1493334 0.07467,0.096 0.096,0.1706667 0.096,0.2453333 -0.04267,0.5013333 -0.138667,0.256 -0.352,0.5653334 -0.02133,0.021333 -0.05333,0.074667 -0.02133,0.042667 -0.05333,0.085333 0.16,-0.064 0.405334,-0.1493334 0.256,-0.096 0.629333,-0.2453333 0.138667,-0.042667 0.256,0.021333 0.117333,0.053333 0.16,0.1813334 0.05333,0.1173333 -0.01067,0.2453333 -0.05333,0.1173333 -0.170666,0.1706667 -0.341334,0.1173333 -0.618667,0.2133333 -0.277333,0.096 -0.469333,0.1706667 -0.106667,0.042667 -0.192,0.074667 -0.07467,0.021333 -0.138667,0.042667 -0.08533,0.021333 -0.138667,0.042667 -0.04267,0.010667 -0.096,0.010667 z"
       style="fill:#0e141f;stroke-width:1.70526063;fill-opacity:0.51707315"
       id="path1010"
       inkscape:connector-curvature="0" />
    <path
       d="m -67.124149,7.584 q -0.07467,0 -0.138666,-0.021333 -0.202667,-0.042667 -0.288,-0.2453334 -0.064,-0.1813333 0.032,-0.4053333 0.096,-0.224 0.277333,-0.5013334 0.064,-0.096 0.117333,-0.192 0.064,-0.1066667 0.106667,-0.192 0.032,-0.042667 0.05333,-0.1066667 -0.32,-0.053333 -0.746666,-0.021333 -0.416,0.021333 -0.938667,0.16 -0.469333,0.1173333 -0.992,0.3093334 -0.522667,0.1813333 -1.109333,0.4373333 -0.117334,0.053333 -0.234667,0.010667 -0.117333,-0.053333 -0.170667,-0.1706667 Q -71.220149,6.528 -71.166815,6.4 q 0.05333,-0.1280001 0.170666,-0.1813334 0.608,-0.2666667 1.141334,-0.4586667 0.544,-0.2026666 1.045333,-0.32 1.312,-0.3306667 2.144,-0.1066666 0.245333,0.064 0.341333,0.2986666 0.096,0.2453334 -0.04267,0.5333334 -0.138667,0.2773333 -0.330667,0.5866667 -0.02133,0.021333 -0.04267,0.053333 -0.01067,0.032 -0.032,0.074667 0.245334,-0.053333 0.714667,-0.2133334 0.48,-0.16 1.333333,-0.4693333 0.117334,-0.042667 0.234667,0.021333 0.128,0.053333 0.170667,0.1813334 0.05333,0.1173333 0,0.2453333 -0.05333,0.1173333 -0.192,0.1706667 -0.490667,0.1706666 -0.896,0.3093333 Q -65.812149,7.264 -66.132149,7.36 -66.569482,7.488 -66.793482,7.5413333 -67.006815,7.584 -67.124149,7.584 Z"
       style="fill:#0e141f;stroke-width:1.70526063;fill-opacity:0.51707315"
       id="path1012"
       inkscape:connector-curvature="0" />
    <path
       d="m -108.86276,20.917334 q -0.0747,0 -0.13866,-0.02133 -0.20267,-0.04267 -0.288,-0.245333 -0.064,-0.181333 0.032,-0.405333 0.096,-0.224 0.27733,-0.501334 0.064,-0.096 0.11733,-0.192 0.064,-0.106666 0.10667,-0.192 0.032,-0.04267 0.0533,-0.106666 -0.32,-0.05333 -0.74666,-0.02133 -0.416,0.02133 -0.93867,0.16 -0.46933,0.117334 -0.992,0.309334 -0.52267,0.181333 -1.10933,0.437333 -0.11734,0.05333 -0.23467,0.01067 -0.11733,-0.05333 -0.17067,-0.170667 -0.064,-0.117333 -0.0107,-0.245333 0.0533,-0.128 0.17066,-0.181334 0.608,-0.266666 1.14134,-0.458666 0.544,-0.202667 1.04533,-0.32 1.312,-0.330667 2.144,-0.106667 0.24533,0.064 0.34133,0.298667 0.096,0.245333 -0.0427,0.533333 -0.13867,0.277333 -0.33067,0.586667 -0.0213,0.02133 -0.0427,0.05333 -0.0107,0.032 -0.032,0.07467 0.24534,-0.05333 0.71467,-0.213334 0.48,-0.16 1.33333,-0.469333 0.11734,-0.04267 0.23467,0.02133 0.128,0.05333 0.17067,0.181334 0.0533,0.117333 0,0.245333 -0.0533,0.117333 -0.192,0.170667 -0.49067,0.170666 -0.896,0.309333 -0.40534,0.138667 -0.72534,0.234667 -0.43733,0.128 -0.66133,0.181333 -0.21333,0.04267 -0.33067,0.04267 z"
       style="fill:#0e141f;stroke-width:1.70526063;fill-opacity:0.51707315"
       id="path1014"
       inkscape:connector-curvature="0" />
    <path
       d="m -104.90544,20.704 q -0.0533,0 -0.0853,-0.01067 -0.17067,-0.04267 -0.24533,-0.128 -0.064,-0.096 -0.0853,-0.149334 -0.0853,-0.234666 0.0427,-0.48 0.13867,-0.256 0.34133,-0.533333 0.064,-0.08533 0.11734,-0.181333 0.0533,-0.096 0.10666,-0.181334 0.0107,-0.01067 0.032,-0.04267 -0.064,0.02133 -0.16,0.064 -0.0853,0.04267 -0.20266,0.128 -0.192,0.117333 -0.40534,0.309333 -0.21333,0.181333 -0.43733,0.384 -0.0533,0.05333 -0.11733,0.106667 -0.0533,0.04267 -0.10667,0.096 -0.096,0.08533 -0.224,0.08533 -0.13867,-0.01067 -0.224,-0.117333 -0.096,-0.096 -0.0853,-0.224 0.0107,-0.138667 0.10666,-0.224 0.0533,-0.05333 0.11734,-0.096 0.0533,-0.05333 0.10666,-0.106667 0.256,-0.234667 0.50134,-0.437333 0.256,-0.213334 0.49066,-0.362667 0.24534,-0.149333 0.48,-0.213333 0.24534,-0.07467 0.46934,-0.01067 0.18133,0.05333 0.256,0.149333 0.0747,0.096 0.096,0.170667 0.096,0.245333 -0.0427,0.501333 -0.13867,0.256 -0.352,0.565334 -0.0213,0.02133 -0.0533,0.07467 -0.0213,0.04267 -0.0533,0.08533 0.16,-0.064 0.40534,-0.149334 0.256,-0.096 0.62933,-0.245333 0.13867,-0.04267 0.256,0.02133 0.11733,0.05333 0.16,0.181334 0.0533,0.117333 -0.0107,0.245333 -0.0533,0.117333 -0.17066,0.170667 -0.34134,0.117333 -0.61867,0.213333 -0.27733,0.096 -0.46933,0.170667 -0.10667,0.04267 -0.192,0.07467 -0.0747,0.02133 -0.13867,0.04267 -0.0853,0.02133 -0.13867,0.04267 -0.0427,0.01067 -0.096,0.01067 z"
       style="fill:#0e141f;stroke-width:1.70526063;fill-opacity:0.51707315"
       id="path1016"
       inkscape:connector-curvature="0" />
    <path
       d="m -102.53744,21.632 q -0.0853,0 -0.16,-0.01067 -0.064,-0.01067 -0.13867,-0.032 -0.192,-0.05333 -0.26666,-0.224 -0.096,-0.213334 0,-0.512 0.10666,-0.309334 0.34133,-0.789334 0.0427,-0.08533 0.0853,-0.192 0.0427,-0.106666 0.096,-0.202666 -0.13866,0.05333 -0.29866,0.181333 -0.14934,0.117333 -0.30934,0.245333 -0.10666,0.08533 -0.23466,0.064 -0.13867,-0.02133 -0.224,-0.117333 -0.0853,-0.106667 -0.064,-0.234667 0.0213,-0.128 0.11733,-0.224 0.14933,-0.106666 0.30933,-0.234666 0.16,-0.128 0.34134,-0.213334 0.43733,-0.224 0.8,-0.117333 0.17066,0.032 0.256,0.213333 0.0853,0.181334 -0.0107,0.426667 -0.0853,0.245333 -0.29867,0.693333 -0.0533,0.128 -0.11733,0.256 -0.0533,0.128 -0.10667,0.245334 -0.0213,0.04267 -0.032,0.07467 -0.0107,0.032 -0.0213,0.064 0.10667,-0.01067 0.26667,-0.064 0.17066,-0.05333 0.384,-0.16 0.224,-0.117333 0.512,-0.309333 0.288,-0.192 0.66133,-0.48 0.288,-0.234667 0.544,-0.458667 0.255999,-0.224 0.447999,-0.405333 0.192,-0.181333 0.309333,-0.298667 0.117333,-0.117333 0.117333,-0.117333 0.128,-0.149333 0.309334,-0.096 0.08533,0.02133 0.138666,0.07467 0.05333,0.05333 0.08533,0.106666 0.07467,0.149334 0.01067,0.352 -0.064,0.202667 -0.234666,0.629334 -0.064,0.138666 -0.128,0.277333 -0.05333,0.138667 -0.106667,0.256 -0.01067,0.05333 -0.032,0.117333 0.149333,-0.02133 0.32,-0.117333 0.170667,-0.096 0.341333,-0.213333 0.170667,-0.117334 0.32,-0.245334 0.149334,-0.138666 0.266667,-0.234666 0.106667,-0.096 0.234667,-0.08533 0.128,0.01067 0.224,0.106667 0.08533,0.106667 0.07467,0.234667 0,0.128 -0.106666,0.224 -0.245334,0.224 -0.501334,0.426666 -0.256,0.192 -0.522666,0.341334 -0.256,0.138666 -0.522667,0.202666 -0.266667,0.05333 -0.522667,-0.01067 -0.170666,-0.064 -0.245333,-0.213334 -0.064,-0.149333 -0.04267,-0.32 0.032,-0.181333 0.128,-0.458666 -0.117333,0.106666 -0.245333,0.202666 -0.117333,0.096 -0.256003,0.213334 -1.472,1.162666 -2.29333,1.162666 z"
       style="fill:#0e141f;stroke-width:1.70526063;fill-opacity:0.51707315"
       id="path1018"
       inkscape:connector-curvature="0" />
    <path
       d="m -91.678798,21.632 q -0.08533,0 -0.16,-0.01067 -0.064,-0.01067 -0.138667,-0.032 -0.192,-0.05333 -0.266666,-0.224 -0.096,-0.213334 0,-0.512 0.106666,-0.309334 0.341333,-0.789334 0.04267,-0.08533 0.08533,-0.192 0.04267,-0.106666 0.096,-0.202666 -0.138666,0.05333 -0.298666,0.181333 -0.149334,0.117333 -0.309334,0.245333 -0.106666,0.08533 -0.234666,0.064 -0.138667,-0.02133 -0.224,-0.117333 -0.08533,-0.106667 -0.064,-0.234667 0.02133,-0.128 0.117333,-0.224 0.149333,-0.106666 0.309333,-0.234666 0.16,-0.128 0.341334,-0.213334 0.437333,-0.224 0.8,-0.117333 0.170667,0.032 0.256,0.213333 0.08533,0.181334 -0.01067,0.426667 -0.08533,0.245333 -0.298666,0.693333 -0.05333,0.128 -0.117334,0.256 -0.05333,0.128 -0.106666,0.245334 -0.02133,0.04267 -0.032,0.07467 -0.01067,0.032 -0.02133,0.064 0.106667,-0.01067 0.266667,-0.064 0.170667,-0.05333 0.384,-0.16 0.224,-0.117333 0.512,-0.309333 0.288,-0.192 0.661333,-0.48 0.288,-0.234667 0.544,-0.458667 0.256,-0.224 0.448,-0.405333 0.192,-0.181333 0.309334,-0.298667 0.117333,-0.117333 0.117333,-0.117333 0.128,-0.149333 0.309333,-0.096 0.08533,0.02133 0.138667,0.07467 0.05333,0.05333 0.08533,0.106666 0.07467,0.149334 0.01067,0.352 -0.064,0.202667 -0.234667,0.629334 -0.064,0.138666 -0.128,0.277333 -0.05333,0.138667 -0.106666,0.256 -0.01067,0.05333 -0.032,0.117333 0.149333,-0.02133 0.32,-0.117333 0.170666,-0.096 0.341333,-0.213333 0.170667,-0.117334 0.32,-0.245334 0.149333,-0.138666 0.266667,-0.234666 0.106666,-0.096 0.234666,-0.08533 0.128,0.01067 0.224,0.106667 0.08533,0.106667 0.07467,0.234667 0,0.128 -0.106667,0.224 -0.245333,0.224 -0.501333,0.426666 -0.256,0.192 -0.522667,0.341334 -0.256,0.138666 -0.522666,0.202666 -0.266667,0.05333 -0.522667,-0.01067 -0.170667,-0.064 -0.245333,-0.213334 -0.064,-0.149333 -0.04267,-0.32 0.032,-0.181333 0.128,-0.458666 -0.117333,0.106666 -0.245333,0.202666 -0.117334,0.096 -0.256,0.213334 -1.472,1.162666 -2.293334,1.162666 z"
       style="fill:#0e141f;stroke-width:1.70526063;fill-opacity:0.51707315"
       id="path1020"
       inkscape:connector-curvature="0" />
    <path
       d="m -86.004136,21.632 q -0.08533,0 -0.16,-0.01067 -0.064,-0.01067 -0.138667,-0.032 -0.192,-0.05333 -0.266667,-0.224 -0.096,-0.213334 0,-0.512 0.106667,-0.309334 0.341334,-0.789334 0.04267,-0.08533 0.08533,-0.192 0.04267,-0.106666 0.096,-0.202666 -0.138667,0.05333 -0.298667,0.181333 -0.149333,0.117333 -0.309333,0.245333 -0.106667,0.08533 -0.234667,0.064 -0.138666,-0.02133 -0.224,-0.117333 -0.08533,-0.106667 -0.064,-0.234667 0.02133,-0.128 0.117334,-0.224 0.149333,-0.106666 0.309333,-0.234666 0.16,-0.128 0.341333,-0.213334 0.437334,-0.224 0.8,-0.117333 0.170667,0.032 0.256,0.213333 0.08533,0.181334 -0.01067,0.426667 -0.08533,0.245333 -0.298667,0.693333 -0.05333,0.128 -0.117333,0.256 -0.05333,0.128 -0.106667,0.245334 -0.02133,0.04267 -0.032,0.07467 -0.01067,0.032 -0.02133,0.064 0.106666,-0.01067 0.266666,-0.064 0.170667,-0.05333 0.384,-0.16 0.224,-0.117333 0.512001,-0.309333 0.288,-0.192 0.661333,-0.48 0.288,-0.234667 0.544,-0.458667 0.256,-0.224 0.448,-0.405333 0.192,-0.181333 0.309333,-0.298667 0.117334,-0.117333 0.117334,-0.117333 0.128,-0.149333 0.309333,-0.096 0.08533,0.02133 0.138667,0.07467 0.05333,0.05333 0.08533,0.106666 0.07467,0.149334 0.01067,0.352 -0.064,0.202667 -0.234667,0.629334 -0.064,0.138666 -0.128,0.277333 -0.05333,0.138667 -0.106667,0.256 -0.01067,0.05333 -0.032,0.117333 0.149334,-0.02133 0.32,-0.117333 0.170667,-0.096 0.341334,-0.213333 0.170666,-0.117334 0.32,-0.245334 0.149333,-0.138666 0.266666,-0.234666 0.106667,-0.096 0.234667,-0.08533 0.128,0.01067 0.224,0.106667 0.08533,0.106667 0.07467,0.234667 0,0.128 -0.106667,0.224 -0.245333,0.224 -0.501333,0.426666 -0.256,0.192 -0.522667,0.341334 -0.256,0.138666 -0.522667,0.202666 -0.266666,0.05333 -0.522666,-0.01067 -0.170667,-0.064 -0.245334,-0.213334 -0.064,-0.149333 -0.04267,-0.32 0.032,-0.181333 0.128,-0.458666 -0.117334,0.106666 -0.245334,0.202666 -0.117333,0.096 -0.256,0.213334 -1.472,1.162666 -2.293333,1.162666 z"
       style="fill:#0e141f;stroke-width:1.70526063;fill-opacity:0.51707315"
       id="path1022"
       inkscape:connector-curvature="0" />
    <path
       d="m -77.438806,20.917334 q -0.07467,0 -0.138667,-0.02133 -0.202666,-0.04267 -0.288,-0.245333 -0.064,-0.181333 0.032,-0.405333 0.096,-0.224 0.277334,-0.501334 0.064,-0.096 0.117333,-0.192 0.064,-0.106666 0.106667,-0.192 0.032,-0.04267 0.05333,-0.106666 -0.32,-0.05333 -0.746667,-0.02133 -0.416,0.02133 -0.938666,0.16 -0.469334,0.117334 -0.992,0.309334 -0.522667,0.181333 -1.109334,0.437333 -0.117333,0.05333 -0.234666,0.01067 -0.117334,-0.05333 -0.170667,-0.170667 -0.064,-0.117333 -0.01067,-0.245333 0.05333,-0.128 0.170667,-0.181334 0.608,-0.266666 1.141333,-0.458666 0.544,-0.202667 1.045334,-0.32 1.312,-0.330667 2.144,-0.106667 0.245333,0.064 0.341333,0.298667 0.096,0.245333 -0.04267,0.533333 -0.138666,0.277333 -0.330666,0.586667 -0.02133,0.02133 -0.04267,0.05333 -0.01067,0.032 -0.032,0.07467 Q -76.841473,20.16 -76.372139,20 q 0.48,-0.16 1.333333,-0.469333 0.117334,-0.04267 0.234667,0.02133 0.128,0.05333 0.170667,0.181334 0.05333,0.117333 0,0.245333 -0.05333,0.117333 -0.192,0.170667 -0.490667,0.170666 -0.896001,0.309333 -0.405333,0.138667 -0.725333,0.234667 -0.437333,0.128 -0.661333,0.181333 -0.213334,0.04267 -0.330667,0.04267 z"
       style="fill:#0e141f;stroke-width:1.70526063;fill-opacity:0.51707315"
       id="path1024"
       inkscape:connector-curvature="0" />
    <path
       d="m -71.156154,20.917334 q -0.07467,0 -0.138667,-0.02133 -0.202666,-0.04267 -0.288,-0.245333 -0.064,-0.181333 0.032,-0.405333 0.096,-0.224 0.277334,-0.501334 0.064,-0.096 0.117333,-0.192 0.064,-0.106666 0.106667,-0.192 0.032,-0.04267 0.05333,-0.106666 -0.32,-0.05333 -0.746667,-0.02133 -0.416,0.02133 -0.938666,0.16 -0.469334,0.117334 -0.992,0.309334 -0.522667,0.181333 -1.109334,0.437333 -0.117333,0.05333 -0.234666,0.01067 -0.117334,-0.05333 -0.170667,-0.170667 -0.064,-0.117333 -0.01067,-0.245333 0.05333,-0.128 0.170667,-0.181334 0.608,-0.266666 1.141333,-0.458666 0.544,-0.202667 1.045334,-0.32 1.312,-0.330667 2.144,-0.106667 0.245333,0.064 0.341333,0.298667 0.096,0.245333 -0.04267,0.533333 -0.138666,0.277333 -0.330666,0.586667 -0.02133,0.02133 -0.04267,0.05333 -0.01067,0.032 -0.032,0.07467 Q -70.558821,20.16 -70.089487,20 q 0.48,-0.16 1.333333,-0.469333 0.117333,-0.04267 0.234667,0.02133 0.128,0.05333 0.170666,0.181334 0.05333,0.117333 0,0.245333 -0.05333,0.117333 -0.192,0.170667 -0.490666,0.170666 -0.896,0.309333 -0.405333,0.138667 -0.725333,0.234667 -0.437333,0.128 -0.661333,0.181333 -0.213334,0.04267 -0.330667,0.04267 z"
       style="fill:#0e141f;stroke-width:1.70526063;fill-opacity:0.51707315"
       id="path1026"
       inkscape:connector-curvature="0" />
    <path
       d="m -108.86276,34.250667 q -0.0747,0 -0.13866,-0.02133 -0.20267,-0.04267 -0.288,-0.245333 -0.064,-0.181334 0.032,-0.405334 0.096,-0.224 0.27733,-0.501333 0.064,-0.096 0.11733,-0.192 0.064,-0.106667 0.10667,-0.192 0.032,-0.04267 0.0533,-0.106667 -0.32,-0.05333 -0.74666,-0.02133 -0.416,0.02133 -0.93867,0.16 -0.46933,0.117333 -0.992,0.309333 -0.52267,0.181334 -1.10933,0.437334 -0.11734,0.05333 -0.23467,0.01067 -0.11733,-0.05333 -0.17067,-0.170666 -0.064,-0.117334 -0.0107,-0.245334 0.0533,-0.128 0.17066,-0.181333 0.608,-0.266667 1.14134,-0.458667 0.544,-0.202666 1.04533,-0.32 1.312,-0.330666 2.144,-0.106666 0.24533,0.064 0.34133,0.298666 0.096,0.245334 -0.0427,0.533334 -0.13867,0.277333 -0.33067,0.586666 -0.0213,0.02133 -0.0427,0.05333 -0.0107,0.032 -0.032,0.07467 0.24534,-0.05333 0.71467,-0.213333 0.48,-0.16 1.33333,-0.469333 0.11734,-0.04267 0.23467,0.02133 0.128,0.05333 0.17067,0.181333 0.0533,0.117334 0,0.245334 -0.0533,0.117333 -0.192,0.170666 -0.49067,0.170667 -0.896,0.309334 -0.40534,0.138666 -0.72534,0.234666 -0.43733,0.128 -0.66133,0.181334 -0.21333,0.04267 -0.33067,0.04267 z"
       style="fill:#0e141f;stroke-width:1.70526063;fill-opacity:0.51707315"
       id="path1028"
       inkscape:connector-curvature="0" />
    <path
       d="m -103.8921,34.357334 q -0.128,0 -0.21334,-0.07467 -0.17066,-0.138666 -0.096,-0.352 0,-0.01067 0.0747,-0.256 0.0853,-0.245333 0.192,-0.554666 0.0533,-0.181334 0.096,-0.309334 0.0427,-0.138666 0.0747,-0.245333 -0.224,0.08533 -0.512,0.192 -0.288,0.106667 -0.61867,0.234667 -0.32,0.117333 -0.66133,0.245333 -0.34134,0.128 -0.66134,0.245333 -0.11733,0.04267 -0.23466,-0.01067 -0.128,-0.064 -0.18134,-0.192 -0.0427,-0.117334 0.0213,-0.234667 0.0533,-0.128 0.18133,-0.181333 0.48,-0.170667 0.992,-0.362667 0.52267,-0.192 0.94933,-0.352 0.42667,-0.16 0.704,-0.266667 0.288,-0.106666 0.288,-0.106666 0.0533,-0.01067 0.096,-0.01067 0.0533,-0.01067 0.10667,0.01067 0.14933,0.02133 0.21333,0.170666 0.0533,0.08533 0.0427,0.224 0,0.128 -0.0533,0.373334 -0.032,0.138666 -0.0853,0.309333 -0.0427,0.16 -0.11733,0.373333 -0.0107,0.04267 -0.0213,0.07467 -0.0107,0.032 -0.0213,0.07467 0.42667,-0.234667 1.04534,-0.490667 0.11733,-0.05333 0.23466,0 0.11734,0.04267 0.17067,0.16 0.064,0.117333 0.0107,0.245333 -0.0533,0.128 -0.17067,0.181334 -0.36267,0.16 -0.672,0.309333 -0.30933,0.149333 -0.53333,0.266667 -0.26667,0.138666 -0.48,0.256 -0.064,0.05333 -0.16,0.05333 z"
       style="fill:#0e141f;stroke-width:1.70526063;fill-opacity:0.51707315"
       id="path1030"
       inkscape:connector-curvature="0" />
    <path
       d="m -100.7561,34.037334 q -0.0533,0 -0.0853,-0.01067 -0.17066,-0.04267 -0.24533,-0.128 -0.064,-0.096 -0.0853,-0.149333 -0.0853,-0.234667 0.0427,-0.48 0.13867,-0.256 0.34134,-0.533333 0.064,-0.08533 0.11733,-0.181334 0.0533,-0.096 0.10667,-0.181333 0.0107,-0.01067 0.032,-0.04267 -0.064,0.02133 -0.16,0.064 -0.0853,0.04267 -0.20267,0.128 -0.192,0.117334 -0.40533,0.309334 -0.21334,0.181333 -0.43734,0.384 -0.0533,0.05333 -0.11733,0.106666 -0.0533,0.04267 -0.10667,0.096 -0.096,0.08533 -0.224,0.08533 -0.13866,-0.01067 -0.224,-0.117334 -0.096,-0.096 -0.0853,-0.224 0.0107,-0.138666 0.10667,-0.224 0.0533,-0.05333 0.11733,-0.096 0.0533,-0.05333 0.10667,-0.106666 0.256,-0.234667 0.50133,-0.437334 0.256,-0.213333 0.49067,-0.362666 0.24533,-0.149334 0.48,-0.213334 0.24533,-0.07467 0.46933,-0.01067 0.18133,0.05333 0.255999,0.149333 0.07467,0.096 0.096,0.170667 0.096,0.245333 -0.04267,0.501333 -0.138659,0.256 -0.351999,0.565333 -0.0213,0.02133 -0.0533,0.07467 -0.0213,0.04267 -0.0533,0.08533 0.16,-0.064 0.405326,-0.149333 0.256,-0.096 0.629333,-0.245333 0.138667,-0.04267 0.256,0.02133 0.117333,0.05333 0.16,0.181333 0.05333,0.117334 -0.01067,0.245334 -0.05333,0.117333 -0.170666,0.170666 -0.341334,0.117334 -0.618667,0.213334 -0.277333,0.096 -0.469336,0.170666 -0.10667,0.04267 -0.192,0.07467 -0.0747,0.02133 -0.13867,0.04267 -0.0853,0.02133 -0.13866,0.04267 -0.0427,0.01067 -0.096,0.01067 z"
       style="fill:#0e141f;stroke-width:1.70526063;fill-opacity:0.51707315"
       id="path1032"
       inkscape:connector-curvature="0" />
    <path
       d="m -95.497442,34.250667 q -0.07467,0 -0.138666,-0.02133 -0.202667,-0.04267 -0.288,-0.245333 -0.064,-0.181334 0.032,-0.405334 0.096,-0.224 0.277333,-0.501333 0.064,-0.096 0.117333,-0.192 0.064,-0.106667 0.106667,-0.192 0.032,-0.04267 0.05333,-0.106667 -0.32,-0.05333 -0.746666,-0.02133 -0.416,0.02133 -0.938667,0.16 -0.469333,0.117333 -0.992,0.309333 -0.522667,0.181334 -1.109333,0.437334 -0.117334,0.05333 -0.234667,0.01067 -0.117333,-0.05333 -0.170667,-0.170666 -0.064,-0.117334 -0.01067,-0.245334 0.05333,-0.128 0.170666,-0.181333 0.608,-0.266667 1.141334,-0.458667 0.544,-0.202666 1.045333,-0.32 1.312,-0.330666 2.144,-0.106666 0.245333,0.064 0.341333,0.298666 0.096,0.245334 -0.04267,0.533334 -0.138667,0.277333 -0.330667,0.586666 -0.02133,0.02133 -0.04267,0.05333 -0.01067,0.032 -0.032,0.07467 0.245334,-0.05333 0.714667,-0.213333 0.48,-0.16 1.333333,-0.469333 0.117334,-0.04267 0.234667,0.02133 0.128,0.05333 0.170667,0.181333 0.05333,0.117334 0,0.245334 -0.05333,0.117333 -0.192,0.170666 -0.490667,0.170667 -0.896,0.309334 -0.405334,0.138666 -0.725334,0.234666 -0.437333,0.128 -0.661333,0.181334 -0.213333,0.04267 -0.330667,0.04267 z"
       style="fill:#0e141f;stroke-width:1.70526063;fill-opacity:0.51707315"
       id="path1034"
       inkscape:connector-curvature="0" />
    <path
       d="m -91.614788,34.986667 q -0.05333,0 -0.106667,-0.01067 -0.05333,0 -0.117333,-0.01067 -0.128,-0.04267 -0.213333,-0.181333 -0.032,-0.064 -0.04267,-0.149334 -0.01067,-0.096 0.02133,-0.277333 0.04267,-0.181333 0.128,-0.490667 0.096,-0.32 0.256,-0.821333 -0.245333,0.08533 -0.544,0.202667 -0.298666,0.117333 -0.618666,0.234666 -0.117334,0.04267 -0.234667,-0.01067 -0.128,-0.064 -0.181333,-0.192 -0.04267,-0.117334 0.02133,-0.234667 0.05333,-0.128 0.181333,-0.181333 0.341334,-0.128 0.661334,-0.245334 0.32,-0.117333 0.565333,-0.202666 0.245333,-0.096 0.394667,-0.149334 0.149333,-0.064 0.149333,-0.064 0.106667,-0.04267 0.202667,-0.01067 0.138666,0.032 0.202666,0.16 0.05333,0.096 0.032,0.170666 -0.01067,0.07467 -0.032,0.16 -0.02133,0.04267 -0.032,0.096 -0.01067,0.04267 -0.032,0.106667 -0.07467,0.181333 -0.16,0.448 -0.07467,0.256 -0.16,0.522667 -0.05333,0.149333 -0.08533,0.256 -0.032,0.106666 -0.05333,0.192 0.202666,-0.04267 0.586666,-0.245334 0.330667,-0.181333 0.704,-0.416 0.373334,-0.234666 0.778667,-0.512 0.08533,-0.05333 0.170667,-0.106666 0.08533,-0.05333 0.170667,-0.117334 0.117333,-0.07467 0.245333,-0.04267 0.128,0.02133 0.213333,0.138666 0.07467,0.117334 0.04267,0.245334 -0.02133,0.117333 -0.138667,0.192 -0.08533,0.064 -0.181333,0.128 -0.08533,0.05333 -0.181333,0.117333 -0.405334,0.266667 -0.789334,0.512 -0.384,0.245333 -0.725333,0.426667 -0.693334,0.362666 -1.098667,0.362666 z"
       style="fill:#0e141f;stroke-width:1.70526063;fill-opacity:0.51707315"
       id="path1036"
       inkscape:connector-curvature="0" />
    <path
       d="m -87.94546,34.965334 q -0.08533,0 -0.16,-0.01067 -0.064,-0.01067 -0.138667,-0.032 -0.192,-0.05333 -0.266667,-0.224 -0.096,-0.213333 0,-0.512 0.106667,-0.309333 0.341334,-0.789333 0.04267,-0.08533 0.08533,-0.192 0.04267,-0.106667 0.096,-0.202667 -0.138667,0.05333 -0.298667,0.181334 -0.149333,0.117333 -0.309333,0.245333 -0.106667,0.08533 -0.234667,0.064 -0.138666,-0.02133 -0.224,-0.117333 -0.08533,-0.106667 -0.064,-0.234667 0.02133,-0.128 0.117334,-0.224 0.149333,-0.106667 0.309333,-0.234667 0.16,-0.128 0.341333,-0.213333 0.437334,-0.224 0.8,-0.117333 0.170667,0.032 0.256,0.213333 0.08533,0.181333 -0.01067,0.426667 -0.08533,0.245333 -0.298667,0.693333 -0.05333,0.128 -0.117333,0.256 -0.05333,0.128 -0.106667,0.245333 -0.02133,0.04267 -0.032,0.07467 -0.01067,0.032 -0.02133,0.064 0.106666,-0.01067 0.266666,-0.064 0.170667,-0.05333 0.384,-0.16 0.224,-0.117333 0.512,-0.309333 0.288,-0.192 0.661334,-0.48 0.288,-0.234667 0.544,-0.458667 0.256,-0.224 0.448,-0.405333 0.192,-0.181334 0.309333,-0.298667 0.117333,-0.117333 0.117333,-0.117333 0.128,-0.149334 0.309334,-0.096 0.08533,0.02133 0.138666,0.07467 0.05333,0.05333 0.08533,0.106667 0.07467,0.149333 0.01067,0.352 -0.064,0.202667 -0.234666,0.629333 -0.064,0.138667 -0.128,0.277334 -0.05333,0.138666 -0.106667,0.256 -0.01067,0.05333 -0.032,0.117333 0.149333,-0.02133 0.32,-0.117333 0.170667,-0.096 0.341333,-0.213334 0.170667,-0.117333 0.32,-0.245333 0.149334,-0.138667 0.266667,-0.234667 0.106667,-0.096 0.234667,-0.08533 0.128,0.01067 0.224,0.106667 0.08533,0.106666 0.07467,0.234666 0,0.128 -0.106666,0.224 -0.245334,0.224 -0.501334,0.426667 -0.256,0.192 -0.522666,0.341333 -0.256,0.138667 -0.522667,0.202667 -0.266667,0.05333 -0.522667,-0.01067 -0.170666,-0.064 -0.245333,-0.213333 -0.064,-0.149333 -0.04267,-0.32 0.032,-0.181333 0.128,-0.458667 -0.117333,0.106667 -0.245333,0.202667 -0.117333,0.096 -0.256,0.213333 -1.472,1.162667 -2.293333,1.162667 z"
       style="fill:#0e141f;stroke-width:1.70526063;fill-opacity:0.51707315"
       id="path1038"
       inkscape:connector-curvature="0" />
    <path
       d="m -79.380132,34.250667 q -0.07467,0 -0.138667,-0.02133 -0.202666,-0.04267 -0.288,-0.245333 -0.064,-0.181334 0.032,-0.405334 0.096,-0.224 0.277334,-0.501333 0.064,-0.096 0.117333,-0.192 0.064,-0.106667 0.106667,-0.192 0.032,-0.04267 0.05333,-0.106667 -0.32,-0.05333 -0.746667,-0.02133 -0.416,0.02133 -0.938666,0.16 -0.469334,0.117333 -0.992,0.309333 -0.522667,0.181334 -1.109334,0.437334 -0.117333,0.05333 -0.234666,0.01067 -0.117334,-0.05333 -0.170667,-0.170666 -0.064,-0.117334 -0.01067,-0.245334 0.05333,-0.128 0.170667,-0.181333 0.608,-0.266667 1.141333,-0.458667 0.544,-0.202666 1.045334,-0.32 1.312,-0.330666 2.144,-0.106666 0.245333,0.064 0.341333,0.298666 0.096,0.245334 -0.04267,0.533334 -0.138666,0.277333 -0.330666,0.586666 -0.02133,0.02133 -0.04267,0.05333 -0.01067,0.032 -0.032,0.07467 0.245333,-0.05333 0.714667,-0.213333 0.48,-0.16 1.333333,-0.469333 0.117333,-0.04267 0.234667,0.02133 0.128,0.05333 0.170666,0.181333 0.05333,0.117334 0,0.245334 -0.05333,0.117333 -0.192,0.170666 -0.490666,0.170667 -0.896,0.309334 -0.405333,0.138666 -0.725333,0.234666 -0.437333,0.128 -0.661333,0.181334 -0.213334,0.04267 -0.330667,0.04267 z"
       style="fill:#0e141f;stroke-width:1.70526063;fill-opacity:0.51707315"
       id="path1040"
       inkscape:connector-curvature="0" />
    <path
       d="m -75.988143,34.965334 q -0.08533,0 -0.16,-0.01067 -0.064,-0.01067 -0.138667,-0.032 -0.192,-0.05333 -0.266666,-0.224 -0.096,-0.213333 0,-0.512 0.106666,-0.309333 0.341333,-0.789333 0.04267,-0.08533 0.08533,-0.192 0.04267,-0.106667 0.096,-0.202667 -0.138666,0.05333 -0.298666,0.181334 -0.149334,0.117333 -0.309334,0.245333 -0.106666,0.08533 -0.234666,0.064 -0.138667,-0.02133 -0.224,-0.117333 -0.08533,-0.106667 -0.064,-0.234667 0.02133,-0.128 0.117333,-0.224 0.149333,-0.106667 0.309333,-0.234667 0.16,-0.128 0.341334,-0.213333 0.437333,-0.224 0.8,-0.117333 0.170666,0.032 0.256,0.213333 0.08533,0.181333 -0.01067,0.426667 -0.08533,0.245333 -0.298667,0.693333 -0.05333,0.128 -0.117333,0.256 -0.05333,0.128 -0.106667,0.245333 -0.02133,0.04267 -0.032,0.07467 -0.01067,0.032 -0.02133,0.064 0.106667,-0.01067 0.266667,-0.064 0.170666,-0.05333 0.384,-0.16 0.224,-0.117333 0.512,-0.309333 0.288,-0.192 0.661333,-0.48 0.288,-0.234667 0.544,-0.458667 0.256,-0.224 0.448,-0.405333 0.192,-0.181334 0.309333,-0.298667 0.117334,-0.117333 0.117334,-0.117333 0.128,-0.149334 0.309333,-0.096 0.08533,0.02133 0.138667,0.07467 0.05333,0.05333 0.08533,0.106667 0.07467,0.149333 0.01067,0.352 -0.064,0.202667 -0.234667,0.629333 -0.064,0.138667 -0.128,0.277334 -0.05333,0.138666 -0.106667,0.256 -0.01067,0.05333 -0.032,0.117333 0.149334,-0.02133 0.32,-0.117333 0.170667,-0.096 0.341334,-0.213334 0.170666,-0.117333 0.32,-0.245333 0.149333,-0.138667 0.266666,-0.234667 0.106667,-0.096 0.234667,-0.08533 0.128,0.01067 0.224,0.106667 0.08533,0.106666 0.07467,0.234666 0,0.128 -0.106667,0.224 -0.245333,0.224 -0.501333,0.426667 -0.256,0.192 -0.522667,0.341333 -0.256,0.138667 -0.522667,0.202667 -0.266666,0.05333 -0.522666,-0.01067 -0.170667,-0.064 -0.245334,-0.213333 -0.064,-0.149333 -0.04267,-0.32 0.032,-0.181333 0.128,-0.458667 -0.117334,0.106667 -0.245334,0.202667 -0.117333,0.096 -0.256,0.213333 -1.472,1.162667 -2.293333,1.162667 z"
       style="fill:#0e141f;stroke-width:1.70526063;fill-opacity:0.51707315"
       id="path1042"
       inkscape:connector-curvature="0" />
    <path
       d="m -111.75342,48.298668 q -0.0853,0 -0.16,-0.01067 -0.064,-0.01067 -0.13867,-0.032 -0.192,-0.05333 -0.26667,-0.224 -0.096,-0.213333 0,-0.512 0.10667,-0.309333 0.34134,-0.789333 0.0427,-0.08533 0.0853,-0.192 0.0427,-0.106667 0.096,-0.202667 -0.13867,0.05333 -0.29867,0.181333 -0.14933,0.117334 -0.30933,0.245334 -0.10667,0.08533 -0.23467,0.064 -0.13866,-0.02133 -0.224,-0.117334 -0.0853,-0.106666 -0.064,-0.234666 0.0213,-0.128 0.11734,-0.224 0.14933,-0.106667 0.30933,-0.234667 0.16,-0.128 0.34133,-0.213333 0.43734,-0.224 0.8,-0.117334 0.17067,0.032 0.256,0.213334 0.0853,0.181333 -0.0107,0.426666 -0.0853,0.245334 -0.29867,0.693334 -0.0533,0.128 -0.11733,0.256 -0.0533,0.128 -0.10667,0.245333 -0.0213,0.04267 -0.032,0.07467 -0.0107,0.032 -0.0213,0.064 0.10666,-0.01067 0.26666,-0.064 0.17067,-0.05333 0.384,-0.16 0.224,-0.117333 0.512,-0.309334 0.288,-0.192 0.66134,-0.48 0.288,-0.234666 0.544,-0.458666 0.256,-0.224 0.448,-0.405334 0.192,-0.181333 0.30933,-0.298666 0.11733,-0.117334 0.11733,-0.117334 0.128,-0.149333 0.30934,-0.096 0.0853,0.02133 0.13866,0.07467 0.0533,0.05333 0.0853,0.106667 0.0747,0.149333 0.0107,0.352 -0.064,0.202666 -0.23466,0.629333 -0.064,0.138667 -0.128,0.277333 -0.0533,0.138667 -0.10667,0.256 -0.0107,0.05333 -0.032,0.117334 0.14933,-0.02133 0.32,-0.117334 0.17067,-0.096 0.34133,-0.213333 0.17067,-0.117333 0.32,-0.245333 0.14934,-0.138667 0.26667,-0.234667 0.10667,-0.096 0.23467,-0.08533 0.128,0.01067 0.224,0.106666 0.0853,0.106667 0.0747,0.234667 0,0.128 -0.10666,0.224 -0.24534,0.224 -0.50134,0.426667 -0.256,0.192 -0.52266,0.341333 -0.256,0.138667 -0.52267,0.202667 -0.26667,0.05333 -0.52267,-0.01067 -0.17066,-0.064 -0.24533,-0.213333 -0.064,-0.149333 -0.0427,-0.32 0.032,-0.181334 0.128,-0.458667 -0.11733,0.106667 -0.24533,0.202667 -0.11733,0.096 -0.256,0.213333 -1.472,1.162667 -2.29333,1.162667 z"
       style="fill:#0e141f;stroke-width:1.70526063;fill-opacity:0.51707315"
       id="path1044"
       inkscape:connector-curvature="0" />
    <path
       d="m -105.5881,48.320001 q -0.0533,0 -0.10666,-0.01067 -0.0533,0 -0.11734,-0.01067 -0.128,-0.04267 -0.21333,-0.181333 -0.032,-0.064 -0.0427,-0.149334 -0.0107,-0.096 0.0213,-0.277333 0.0427,-0.181333 0.128,-0.490667 0.096,-0.32 0.256,-0.821333 -0.24534,0.08533 -0.544,0.202666 -0.29867,0.117334 -0.61867,0.234667 -0.11733,0.04267 -0.23467,-0.01067 -0.128,-0.064 -0.18133,-0.192 -0.0427,-0.117333 0.0213,-0.234666 0.0533,-0.128 0.18134,-0.181334 0.34133,-0.128 0.66133,-0.245333 0.32,-0.117333 0.56533,-0.202667 0.24534,-0.096 0.39467,-0.149333 0.14933,-0.064 0.14933,-0.064 0.10667,-0.04267 0.20267,-0.01067 0.13867,0.032 0.20267,0.16 0.0533,0.096 0.032,0.170667 -0.0107,0.07467 -0.032,0.16 -0.0213,0.04267 -0.032,0.096 -0.0107,0.04267 -0.032,0.106667 -0.0747,0.181333 -0.16,0.448 -0.0747,0.256 -0.16,0.522667 -0.0533,0.149333 -0.0853,0.256 -0.032,0.106666 -0.0533,0.192 0.20267,-0.04267 0.58667,-0.245334 0.33066,-0.181333 0.704,-0.416 0.37333,-0.234667 0.77866,-0.512 0.0853,-0.05333 0.17067,-0.106667 0.0853,-0.05333 0.17067,-0.117333 0.11733,-0.07467 0.24533,-0.04267 0.128,0.02133 0.21333,0.138667 0.0747,0.117333 0.0427,0.245333 -0.0213,0.117334 -0.13867,0.192 -0.0853,0.064 -0.18133,0.128 -0.0853,0.05333 -0.18133,0.117334 -0.40534,0.266667 -0.78934,0.512 -0.384,0.245333 -0.72533,0.426667 -0.69333,0.362666 -1.09867,0.362666 z"
       style="fill:#0e141f;stroke-width:1.70526063;fill-opacity:0.51707315"
       id="path1046"
       inkscape:connector-curvature="0" />
    <path
       d="m -101.91877,48.298668 q -0.0853,0 -0.16,-0.01067 -0.064,-0.01067 -0.13867,-0.032 -0.192,-0.05333 -0.26666,-0.224 -0.096,-0.213333 0,-0.512 0.10666,-0.309333 0.34133,-0.789333 0.0427,-0.08533 0.0853,-0.192 0.0427,-0.106667 0.096,-0.202667 -0.13866,0.05333 -0.29866,0.181333 -0.14934,0.117334 -0.30934,0.245334 -0.10666,0.08533 -0.23466,0.064 -0.13867,-0.02133 -0.224,-0.117334 -0.0853,-0.106666 -0.064,-0.234666 0.0213,-0.128 0.11733,-0.224 0.14933,-0.106667 0.30933,-0.234667 0.16,-0.128 0.34134,-0.213333 0.43733,-0.224 0.8,-0.117334 0.17066,0.032 0.256,0.213334 0.0853,0.181333 -0.0107,0.426666 -0.0853,0.245334 -0.29867,0.693334 -0.0533,0.128 -0.11733,0.256 -0.0533,0.128 -0.10667,0.245333 -0.0213,0.04267 -0.032,0.07467 -0.0107,0.032 -0.0213,0.064 0.10667,-0.01067 0.26667,-0.064 0.17066,-0.05333 0.384,-0.16 0.224,-0.117333 0.512,-0.309334 0.288,-0.192 0.66133,-0.48 0.288001,-0.234666 0.544001,-0.458666 0.256,-0.224 0.448,-0.405334 0.192,-0.181333 0.309333,-0.298666 0.117334,-0.117334 0.117334,-0.117334 0.128,-0.149333 0.309333,-0.096 0.08533,0.02133 0.138667,0.07467 0.05333,0.05333 0.08533,0.106667 0.07467,0.149333 0.01067,0.352 -0.064,0.202666 -0.234667,0.629333 -0.064,0.138667 -0.128,0.277333 -0.05333,0.138667 -0.106667,0.256 -0.01067,0.05333 -0.032,0.117334 0.149334,-0.02133 0.32,-0.117334 0.170667,-0.096 0.341334,-0.213333 0.170666,-0.117333 0.32,-0.245333 0.149333,-0.138667 0.266666,-0.234667 0.106667,-0.096 0.234667,-0.08533 0.128,0.01067 0.224,0.106666 0.08533,0.106667 0.07467,0.234667 0,0.128 -0.106667,0.224 -0.245333,0.224 -0.501333,0.426667 -0.256,0.192 -0.522667,0.341333 -0.256,0.138667 -0.522667,0.202667 -0.266666,0.05333 -0.522666,-0.01067 -0.170667,-0.064 -0.245334,-0.213333 -0.064,-0.149333 -0.04267,-0.32 0.032,-0.181334 0.128,-0.458667 -0.117334,0.106667 -0.245334,0.202667 -0.117333,0.096 -0.256,0.213333 -1.472003,1.162667 -2.293333,1.162667 z"
       style="fill:#0e141f;stroke-width:1.70526063;fill-opacity:0.51707315"
       id="path1048"
       inkscape:connector-curvature="0" />
    <path
       d="m -93.353439,47.584001 q -0.07467,0 -0.138666,-0.02133 -0.202667,-0.04267 -0.288,-0.245333 -0.064,-0.181334 0.032,-0.405334 0.096,-0.224 0.277333,-0.501333 0.064,-0.096 0.117333,-0.192 0.064,-0.106667 0.106667,-0.192 0.032,-0.04267 0.05333,-0.106667 -0.32,-0.05333 -0.746666,-0.02133 -0.416,0.02133 -0.938667,0.16 -0.469333,0.117333 -0.992,0.309333 -0.522667,0.181333 -1.109333,0.437333 -0.117334,0.05333 -0.234667,0.01067 -0.117333,-0.05333 -0.170667,-0.170667 -0.064,-0.117333 -0.01067,-0.245333 0.05333,-0.128 0.170666,-0.181333 0.608,-0.266667 1.141334,-0.458667 0.544,-0.202667 1.045333,-0.32 1.312,-0.330667 2.144,-0.106667 0.245333,0.064 0.341333,0.298667 0.096,0.245333 -0.04267,0.533333 -0.138667,0.277334 -0.330667,0.586667 -0.02133,0.02133 -0.04267,0.05333 -0.01067,0.032 -0.032,0.07467 0.245334,-0.05333 0.714667,-0.213333 0.48,-0.16 1.333333,-0.469334 0.117334,-0.04267 0.234667,0.02133 0.128,0.05333 0.170667,0.181333 0.05333,0.117333 0,0.245333 -0.05333,0.117334 -0.192,0.170667 -0.490667,0.170667 -0.896,0.309333 -0.405334,0.138667 -0.725334,0.234667 -0.437333,0.128 -0.661333,0.181334 -0.213333,0.04267 -0.330667,0.04267 z"
       style="fill:#0e141f;stroke-width:1.70526063;fill-opacity:0.51707315"
       id="path1050"
       inkscape:connector-curvature="0" />
    <path
       d="m -83.198806,47.690668 q -0.128,0 -0.213333,-0.07467 -0.170667,-0.138666 -0.096,-0.352 0,-0.01067 0.07467,-0.256 0.08533,-0.245333 0.192,-0.554667 0.05333,-0.181333 0.096,-0.309333 0.04267,-0.138667 0.07467,-0.245333 -0.224,0.08533 -0.512,0.192 -0.288,0.106666 -0.618667,0.234666 -0.32,0.117334 -0.661333,0.245334 -0.341333,0.128 -0.661333,0.245333 -0.117334,0.04267 -0.234667,-0.01067 -0.128,-0.064 -0.181333,-0.192 -0.04267,-0.117333 0.02133,-0.234666 0.05333,-0.128 0.181333,-0.181334 0.48,-0.170666 0.992,-0.362666 0.522667,-0.192 0.949334,-0.352 0.426666,-0.16 0.704,-0.266667 0.288,-0.106667 0.288,-0.106667 0.05333,-0.01067 0.096,-0.01067 0.05333,-0.01067 0.106666,0.01067 0.149334,0.02133 0.213334,0.170667 0.05333,0.08533 0.04267,0.224 0,0.128 -0.05333,0.373333 -0.032,0.138667 -0.08533,0.309334 -0.04267,0.16 -0.117334,0.373333 -0.01067,0.04267 -0.02133,0.07467 -0.01067,0.032 -0.02133,0.07467 0.426666,-0.234666 1.045333,-0.490666 0.117333,-0.05333 0.234667,0 0.117333,0.04267 0.170666,0.16 0.064,0.117333 0.01067,0.245333 -0.05333,0.128 -0.170667,0.181333 -0.362666,0.16 -0.672,0.309334 -0.309333,0.149333 -0.533333,0.266667 -0.266667,0.138666 -0.48,0.256 -0.064,0.05333 -0.16,0.05333 z"
       style="fill:#0e141f;stroke-width:1.70526063;fill-opacity:0.51707315"
       id="path1052"
       inkscape:connector-curvature="0" />
    <path
       d="m -80.628139,48.298668 q -0.08533,0 -0.16,-0.01067 -0.064,-0.01067 -0.138666,-0.032 -0.192,-0.05333 -0.266667,-0.224 -0.096,-0.213333 0,-0.512 0.106667,-0.309333 0.341333,-0.789333 0.04267,-0.08533 0.08533,-0.192 0.04267,-0.106667 0.096,-0.202667 -0.138667,0.05333 -0.298667,0.181333 -0.149333,0.117334 -0.309333,0.245334 -0.106667,0.08533 -0.234667,0.064 -0.138667,-0.02133 -0.224,-0.117334 -0.08533,-0.106666 -0.064,-0.234666 0.02133,-0.128 0.117333,-0.224 0.149334,-0.106667 0.309334,-0.234667 0.16,-0.128 0.341333,-0.213333 0.437333,-0.224 0.8,-0.117334 0.170667,0.032 0.256,0.213334 0.08533,0.181333 -0.01067,0.426666 -0.08533,0.245334 -0.298666,0.693334 -0.05333,0.128 -0.117334,0.256 -0.05333,0.128 -0.106666,0.245333 -0.02133,0.04267 -0.032,0.07467 -0.01067,0.032 -0.02133,0.064 0.106667,-0.01067 0.266667,-0.064 0.170667,-0.05333 0.384,-0.16 0.224,-0.117333 0.512,-0.309334 0.288,-0.192 0.661333,-0.48 0.288,-0.234666 0.544,-0.458666 0.256,-0.224 0.448,-0.405334 0.192,-0.181333 0.309334,-0.298666 0.117333,-0.117334 0.117333,-0.117334 0.128,-0.149333 0.309333,-0.096 0.08533,0.02133 0.138667,0.07467 0.05333,0.05333 0.08533,0.106667 0.07467,0.149333 0.01067,0.352 -0.064,0.202666 -0.234667,0.629333 -0.064,0.138667 -0.128,0.277333 -0.05333,0.138667 -0.106666,0.256 -0.01067,0.05333 -0.032,0.117334 0.149333,-0.02133 0.32,-0.117334 0.170666,-0.096 0.341333,-0.213333 0.170667,-0.117333 0.32,-0.245333 0.149333,-0.138667 0.266667,-0.234667 0.106666,-0.096 0.234666,-0.08533 0.128,0.01067 0.224,0.106666 0.08533,0.106667 0.07467,0.234667 0,0.128 -0.106667,0.224 -0.245333,0.224 -0.501333,0.426667 -0.256,0.192 -0.522667,0.341333 -0.256,0.138667 -0.522666,0.202667 -0.266667,0.05333 -0.522667,-0.01067 -0.170667,-0.064 -0.245333,-0.213333 -0.064,-0.149333 -0.04267,-0.32 0.032,-0.181334 0.128,-0.458667 -0.117333,0.106667 -0.245333,0.202667 -0.117334,0.096 -0.256,0.213333 -1.472,1.162667 -2.293334,1.162667 z"
       style="fill:#0e141f;stroke-width:1.70526063;fill-opacity:0.51707315"
       id="path1054"
       inkscape:connector-curvature="0" />
    <path
       d="m -74.953475,48.298668 q -0.08533,0 -0.16,-0.01067 -0.064,-0.01067 -0.138667,-0.032 -0.192,-0.05333 -0.266666,-0.224 -0.096,-0.213333 0,-0.512 0.106666,-0.309333 0.341333,-0.789333 0.04267,-0.08533 0.08533,-0.192 0.04267,-0.106667 0.096,-0.202667 -0.138666,0.05333 -0.298666,0.181333 -0.149334,0.117334 -0.309334,0.245334 -0.106666,0.08533 -0.234666,0.064 -0.138667,-0.02133 -0.224,-0.117334 -0.08533,-0.106666 -0.064,-0.234666 0.02133,-0.128 0.117333,-0.224 0.149333,-0.106667 0.309333,-0.234667 0.16,-0.128 0.341334,-0.213333 0.437333,-0.224 0.8,-0.117334 0.170666,0.032 0.256,0.213334 0.08533,0.181333 -0.01067,0.426666 -0.08533,0.245334 -0.298667,0.693334 -0.05333,0.128 -0.117333,0.256 -0.05333,0.128 -0.106667,0.245333 -0.02133,0.04267 -0.032,0.07467 -0.01067,0.032 -0.02133,0.064 0.106667,-0.01067 0.266667,-0.064 0.170666,-0.05333 0.384,-0.16 0.224,-0.117333 0.512,-0.309334 0.288,-0.192 0.661333,-0.48 0.288,-0.234666 0.544,-0.458666 0.256,-0.224 0.448,-0.405334 0.192,-0.181333 0.309333,-0.298666 0.117334,-0.117334 0.117334,-0.117334 0.128,-0.149333 0.309333,-0.096 0.08533,0.02133 0.138667,0.07467 0.05333,0.05333 0.08533,0.106667 0.07467,0.149333 0.01067,0.352 -0.064,0.202666 -0.234667,0.629333 -0.064,0.138667 -0.128,0.277333 -0.05333,0.138667 -0.106667,0.256 -0.01067,0.05333 -0.032,0.117334 0.149334,-0.02133 0.32,-0.117334 0.170667,-0.096 0.341334,-0.213333 0.170666,-0.117333 0.32,-0.245333 0.149333,-0.138667 0.266666,-0.234667 0.106667,-0.096 0.234667,-0.08533 0.128,0.01067 0.224,0.106666 0.08533,0.106667 0.07467,0.234667 0,0.128 -0.106667,0.224 -0.245333,0.224 -0.501333,0.426667 -0.256,0.192 -0.522667,0.341333 -0.256,0.138667 -0.522667,0.202667 -0.266666,0.05333 -0.522666,-0.01067 -0.170667,-0.064 -0.245334,-0.213333 -0.064,-0.149333 -0.04267,-0.32 0.032,-0.181334 0.128,-0.458667 -0.117334,0.106667 -0.245334,0.202667 -0.117333,0.096 -0.256,0.213333 -1.472,1.162667 -2.293333,1.162667 z"
       style="fill:#0e141f;stroke-width:1.70526063;fill-opacity:0.51707315"
       id="path1056"
       inkscape:connector-curvature="0" />
    <path
       d="m -69.278815,48.298668 q -0.08533,0 -0.16,-0.01067 -0.064,-0.01067 -0.138667,-0.032 -0.192,-0.05333 -0.266667,-0.224 -0.096,-0.213333 0,-0.512 0.106667,-0.309333 0.341334,-0.789333 0.04267,-0.08533 0.08533,-0.192 0.04267,-0.106667 0.096,-0.202667 -0.138667,0.05333 -0.298667,0.181333 -0.149333,0.117334 -0.309333,0.245334 -0.106667,0.08533 -0.234667,0.064 -0.138666,-0.02133 -0.224,-0.117334 -0.08533,-0.106666 -0.064,-0.234666 0.02133,-0.128 0.117334,-0.224 0.149333,-0.106667 0.309333,-0.234667 0.16,-0.128 0.341333,-0.213333 0.437334,-0.224 0.8,-0.117334 0.170667,0.032 0.256,0.213334 0.08533,0.181333 -0.01067,0.426666 -0.08533,0.245334 -0.298667,0.693334 -0.05333,0.128 -0.117333,0.256 -0.05333,0.128 -0.106667,0.245333 -0.02133,0.04267 -0.032,0.07467 -0.01067,0.032 -0.02133,0.064 0.106666,-0.01067 0.266666,-0.064 0.170667,-0.05333 0.384,-0.16 0.224,-0.117333 0.512,-0.309334 0.288,-0.192 0.661334,-0.48 0.288,-0.234666 0.544,-0.458666 0.256,-0.224 0.448,-0.405334 0.192,-0.181333 0.309333,-0.298666 0.117333,-0.117334 0.117333,-0.117334 0.128,-0.149333 0.309334,-0.096 0.08533,0.02133 0.138666,0.07467 0.05333,0.05333 0.08533,0.106667 0.07467,0.149333 0.01067,0.352 -0.064,0.202666 -0.234666,0.629333 -0.064,0.138667 -0.128,0.277333 -0.05333,0.138667 -0.106667,0.256 -0.01067,0.05333 -0.032,0.117334 0.149333,-0.02133 0.32,-0.117334 0.170667,-0.096 0.341333,-0.213333 0.170667,-0.117333 0.32,-0.245333 0.149334,-0.138667 0.266667,-0.234667 0.106667,-0.096 0.234667,-0.08533 0.128,0.01067 0.224,0.106666 0.08533,0.106667 0.07467,0.234667 0,0.128 -0.106666,0.224 -0.245334,0.224 -0.501334,0.426667 -0.256,0.192 -0.522666,0.341333 -0.256,0.138667 -0.522667,0.202667 -0.266667,0.05333 -0.522667,-0.01067 -0.170666,-0.064 -0.245333,-0.213333 -0.064,-0.149333 -0.04267,-0.32 0.032,-0.181334 0.128,-0.458667 -0.117333,0.106667 -0.245333,0.202667 -0.117333,0.096 -0.256,0.213333 -1.472,1.162667 -2.293333,1.162667 z"
       style="fill:#0e141f;stroke-width:1.70526063;fill-opacity:0.51707315"
       id="path1058"
       inkscape:connector-curvature="0" />
  </g>
</svg>
