<?xml version="1.0" encoding="UTF-8" standalone="no"?>
<!-- Created with Inkscape (http://www.inkscape.org/) -->

<svg
   xmlns:dc="http://purl.org/dc/elements/1.1/"
   xmlns:cc="http://creativecommons.org/ns#"
   xmlns:rdf="http://www.w3.org/1999/02/22-rdf-syntax-ns#"
   xmlns:svg="http://www.w3.org/2000/svg"
   xmlns="http://www.w3.org/2000/svg"
   xmlns:xlink="http://www.w3.org/1999/xlink"
   xmlns:sodipodi="http://sodipodi.sourceforge.net/DTD/sodipodi-0.dtd"
   xmlns:inkscape="http://www.inkscape.org/namespaces/inkscape"
   width="64"
   height="64"
   id="svg5562"
   version="1.1"
   inkscape:version="0.91 r13725"
   viewBox="0 0 64 64"
   sodipodi:docname="com.github.lainsce.notejot.svg">
  <defs
     id="defs5564">
    <linearGradient
       id="linearGradient5334">
      <stop
         id="stop5336"
         style="stop-color:#c69d00;stop-opacity:1"
         offset="0" />
      <stop
         id="stop5338"
         style="stop-color:#a88700;stop-opacity:1"
         offset="1" />
    </linearGradient>
    <linearGradient
       inkscape:collect="always"
       xlink:href="#linearGradient5334"
       id="linearGradient4207"
       x1="373.57144"
       y1="98.149536"
       x2="375.00003"
       y2="655.29242"
       gradientUnits="userSpaceOnUse"
       gradientTransform="matrix(0.0998299,0,0,0.09996998,-5.0903952,-5.4274805)" />
    <radialGradient
       gradientTransform="matrix(2.003784,0,0,1.4,27.98813,-17.4)"
       gradientUnits="userSpaceOnUse"
       xlink:href="#linearGradient3688-166-749-4-0-3-8"
       id="radialGradient3337-2-2"
       fy="43.5"
       fx="4.9929786"
       r="2.5"
       cy="43.5"
       cx="4.9929786" />
    <linearGradient
       id="linearGradient3688-166-749-4-0-3-8">
      <stop
         offset="0"
         style="stop-color:#181818;stop-opacity:1"
         id="stop2883-4-0-1-8" />
      <stop
         offset="1"
         style="stop-color:#181818;stop-opacity:0"
         id="stop2885-9-2-9-6" />
    </linearGradient>
    <radialGradient
       gradientTransform="matrix(2.003784,0,0,1.4,-20.01187,-104.4)"
       gradientUnits="userSpaceOnUse"
       xlink:href="#linearGradient3688-166-749-4-0-3-8"
       id="radialGradient3339-1-4"
       fy="43.5"
       fx="4.9929786"
       r="2.5"
       cy="43.5"
       cx="4.9929786" />
    <linearGradient
       gradientUnits="userSpaceOnUse"
       xlink:href="#linearGradient3702-501-757-8-4-1-1"
       id="linearGradient13984"
       y2="39.999443"
       x2="25.058096"
       y1="47.027729"
       x1="25.058096" />
    <linearGradient
       id="linearGradient3702-501-757-8-4-1-1">
      <stop
         offset="0"
         style="stop-color:#181818;stop-opacity:0"
         id="stop2895-8-9-9-1" />
      <stop
         offset="0.5"
         style="stop-color:#181818;stop-opacity:1"
         id="stop2897-7-8-7-7" />
      <stop
         offset="1"
         style="stop-color:#181818;stop-opacity:0"
         id="stop2899-4-5-1-5" />
    </linearGradient>
    <linearGradient
       y2="43"
       x2="23.99999"
       y1="4.999989"
       x1="23.99999"
       gradientTransform="matrix(1.389663,0,0,1.4612258,-1.2187152,-2.7538989)"
       gradientUnits="userSpaceOnUse"
       id="linearGradient3647"
       xlink:href="#linearGradient3924-2-2-5-8" />
    <linearGradient
       id="linearGradient3924-2-2-5-8">
      <stop
         offset="0"
         style="stop-color:#fff194;stop-opacity:1"
         id="stop3926-9-4-9-6" />
      <stop
         offset="0.06316455"
         style="stop-color:#ffffff;stop-opacity:0.23529412"
         id="stop3928-9-8-6-5" />
      <stop
         offset="0.95056331"
         style="stop-color:#ffffff;stop-opacity:0.15686275"
         id="stop3930-3-5-1-7" />
      <stop
         offset="1"
         style="stop-color:#ffffff;stop-opacity:0.39215687"
         id="stop3932-8-0-4-8" />
    </linearGradient>
  </defs>
  <sodipodi:namedview
     id="base"
     pagecolor="#ffffff"
     bordercolor="#666666"
     borderopacity="1.0"
     inkscape:pageopacity="0.0"
     inkscape:pageshadow="2"
     inkscape:zoom="5.5"
     inkscape:cx="-23.181818"
     inkscape:cy="43.981728"
     inkscape:current-layer="layer1"
     showgrid="true"
     inkscape:document-units="px"
     inkscape:grid-bbox="true"
     inkscape:window-width="1920"
     inkscape:window-height="962"
     inkscape:window-x="0"
     inkscape:window-y="30"
     inkscape:window-maximized="1" />
  <metadata
     id="metadata5567">
    <rdf:RDF>
      <cc:Work
         rdf:about="">
        <dc:format>image/svg+xml</dc:format>
        <dc:type
           rdf:resource="http://purl.org/dc/dcmitype/StillImage" />
        <dc:title />
      </cc:Work>
    </rdf:RDF>
  </metadata>
  <g
     id="layer1"
     inkscape:label="Layer 1"
     inkscape:groupmode="layer">
    <rect
       style="opacity:1;fill:#ffdd55;fill-opacity:1;stroke:none;stroke-width:0.52761984;stroke-miterlimit:4;stroke-dasharray:none;stroke-opacity:1"
       id="rect3387-2"
       width="52.797955"
       height="55.524715"
       x="5.7836657"
       y="4.6012797"
       ry="2.8639295" />
    <g
       transform="matrix(1.5022361,0,0,0.53480618,-4.0112191,37.003975)"
       id="g3712-8-2-4-4"
       style="opacity:0.4">
      <rect
         width="5"
         height="7"
         x="38"
         y="40"
         id="rect2801-5-5-7-9"
         style="fill:url(#radialGradient3337-2-2);fill-opacity:1;stroke:none" />
      <rect
         width="5"
         height="7"
         x="-10"
         y="-47"
         transform="scale(-1,-1)"
         id="rect3696-3-0-3-7"
         style="fill:url(#radialGradient3339-1-4);fill-opacity:1;stroke:none" />
      <rect
         width="28"
         height="7.0000005"
         x="10"
         y="40"
         id="rect3700-5-6-8-4"
         style="fill:url(#linearGradient13984);fill-opacity:1;stroke:none" />
    </g>
    <rect
       style="opacity:0.4;fill:none;fill-opacity:1;stroke:url(#linearGradient4207);stroke-width:0.70071864;stroke-miterlimit:4;stroke-dasharray:none;stroke-opacity:1"
       id="rect3387"
       width="53.20792"
       height="56.106678"
       x="5.5992393"
       y="4.3227787"
       ry="2.8939469" />
    <g
       transform="matrix(1.0592422,-0.13401196,0.13768764,0.92665135,0,0)"
       style="font-style:normal;font-weight:normal;font-size:12.81345081px;line-height:125%;font-family:sans-serif;letter-spacing:0px;word-spacing:0px;opacity:1;fill:#00286b;fill-opacity:1;fill-rule:nonzero;stroke:none;stroke-width:1px;stroke-linecap:butt;stroke-linejoin:miter;stroke-opacity:1"
       id="text3353">
      <path
         d="m 16.448431,31.11751 q -0.239184,0 -0.529623,-0.08542 -0.427115,-0.102507 -0.734638,-0.375861 -0.307522,-0.290438 -0.461284,-0.683384 -0.273354,-0.649215 0.01708,-1.469276 0.102507,-0.290439 0.307523,-0.683384 0.03417,-0.06834 0.06834,-0.136677 0.05125,-0.08542 0.102508,-0.170846 -0.392946,0.205015 -0.768808,0.444199 -0.375861,0.2221 -0.768807,0.427116 -0.700469,0.427115 -1.349684,0.785891 -0.63213,0.341692 -1.178837,0.580877 -0.324608,0.153761 -0.6663,0.153761 -0.324607,0 -0.6321301,-0.119592 Q 9.546251,29.665319 9.3070665,29.443219 9.0507975,29.204035 8.9141206,28.879427 8.7603592,28.55482 8.7603592,28.230212 q 0,-0.341692 0.1195922,-0.649215 0.1195923,-0.307523 0.3587767,-0.546707 0.2220999,-0.256269 0.5467073,-0.392946 0.3929456,-0.187931 0.9567376,-0.495454 0.580877,-0.324607 1.230092,-0.700468 0.751722,-0.4442 1.571783,-0.905484 0.837146,-0.478369 1.640122,-0.820061 0.905484,-0.4442 1.691376,-0.597962 0.546708,-0.136676 1.007992,-0.153761 0.478369,-0.01708 0.922568,0.102508 0.939654,0.273353 1.281346,1.161753 0.256269,0.649215 0.06834,1.26426 -0.170846,0.615046 -0.461284,1.161753 0.05125,-0.01708 0.102508,-0.01708 0.06834,-0.01709 0.119592,-0.05125 0.324607,-0.119592 0.649215,-0.08542 0.341692,0.01708 0.63213,0.153761 0.307523,0.136677 0.529623,0.392946 0.239184,0.239185 0.358777,0.563792 0.119592,0.341692 0.102507,0.683385 -0.01708,0.324607 -0.153761,0.63213 -0.136677,0.290438 -0.392946,0.529623 -0.239185,0.222099 -0.580877,0.341692 -0.802976,0.290438 -1.469276,0.529622 -0.666299,0.2221 -1.178837,0.392946 -0.717554,0.205016 -1.161753,0.307523 -0.4442,0.08542 -0.802977,0.08542 z"
         style="font-style:normal;font-variant:normal;font-weight:bold;font-stretch:normal;font-size:17.08460426px;font-family:'Redacted Script';-inkscape-font-specification:'Redacted Script Bold';fill:#00286b;fill-opacity:1;fill-rule:nonzero;stroke:none;stroke-opacity:1"
         id="path3680" />
      <path
         d="m 26.525678,31.11751 q -0.239185,0 -0.529623,-0.08542 -0.427115,-0.102507 -0.734638,-0.375861 -0.307523,-0.290438 -0.461284,-0.683384 -0.273354,-0.649215 0.01708,-1.469276 0.102508,-0.290439 0.307523,-0.683384 0.03417,-0.06834 0.06834,-0.136677 0.05125,-0.08542 0.102507,-0.170846 -0.392946,0.205015 -0.768807,0.444199 -0.375861,0.2221 -0.768807,0.427116 -0.700469,0.427115 -1.349684,0.785891 -0.63213,0.341692 -1.178838,0.580877 -0.324607,0.153761 -0.666299,0.153761 -0.324608,0 -0.63213,-0.119592 -0.307523,-0.119592 -0.546708,-0.341692 -0.256269,-0.239184 -0.392946,-0.563792 -0.153761,-0.324607 -0.153761,-0.649215 0,-0.341692 0.119592,-0.649215 0.119592,-0.307523 0.358777,-0.546707 0.2221,-0.256269 0.546707,-0.392946 0.392946,-0.187931 0.956738,-0.495454 0.580876,-0.324607 1.230091,-0.700468 0.751723,-0.4442 1.571784,-0.905484 0.837146,-0.478369 1.640122,-0.820061 0.905484,-0.4442 1.691376,-0.597962 0.546707,-0.136676 1.007992,-0.153761 0.478368,-0.01708 0.922568,0.102508 0.939653,0.273353 1.281345,1.161753 0.25627,0.649215 0.06834,1.26426 -0.170846,0.615046 -0.461284,1.161753 0.05125,-0.01708 0.102507,-0.01708 0.06834,-0.01709 0.119592,-0.05125 0.324608,-0.119592 0.649215,-0.08542 0.341692,0.01708 0.632131,0.153761 0.307523,0.136677 0.529622,0.392946 0.239185,0.239185 0.358777,0.563792 0.119592,0.341692 0.102508,0.683385 -0.01709,0.324607 -0.153762,0.63213 -0.136676,0.290438 -0.392946,0.529623 -0.239184,0.222099 -0.580876,0.341692 -0.802976,0.290438 -1.469276,0.529622 -0.6663,0.2221 -1.178838,0.392946 -0.717553,0.205016 -1.161753,0.307523 -0.4442,0.08542 -0.802976,0.08542 z"
         style="font-style:normal;font-variant:normal;font-weight:bold;font-stretch:normal;font-size:17.08460426px;font-family:'Redacted Script';-inkscape-font-specification:'Redacted Script Bold';fill:#00286b;fill-opacity:1;fill-rule:nonzero;stroke:none;stroke-opacity:1"
         id="path3682" />
      <path
         d="m 36.602924,31.11751 q -0.239184,0 -0.529622,-0.08542 -0.427115,-0.102507 -0.734638,-0.375861 -0.307523,-0.290438 -0.461285,-0.683384 -0.273353,-0.649215 0.01709,-1.469276 0.102508,-0.290439 0.307523,-0.683384 0.03417,-0.06834 0.06834,-0.136677 0.05125,-0.08542 0.102508,-0.170846 -0.392946,0.205015 -0.768807,0.444199 -0.375862,0.2221 -0.768807,0.427116 -0.700469,0.427115 -1.349684,0.785891 -0.632131,0.341692 -1.178838,0.580877 -0.324607,0.153761 -0.666299,0.153761 -0.324608,0 -0.632131,-0.119592 -0.307523,-0.119592 -0.546707,-0.341692 -0.256269,-0.239184 -0.392946,-0.563792 -0.153761,-0.324607 -0.153761,-0.649215 0,-0.341692 0.119592,-0.649215 0.119592,-0.307523 0.358776,-0.546707 0.2221,-0.256269 0.546708,-0.392946 0.392946,-0.187931 0.956738,-0.495454 0.580876,-0.324607 1.230091,-0.700468 0.751723,-0.4442 1.571784,-0.905484 0.837145,-0.478369 1.640122,-0.820061 0.905484,-0.4442 1.691376,-0.597962 0.546707,-0.136676 1.007991,-0.153761 0.478369,-0.01708 0.922569,0.102508 0.939653,0.273353 1.281345,1.161753 0.256269,0.649215 0.06834,1.26426 -0.170846,0.615046 -0.461285,1.161753 0.05125,-0.01708 0.102508,-0.01708 0.06834,-0.01709 0.119592,-0.05125 0.324608,-0.119592 0.649215,-0.08542 0.341692,0.01708 0.63213,0.153761 0.307523,0.136677 0.529623,0.392946 0.239185,0.239185 0.358777,0.563792 0.119592,0.341692 0.102507,0.683385 -0.01708,0.324607 -0.153761,0.63213 -0.136677,0.290438 -0.392946,0.529623 -0.239184,0.222099 -0.580876,0.341692 -0.802977,0.290438 -1.469276,0.529622 -0.6663,0.2221 -1.178838,0.392946 -0.717553,0.205016 -1.161753,0.307523 -0.4442,0.08542 -0.802977,0.08542 z"
         style="font-style:normal;font-variant:normal;font-weight:bold;font-stretch:normal;font-size:17.08460426px;font-family:'Redacted Script';-inkscape-font-specification:'Redacted Script Bold';fill:#00286b;fill-opacity:1;fill-rule:nonzero;stroke:none;stroke-opacity:1"
         id="path3684" />
      <path
         d="m 16.448431,52.473266 q -0.239184,0 -0.529623,-0.08542 -0.427115,-0.102508 -0.734638,-0.375862 -0.307522,-0.290438 -0.461284,-0.683384 -0.273354,-0.649215 0.01708,-1.469276 0.102507,-0.290438 0.307523,-0.683384 0.03417,-0.06834 0.06834,-0.136677 0.05125,-0.08542 0.102508,-0.170846 -0.392946,0.205015 -0.768808,0.4442 -0.375861,0.2221 -0.768807,0.427115 -0.700469,0.427115 -1.349684,0.785892 -0.63213,0.341692 -1.178837,0.580876 -0.324608,0.153762 -0.6663,0.153762 -0.324607,0 -0.6321301,-0.119593 Q 9.546251,51.021074 9.3070665,50.798974 9.0507975,50.55979 8.9141206,50.235182 8.7603592,49.910575 8.7603592,49.585967 q 0,-0.341692 0.1195922,-0.649215 0.1195923,-0.307522 0.3587767,-0.546707 0.2220999,-0.256269 0.5467073,-0.392946 0.3929456,-0.18793 0.9567376,-0.495453 0.580877,-0.324608 1.230092,-0.700469 0.751722,-0.4442 1.571783,-0.905484 0.837146,-0.478369 1.640122,-0.820061 0.905484,-0.4442 1.691376,-0.597961 0.546708,-0.136677 1.007992,-0.153762 0.478369,-0.01708 0.922568,0.102508 0.939654,0.273354 1.281346,1.161753 0.256269,0.649215 0.06834,1.264261 -0.170846,0.615045 -0.461284,1.161753 0.05125,-0.01709 0.102508,-0.01709 0.06834,-0.01708 0.119592,-0.05125 0.324607,-0.119592 0.649215,-0.08542 0.341692,0.01709 0.63213,0.153762 0.307523,0.136677 0.529623,0.392946 0.239184,0.239184 0.358777,0.563792 0.119592,0.341692 0.102507,0.683384 -0.01708,0.324607 -0.153761,0.63213 -0.136677,0.290438 -0.392946,0.529623 -0.239185,0.2221 -0.580877,0.341692 -0.802976,0.290438 -1.469276,0.529623 -0.666299,0.2221 -1.178837,0.392946 -0.717554,0.205015 -1.161753,0.307523 -0.4442,0.08542 -0.802977,0.08542 z"
         style="font-style:normal;font-variant:normal;font-weight:bold;font-stretch:normal;font-size:17.08460426px;font-family:'Redacted Script';-inkscape-font-specification:'Redacted Script Bold';fill:#00286b;fill-opacity:1;fill-rule:nonzero;stroke:none;stroke-opacity:1"
         id="path3686" />
      <path
         d="m 26.525678,52.473266 q -0.239185,0 -0.529623,-0.08542 -0.427115,-0.102508 -0.734638,-0.375862 -0.307523,-0.290438 -0.461284,-0.683384 -0.273354,-0.649215 0.01708,-1.469276 0.102508,-0.290438 0.307523,-0.683384 0.03417,-0.06834 0.06834,-0.136677 0.05125,-0.08542 0.102507,-0.170846 -0.392946,0.205015 -0.768807,0.4442 -0.375861,0.2221 -0.768807,0.427115 -0.700469,0.427115 -1.349684,0.785892 -0.63213,0.341692 -1.178838,0.580876 -0.324607,0.153762 -0.666299,0.153762 -0.324608,0 -0.63213,-0.119593 -0.307523,-0.119592 -0.546708,-0.341692 -0.256269,-0.239184 -0.392946,-0.563792 -0.153761,-0.324607 -0.153761,-0.649215 0,-0.341692 0.119592,-0.649215 0.119592,-0.307522 0.358777,-0.546707 0.2221,-0.256269 0.546707,-0.392946 0.392946,-0.18793 0.956738,-0.495453 0.580876,-0.324608 1.230091,-0.700469 0.751723,-0.4442 1.571784,-0.905484 0.837146,-0.478369 1.640122,-0.820061 0.905484,-0.4442 1.691376,-0.597961 0.546707,-0.136677 1.007992,-0.153762 0.478368,-0.01708 0.922568,0.102508 0.939653,0.273354 1.281345,1.161753 0.25627,0.649215 0.06834,1.264261 -0.170846,0.615045 -0.461284,1.161753 0.05125,-0.01709 0.102507,-0.01709 0.06834,-0.01708 0.119592,-0.05125 0.324608,-0.119592 0.649215,-0.08542 0.341692,0.01709 0.632131,0.153762 0.307523,0.136677 0.529622,0.392946 0.239185,0.239184 0.358777,0.563792 0.119592,0.341692 0.102508,0.683384 -0.01709,0.324607 -0.153762,0.63213 -0.136676,0.290438 -0.392946,0.529623 -0.239184,0.2221 -0.580876,0.341692 -0.802976,0.290438 -1.469276,0.529623 -0.6663,0.2221 -1.178838,0.392946 -0.717553,0.205015 -1.161753,0.307523 -0.4442,0.08542 -0.802976,0.08542 z"
         style="font-style:normal;font-variant:normal;font-weight:bold;font-stretch:normal;font-size:17.08460426px;font-family:'Redacted Script';-inkscape-font-specification:'Redacted Script Bold';fill:#00286b;fill-opacity:1;fill-rule:nonzero;stroke:none;stroke-opacity:1"
         id="path3688" />
      <path
         d="m 36.602924,52.473266 q -0.239184,0 -0.529622,-0.08542 -0.427115,-0.102508 -0.734638,-0.375862 -0.307523,-0.290438 -0.461285,-0.683384 -0.273353,-0.649215 0.01709,-1.469276 0.102508,-0.290438 0.307523,-0.683384 0.03417,-0.06834 0.06834,-0.136677 0.05125,-0.08542 0.102508,-0.170846 -0.392946,0.205015 -0.768807,0.4442 -0.375862,0.2221 -0.768807,0.427115 -0.700469,0.427115 -1.349684,0.785892 -0.632131,0.341692 -1.178838,0.580876 -0.324607,0.153762 -0.666299,0.153762 -0.324608,0 -0.632131,-0.119593 -0.307523,-0.119592 -0.546707,-0.341692 -0.256269,-0.239184 -0.392946,-0.563792 -0.153761,-0.324607 -0.153761,-0.649215 0,-0.341692 0.119592,-0.649215 0.119592,-0.307522 0.358776,-0.546707 0.2221,-0.256269 0.546708,-0.392946 0.392946,-0.18793 0.956738,-0.495453 0.580876,-0.324608 1.230091,-0.700469 0.751723,-0.4442 1.571784,-0.905484 0.837145,-0.478369 1.640122,-0.820061 0.905484,-0.4442 1.691376,-0.597961 0.546707,-0.136677 1.007991,-0.153762 0.478369,-0.01708 0.922569,0.102508 0.939653,0.273354 1.281345,1.161753 0.256269,0.649215 0.06834,1.264261 -0.170846,0.615045 -0.461285,1.161753 0.05125,-0.01709 0.102508,-0.01709 0.06834,-0.01708 0.119592,-0.05125 0.324608,-0.119592 0.649215,-0.08542 0.341692,0.01709 0.63213,0.153762 0.307523,0.136677 0.529623,0.392946 0.239185,0.239184 0.358777,0.563792 0.119592,0.341692 0.102507,0.683384 -0.01708,0.324607 -0.153761,0.63213 -0.136677,0.290438 -0.392946,0.529623 -0.239184,0.2221 -0.580876,0.341692 -0.802977,0.290438 -1.469276,0.529623 -0.6663,0.2221 -1.178838,0.392946 -0.717553,0.205015 -1.161753,0.307523 -0.4442,0.08542 -0.802977,0.08542 z"
         style="font-style:normal;font-variant:normal;font-weight:bold;font-stretch:normal;font-size:17.08460426px;font-family:'Redacted Script';-inkscape-font-specification:'Redacted Script Bold';fill:#00286b;fill-opacity:1;fill-rule:nonzero;stroke:none;stroke-opacity:1"
         id="path3690" />
    </g>
    <rect
       width="51.417542"
       height="54.06535"
       rx="1.9402844"
       ry="2.0347321"
       x="6.4244308"
       y="5.2828431"
       id="rect6741-5-0-2-3"
       style="fill:none;stroke:url(#linearGradient3647);stroke-width:0.99347359;stroke-linecap:round;stroke-linejoin:round;stroke-miterlimit:4;stroke-dasharray:none;stroke-dashoffset:0;stroke-opacity:1" />
  </g>
</svg>
